<mxfile host="app.diagrams.net" modified="2023-08-30T00:09:53.730Z" agent="Mozilla/5.0 (Windows NT 10.0; Win64; x64) AppleWebKit/537.36 (KHTML, like Gecko) Chrome/116.0.0.0 Safari/537.36" etag="szhjZHFFr5btPNCsipmF" version="21.7.0" type="github">
  <diagram name="Page-1" id="fBU5Ja-x3S1b1KldZYqg">
    <mxGraphModel dx="1393" dy="756" grid="1" gridSize="10" guides="1" tooltips="1" connect="1" arrows="1" fold="1" page="1" pageScale="1" pageWidth="850" pageHeight="1100" math="0" shadow="0">
      <root>
        <mxCell id="0" />
        <mxCell id="1" parent="0" />
        <mxCell id="zdhp2z9kEAPITORbE_so-17" style="edgeStyle=orthogonalEdgeStyle;rounded=0;orthogonalLoop=1;jettySize=auto;html=1;entryX=0;entryY=0.5;entryDx=0;entryDy=0;" parent="1" source="zdhp2z9kEAPITORbE_so-1" target="zdhp2z9kEAPITORbE_so-10" edge="1">
          <mxGeometry relative="1" as="geometry" />
        </mxCell>
        <mxCell id="zdhp2z9kEAPITORbE_so-1" value="&lt;font style=&quot;font-size: 14px;&quot;&gt;SENSOR LDR LM-393&lt;/font&gt;" style="rounded=0;whiteSpace=wrap;html=1;" parent="1" vertex="1">
          <mxGeometry x="110" y="120" width="120" height="60" as="geometry" />
        </mxCell>
        <mxCell id="zdhp2z9kEAPITORbE_so-19" style="edgeStyle=orthogonalEdgeStyle;rounded=0;orthogonalLoop=1;jettySize=auto;html=1;entryX=0;entryY=0.5;entryDx=0;entryDy=0;" parent="1" source="zdhp2z9kEAPITORbE_so-2" target="zdhp2z9kEAPITORbE_so-10" edge="1">
          <mxGeometry relative="1" as="geometry" />
        </mxCell>
        <mxCell id="zdhp2z9kEAPITORbE_so-2" value="&lt;font style=&quot;font-size: 14px;&quot;&gt;SENSOR DHT11&lt;/font&gt;" style="whiteSpace=wrap;html=1;rounded=0;" parent="1" vertex="1">
          <mxGeometry x="110" y="200" width="120" height="60" as="geometry" />
        </mxCell>
        <mxCell id="zdhp2z9kEAPITORbE_so-20" style="edgeStyle=orthogonalEdgeStyle;rounded=0;orthogonalLoop=1;jettySize=auto;html=1;entryX=0;entryY=0.5;entryDx=0;entryDy=0;" parent="1" source="zdhp2z9kEAPITORbE_so-4" target="zdhp2z9kEAPITORbE_so-10" edge="1">
          <mxGeometry relative="1" as="geometry" />
        </mxCell>
        <mxCell id="zdhp2z9kEAPITORbE_so-4" value="&lt;font style=&quot;font-size: 14px;&quot;&gt;SENSOR HUJAN YL-83&lt;/font&gt;" style="whiteSpace=wrap;html=1;rounded=0;" parent="1" vertex="1">
          <mxGeometry x="110" y="290" width="120" height="60" as="geometry" />
        </mxCell>
        <mxCell id="zdhp2z9kEAPITORbE_so-18" style="edgeStyle=orthogonalEdgeStyle;rounded=0;orthogonalLoop=1;jettySize=auto;html=1;exitX=1;exitY=0.5;exitDx=0;exitDy=0;entryX=0;entryY=0.5;entryDx=0;entryDy=0;" parent="1" source="zdhp2z9kEAPITORbE_so-6" target="zdhp2z9kEAPITORbE_so-10" edge="1">
          <mxGeometry relative="1" as="geometry" />
        </mxCell>
        <mxCell id="zdhp2z9kEAPITORbE_so-6" value="&lt;font style=&quot;font-size: 14px;&quot;&gt;SENSOR INFRARED MLG90614&lt;/font&gt;" style="whiteSpace=wrap;html=1;rounded=0;" parent="1" vertex="1">
          <mxGeometry x="110" y="380" width="120" height="60" as="geometry" />
        </mxCell>
        <mxCell id="zdhp2z9kEAPITORbE_so-14" value="" style="edgeStyle=orthogonalEdgeStyle;rounded=0;orthogonalLoop=1;jettySize=auto;html=1;" parent="1" source="zdhp2z9kEAPITORbE_so-10" target="zdhp2z9kEAPITORbE_so-13" edge="1">
          <mxGeometry relative="1" as="geometry">
            <Array as="points">
              <mxPoint x="575" y="300" />
              <mxPoint x="575" y="390" />
            </Array>
          </mxGeometry>
        </mxCell>
        <mxCell id="3B0WBHdh67ulqCX43t4F-2" style="edgeStyle=orthogonalEdgeStyle;rounded=0;orthogonalLoop=1;jettySize=auto;html=1;entryX=0;entryY=0.5;entryDx=0;entryDy=0;startArrow=classic;startFill=1;" parent="1" source="zdhp2z9kEAPITORbE_so-10" edge="1">
          <mxGeometry relative="1" as="geometry">
            <mxPoint x="660" y="240" as="targetPoint" />
            <Array as="points">
              <mxPoint x="570" y="260" />
              <mxPoint x="570" y="240" />
            </Array>
          </mxGeometry>
        </mxCell>
        <mxCell id="zdhp2z9kEAPITORbE_so-10" value="&lt;font style=&quot;font-size: 18px;&quot;&gt;ESP8266&lt;/font&gt;" style="whiteSpace=wrap;html=1;aspect=fixed;" parent="1" vertex="1">
          <mxGeometry x="310" y="190" width="170" height="170" as="geometry" />
        </mxCell>
        <mxCell id="zdhp2z9kEAPITORbE_so-16" value="" style="edgeStyle=orthogonalEdgeStyle;rounded=0;orthogonalLoop=1;jettySize=auto;html=1;" parent="1" source="zdhp2z9kEAPITORbE_so-13" target="zdhp2z9kEAPITORbE_so-15" edge="1">
          <mxGeometry relative="1" as="geometry" />
        </mxCell>
        <mxCell id="zdhp2z9kEAPITORbE_so-13" value="&lt;font style=&quot;font-size: 14px;&quot;&gt;MOTOR DRIVER L298N&lt;/font&gt;" style="whiteSpace=wrap;html=1;" parent="1" vertex="1">
          <mxGeometry x="669.92" y="360" width="120" height="60" as="geometry" />
        </mxCell>
        <mxCell id="zdhp2z9kEAPITORbE_so-22" value="" style="edgeStyle=orthogonalEdgeStyle;rounded=0;orthogonalLoop=1;jettySize=auto;html=1;" parent="1" source="zdhp2z9kEAPITORbE_so-15" edge="1">
          <mxGeometry relative="1" as="geometry">
            <mxPoint x="959.92" y="390.0769230769231" as="targetPoint" />
          </mxGeometry>
        </mxCell>
        <mxCell id="zdhp2z9kEAPITORbE_so-15" value="&lt;font style=&quot;font-size: 14px;&quot;&gt;MOTOR DC&lt;/font&gt;" style="whiteSpace=wrap;html=1;" parent="1" vertex="1">
          <mxGeometry x="819.92" y="360" width="120" height="60" as="geometry" />
        </mxCell>
        <mxCell id="zdhp2z9kEAPITORbE_so-21" value="&lt;font style=&quot;font-size: 14px;&quot;&gt;JEMURAN&lt;/font&gt;" style="whiteSpace=wrap;html=1;" parent="1" vertex="1">
          <mxGeometry x="960" y="360" width="120" height="60" as="geometry" />
        </mxCell>
        <mxCell id="7XXB0fpz-1v1JhN4-mr2-1" value="SERVER BLYNK CLOUD" style="ellipse;shape=cloud;whiteSpace=wrap;html=1;" vertex="1" parent="1">
          <mxGeometry x="640" y="180" width="190" height="110" as="geometry" />
        </mxCell>
        <mxCell id="7XXB0fpz-1v1JhN4-mr2-6" style="edgeStyle=orthogonalEdgeStyle;rounded=0;orthogonalLoop=1;jettySize=auto;html=1;startArrow=classic;startFill=1;" edge="1" parent="1" source="7XXB0fpz-1v1JhN4-mr2-3">
          <mxGeometry relative="1" as="geometry">
            <mxPoint x="820" y="235" as="targetPoint" />
          </mxGeometry>
        </mxCell>
        <mxCell id="7XXB0fpz-1v1JhN4-mr2-3" value="" style="rounded=0;whiteSpace=wrap;html=1;" vertex="1" parent="1">
          <mxGeometry x="960" y="110" width="100" height="200" as="geometry" />
        </mxCell>
        <mxCell id="7XXB0fpz-1v1JhN4-mr2-4" value="" style="shape=image;verticalLabelPosition=bottom;labelBackgroundColor=default;verticalAlign=top;aspect=fixed;imageAspect=0;image=data:image/jpeg,/9j/4AAQSkZJRgABAQAAAQABAAD/2wBDAAEBAQEBAQEBAQEBAQEBAQEBAQEBAQEBAQEBAQEBAQEBAQEBAQEBAQEBAQEBAQEBAQEBAQEBAQEBAQEBAQEBAQH/2wBDAQEBAQEBAQEBAQEBAQEBAQEBAQEBAQEBAQEBAQEBAQEBAQEBAQEBAQEBAQEBAQEBAQEBAQEBAQEBAQEBAQEBAQH/wAARCAXwAtADASIAAhEBAxEB/8QAHwABAAEEAwEBAQAAAAAAAAAAAAgHCQoLBAUGAwEC/8QAdxAAAAYCAQEEBgMLBQcKCxIPAAECAwQFBgcIEQkSEyEKFBUWMUEXIlEZI1JVVmFxk5bV1zJCYoGRGDM5cnih8CQ0OkNjsbK2t8EaNTZEVIKHo7jR4SUmRkpTV2Rzd3mJkpSVl6LHyNM3OFhZdHWYtLXS1tjx5P/EABwBAQABBQEBAAAAAAAAAAAAAAAFAgMEBggHAf/EAFARAAICAgECAwUFAwcIBwYHAQABAgMEEQUSIQYTMSJBUWFxBxQygZEjUqEVM0JicrHBCBYkgpKi0fBDU3OTo7LCJTVjtNLiFzR1g5Sz8eH/2gAMAwEAAhEDEQA/AM/gAAAAAAAAAAAAAAAAAAAAAAAAAAAAAAAAAAAAAAAAAAAAAAAAAAAAAAAAAAAAAAAAAAAAAAAAAAAAAAAAAAAAAAAAAAAAAAAAAAAAAAAAAAAAAAAAAAAAAAAAAAAAAAAAAAAAAAAAAAAAAAAAAAAAAAAAAAAAAAAAAAAAAAAAAARU5F8ssS4+3ev8EbwrYG29tbUetiwPVWr6mDa5RawKBhuTe30961samppaCqZdSciwnzkqWrxTjx3mIdg/DAlWAg9hHOTHNj602Nl+F6X3hd7G1FltdhOyOPLeM0sTcuNXdnJbbjuuVE7IY1DLpnoRyLeJbx7840ytgzVMkcthUQUxuu0gXiWQ65x7PeHfLHAndp7Ax7WmITsoxnXsaHPyrJJCmoMNCYmxJkxxLTLcibLXHivGxEjOuKSau4hYFy8BxZs2JWwpdjYSWYcCBFkTZsyS4lmPEiRWlvyZMh1ZkhplhltbrrizJKG0KUoyIjMW0qntSNUWLmOZXN1Dvqg4+5hmjeBYvyZu8NromqLG5kWL1PCspRleuZPU4rYWsd6BDyGwomWfWEKbmR4ampSYwFzcBTHc23sI0Lq7NdvbFsyq8PwWkk3Vq+gm1y5RtmlmDU1jDjjSZdxdWD0WpqIfit+t2UyMx4jZOGtPkOMPIbFOVWkcO3thFPkNBjOauZG3XVWVNVrF7FPGcpusTmHNaqLG2r0k/Oo5MiN4E981RHWFOk08bjLYFfQAAAAUTyDduDSMe26jAs2xHJM11bieT211QV1xAtJ1DZ09XYvxmbyuiyFSYifX4Rx3m3ktn30LZM0r8hAjsl+Ye4+Yerto5PuWVj825xLOoFNUSKCkYomirJ9OU048iPGcW08th9tRtvmROqS4aXFL7qTIC7GAtn8z+fWS6FzvHtBaN0dmG7uQWZVaLamqmayyi4fU1r/iJZny7COz6xfOpW0sn4Vc9CgwUEpyxvIj7ZQn4L5DlvarWC0Wuz+WnD7jBKmdHI2A3+T1aL6vLqSkR5zNPjOWQk9DWTLpuZBJlEpCkuMpMuqgMhgBj8weUHai8eq485zah0pzR01WoOVf5Loy+jT7SurUdXZEpTlbW1eQQTabQ4RzLDDLGsYUhSVrMjbWq8jxu5A4hye1DjG4sJrMlpaTI0SGzqcsqXKi5rbGC56vYwnUGp2JOZjySW2zZ1smVXy0pM2nidQ8wyBXUBDvl1vjJdP0uM1OFqixMhyx2zdVcyY7E5VPW0/qBOHFgy2nYTsywkWDTbT8xmXHYjRZqDhrkSI0mJCCl27y2yuEq3o8lzGyhuJW4hyqxpq0UtJPSIzT519Djs+VCrZMuFYwIdxNiRKOVYVNzXsWKplPZsxNTz/GHH4HK28P9z5TMy6IVzu+5Y1NlVXm1wtjGUrcmmTartrnKUYShFTjFz69xXjvir7bPC/hTxJk+FLeK8Uc1zGFj0ZGXTwHGYmXDHjkUU5UI2SyuSwZbWPkY9s5whKiKvrrd3m9dcb0YC2Nxq5M7Xs9twdVbSms37F+1MYgT3otRGmVU2JUSb2vlw7GhYar76kvYDPWLLI5zM9qdU21RbHWmtFhcls5cho4sOESPXp7i22luJ77UVhlHfkzXEEpJuJYSaEIaJSfEkPsIUaW1LWmd47kaeTxvvNNd9SVk6p1ZMFXdXZDTcZxjOyO9Si/ZnJaem1JNLa/APj/AIP7RuFyOb4KvkcenD5TL4bOw+WxY4efhcjh14912NkU13ZNSkqcvGtTqvtSVqrscLoW1V9oAtr7y5pYNi569+iHZGuc/fudgVuP57IucxzFlqkxuT30yrmK1hhxYEKEytDhzb0mrUqtHqhwsXyNMx1VfL/Bdta6zpuzna12DVZ3VUL1czksWDZHZyaJu1VJTBnLkPl68hp31SUs25S3232YcxUVaXozrbl6eXRXyWZw90nj8ngW+RlYWQnRk1XxU3ZS6bOm3zaPLnHIrcFOicXGyMWmjXfC/wBuX2UeM/GPN+A/DPjjw5y3iXg1xzswsPmOMyFyn8o8bk8slwFlOXYuceBhYl9nL/ycr/5LcHHM8pp6rSA+a3W21MoWokqfcNpkj69VuJadfNJfnJpl1fn0Log/n0IW/d588tS612lM0vjOD7t3pt6sinJusL0lTXVwugS3FgWDjNouLb15vSEVlgzMe9g116zAWlcO6kVU0lMpscjynH8RRHJ5HKqxKp2xoqdjk53XzUnCmiqCnbfdKMZSVVUJzcYyl09MZNe/eFvB3ibxtyFvF+FuGy+ZzcfEu5DLhjKuFODgY8q4X5/IZeROnDwMKqy2qqeXm30Y6tupq8zzLa4SuDAKAca95YlyJ1o1svC8c2Ti1O/fXuOrqtoVFhUXyLLG5yq20VFKTaXVfZVzM9D8FVjS20+GzaQrOknLiX1NcVdfXtl1t9pp9lRLaebQ60suvRbbiSWhRdeh9FJURl1Lr0MZGLlY+bjUZeJbG/GyaoXUXQ302VTSlCcdpPTT3ppNejSZGcxxHJ+H+V5DhOZw7uP5Xisu/B5DByFFXYuXjTdd1NnTKUeqE4tNxlKMvWMpRab+gAAyCNAAAAAAAAAAAAAAAAAAAAAAAAAAAAAAAAAAAAAAAAAAAAAAAAAAAAAAAAAAAAAAAAAAAAAAAAAAAAAAALVO5ObWV1+5dj8UZMuh0ZlewMYS/wATd/TJMTKsFzK7JtmPMqchT1ciUdsd0ibTQ1OeNHaeaW1I8GyOsYsgLqwDC9qu0a7Qjh/v+fje+MtyLL3scvm2M411m7Fe5BuKs3+r0jHrONAYVFbnwjVIormucdgLJbDxsSGfEZVmIYJn2LbHxfGMtxazYm1mW4ljWbVTJuspsCx7Lati3o5kyCl1x6KUuG+k0eIXcU4h1CFrNtRkB7IfnUuvd6l3unXp1Lr069OvT49Ovl1+HUU92zZbFp9bZpZajxury/ZkShmOYTjd1aMU1Ta35pJEJifZSnY8eNGbUs5DnjSIyHiZ9XOTG8Xx28Ty453770zv26x7WOVzeQ/KrLX2taZvm1hJsb7W8TKp17EU7rXRWvIi62ofqaW+Yj0LWU2UFyZfzIsh2rjRK6QTswDMFMyIyIzIjP4EZkRn0+PQvn0/MP0YZWV9pFvLaedY1r/lJd3uns01nlFzEx/amsmrDD8h1jllgcOumO5xhUaU5S5nisWRXxk3lS9CTbR4KZjtTIW447Dm5VPFO53reaUxeXyLhYi3spo5MN+7we4i3ON5tQx1Nlj+dwHYf3mGnKq5Tdn6h3WnGkuoddiV631V8QCRhmRF1MyIi+Jn5EX9YC1j2jXIvXk/i1yz1tr/AGlDh7h1xjuMFkNDS2synyygRaZVjPSTFWg4UmQwuHKU1JlVL8hpnxHIsl1pzvtlH7jfyo3hxv3hqXh/uvJYvJei2hiOPX2AbAw9xM7aWvo1tBjOpq9tUHrLrxVkFThpRcPPLkuQek9mZPUzMrYQF88BCblXtrbtHmOptIaOsqDFc22nGzXI7bYGR1CMgi4Tg2vYlXJyK0rqJ/vQ7S6cduYEeDHnsyIfVazdZMui24h7RzrculsbZyvZ/aUZvjFRLtIdHXmniVom4sLi8sCdVCpcfoaSBZ5Df2spDD7ketqKubPcZYee8Dw2XVp0zxN9ofgrwbm8bxvibxFx/Echy8bJ8ZhZDtnl5sapxrnKjHx6rrZpTnGCfSuqXUo9TjLpz8Ti+Qz67bcTFtvqoaV1kelQrck2lKUpRS7Lfr2Xd62i8qAtHYxf7Oy7T1pvyn7WMkalolzI+Q5dccY9HY4zjdjXuR2ZtJkdXkFDWXdDkMeRMhxlY/a1sW5XImwmWYLjk2Kl6oWs8D5Qbgwem2NrvtIctucSyH2idLY2PELUuMOzk1VrOppTp1GT4tS3seKufXSiiSZFay1YQyZsq5cqvlxJT24VWV3V13VTjZVbCFlc4vcZ1zipQnF++MotNP3pmC04txa002mn6pp6af0ZcvAQp4y7R3I9sfbnHnfdnj+W55qqHiuTVOwsbqG8fjZnhOaFYJqJ1pRRu7BrbuLNqp8OY1Xsx4ayZStpnz8V2awrPgAAAAAAABaxzTx0dsTppUzqVe7wizFql8b+9Kum9m3btsmH3vI5ZVRxFSPD++eq901/UF04Rd5FcTcA5GzcFye1yPYGtdl6xl2UrX22NTZG3iue4y3dMtR7urYnya+2rp1NcsMts2FdZVkpCmvFRGcjFKl+OBEfiv1X2nXacuQzJVcmu4pNyjZ/vBWRaoUk0ud36nrBPN2iVd765OFJL498c7FJB8re0UyjL+96/p3gdSTMAxY+puVt3yP2DF7ucWrKkvqjyncCxdgsafYei+PV3hsTYzyPWEmqXPHri3gHG3GswqMLus3yDKdi3cjKNhbTz2+ZyrZOZ5O/FOI1d3dzKr2q512uaUr2ZAZp2qqKtb7q4L70uc7J7fjdxywTi9rc9bYFPya8iy8nyXM8gyrNp9ba5nluVZXZOWNte5NaVNPQwJ9gpHqtcy+zUxDKuroLTxPPtuyXgHK1Fg5xc5JIqCeO1XoLcSKwo/e9YOwVrzIihEx3freMck2vC7v1u/3enn0FmzfblafYCYr4SopkrVXHxuN3DR52Te3cAKwS10/66Spux9YIvrkaZPf8yWL02D6QpcJzbdGanmGw8u+m20prK6xPOMnPIsKxNqnqJFMdTgePvQ2WsfqbZiU45cxHHp5zVtxGfFbhwosZuIFL2XGh6e4oYis83vbaaxPNE7BxXjRc7HOdoqhyhqwVaxXo2Nqp0XcqqhWbj8+NS2ORzIJyZUz1tEuPMlR3QIdcmOUWosu5FY7p7f11lONac4z4jTZjOpfo52RlcXc3IqdjKV45HsvdTEr6InD9UR5qbdSrd+Gxb5nMaT6vPr6tb7VduxO2Vh2U8H8F17SWMqTlmrZ+YM5tAepbuDGrV5ns3YeRY6UO3n10anvUzKkjffXQz7NFc8RwrJUSaRxxdrsYTVnXzq19TiGLCHKhPLZNKXUtS2FsOKaUtDiEuJQ4ZoNba0koiNSFF1I6K8aePeF8V9L4jovX1nlFxiWFuZE5V2OZTaqwyOQrJcnucsnlYS6Slx6sdJqxvJbMT1eoim3CbjtvG++h2S8B0e3eW2htF7C17q7ZuaIx7NNoOMIw+rOusZiZqZNmmnjvSJMSO7HhMu2JnGQ5IWgjUhZmRJSZiKbvaG2bfaPTuCZaxgnTwYFUa9iHksj2m7Y2es6jZCVJoPZPqqITLNw3UGg7FT63Y65pOJQ6mM37vlL2fuG8pN5aS3hf57kOL2WmFQUx6Kqq4E2HkMevyMskYakTJUhp6uWco3GFvMsyiUytJk2SkfW/hzs+cLc52S+dPv7kScnmQa5h7AyrIB0nrtbgVZr1mYi2N/11LSqiqjSFxPVT/wBWG4onybUSEgWauBKlHzJ7V3qZn1wfkt16mZ9e7tK0JP8AYRmRfYXkXkJI+j4//iP3x/7plB/xbcE7NIdnBgmk9t8nts1+wsmvZvJmszaptaaZV10OLisTPL+ZkVwdfKZfedsnmpspLcNyS1GS0w0aXEOqcNSPdcF+DuLcGsJzTDMYzi8ztGaZQzkkqxu6yFUrhlFgJgRYLEaFIlIWlCPEcdkrdJTqlkRNNkj6wEhN56zudpaxzrEcNzSfq3OslxiVQUGz6CJFdyLF1vSY8zrFfcQUn1CW5H9VsY8aTEkLiSJC4MuDYJjTY+M9nWleHOgNj5Bpm64scqude+Mbjwp2zM1kz8uo6Zl20j+sFMpIeNOOSXKqWrxF1s2yiWXjoLuMZBKeJ1KcsER65J6l2HtzXUnGtS7hvtD5s7b009GeYxDhyLB+ugPq9cpZxutHKVClR3VrR6rJjOplMxyccXEVJjvAWUODfGbSu29o1u5OJdxyX4jSNS5xVwd4aVzZM20or1gm1T3cVq7W4ekPeJPS03Hu4WQKuJDFVMS6VZUvuRHHsiqFBhVsVmDXQ4sCFHSaY8OFHaixWEqUpZpZjsIbaaSa1KWZIQkjUpSjLqZmfXY5UOUVJV1cmxk3U+FXQYtjfTmYTNlfTokRmNIuLNNfFhwzsLBbJyZRxosdgnXFJZZaaJDae7AFsjnrBasM40vAmSFwoFsVpWSJySYM4rMi5omJUhHrciJFNUVmUT3STKjMeSfGkMN951HJwfbOEaFauMRXYozartZELImsvwiFUwsRx+xlwUY/B1te3l1kyaqotqyuxmAutssnyCJNuGp6pGRIg2Xes72V/IPj7j2/8br6mzs5OP3VHIlP0N/GjIsCiIsUMM2kKbWOyIiJ0Ge3GiuLQ3LhSmpcKG61MSwmXEmQfk9m7kL7qVL21WSiabbjsOy8ZsFuojMl3WWkkq9e8JtpPRLbSHDbQRdEkRDV3xORVzWfydNFc55n3ZxvdqUq4VYtWPOt1tpScnW5J6a00k97RyL498Mfa5xH2leJ/FvgPwLi+JXzUOFs4/mP85OG46eFTicDj8Pn8dkcfy/JYUZWWX0TyI5EcfIiqZ0qu+FjvrjSXT2eR9kcttb3VdVQqxk7nJnDarkmTUj2lJzrMHH3zVHjKenQo+QIqbSYkno1hOqZNhAfVXSoiUXnpPROQVCleSV1d4wkz+BvLkUb6UF/SNmNIWRfHutrP4EYh/x74XUelctRndxlj2Y5HBiSY1ChmpOirKVdhGeg2MxTftOykWc16A+9BjLcciRI0eXNNcKVJVElQpmz4Lc9lCFLWy8w6mREktd3xYslslJQ82SiUhX1FrbcbWlSHWXHGlkaFmJ3Dx3jVOEmnOc3ZNxSS6nGMeyXZdopfT1bZ6B/k8+FPHHhXwhz3/4g4WNxviHxD4y5PxDLj8bLwsz7ph3cXwnF49d13HW5GD5spcTbbGOPk5CVFlErrFkyuqrxJ+VVhxh1IvCLDSuZ7CySNfU5ycoqM1r62PYw7p11ju1VV6tXUDciZVR1PKyF5pidj8Q11aKzKrp+xVFiXm+zys9e3OmNhWWtJTU3HrKooCJ81NnZu3UmHkseQzepT0W1eokLYjyY60oSwRR2YaE16YaS9VkvZacM8suF3mTaFrcitVMR4pWD26N81CExoyDSyzGqImZzIFcz3lOPrjw1paclPyZbhLkyX3nK/cfuImkuNScha1DhLeC1+UyqSdeUsTL8+y2HPn44VkmmmvP5zkV2bD0Irab3U1USqTJWcZyxOeqBXFC1z7dfDmZ9rf8AlAfZX9rnHcvm8Lwn2YZPibz+Ny74Wct9ocOc8HeJ/C+JzPjb7ji4vH5XiLiJc9THiMmqU6uM4TGs4mT5HIsjya3j/Jj/AMmj/Jb/AMnz7EOc5f8AzY5HI/yxvH9PDLxp4s8OeF+O477HvDHEY+XwduZ9nn2Y1ct4y5bxbxPhuiPFS5PO8S5vHx5zxv4hstyOW4zgeD/kHgPCkjLJC1zcfUlJmlq3fW4ZfBKDobtslH+Y3HEJ/SohaswLe2lNY7i5j6byTM8a4578ye6sLGv3HnFZR1lPkSrOlup2FZF37l6Ni9srCVX8fIoVXldlWuZOzkhVNe3Og18pca7UKL7V0dq/cRxE7I1DrXY3s5lUetscwr4si4rGHHm5L0ass1Y/Psq2M++0hclmDYsNSu6RSG3EmaRXzPhpZ/iTwl4uxr1HmPBlnLy4zGy0r+Hy4c5jY+Lmx5LClCyGTKuvFreK7YW019eRXdj313yUd55XkvF9HA8lxHhPkONwVzN2BHm6OSqznRy3GYM774ca8zjsrHy+PSz5YnJ15VMMmcMvjcT9lpSkrevBfee/tscmN14rcb9Y5H6A1jhkati7IrtbYJrinsdk3VljT9c3WQqasi5BPjxYVfsKsamxrGzxyezWNXROlGt8YkS7rePoW1Q0jbiTS43UVqFpP4pWiEwlST/OSiMj/OQ6TBMLxrX9AxjGH4Vh+A49EdffiY9hFfCqqNl6U4p6XIRX11PSxGpEp5RvSXkxVOyXlKdecU4ZqP2Q9P8AFHiR+Kc/F5KfB8DwF1fEcTx+Vi+HONw+K4/LzsHCqozuVlhcfi4OFVk8pmK/Mthi4WNTVG2vHhW1T5k4TwpxHIcJw9eHyvKX8tnyyMrKyMi3Iz8qul5N87a8HDu5TKzuRlhYVTrxqJZmXkZFirldZOMrHXAAANbNkAAAAAAAAAAAAAAAAAAAAAAAAAAAAAAAAAAAAAAAAAAAAAAAAAAAAAAAAAAAAAAAAAAAAAAAAAAAAAKCchK7eVlj2BtaFta+pv4+4NbTs2esVVqWpOqIl6lzYMBr2nGlNqky6cvDabipbsHPrIhvtOmRjEA7Q7XewNP4VxbxLYFTOxnL66v3LbLgSJLTk2NHs9sW1jVzEvRX3ko9ajuNS2FpdJZJWhZ91fUizehAfkx2bXGPldmj+xtqUuUv5qvH4+PR7Spy64r4cePBbfTXulUIeXA8SMt83FpabYRKNJesEtZmswMbfVm18F7QrWlHxl5IXdTi/JPD4aKzjdyGtu7H96W0oJMPVm0J5kp2WmY8SYtPdKUpxxbsdS467WK67eXe9X8cuaGuMxxuZruuYxCdX6J4Ha7ym3sp9C/Vz6vWLGQQtzY5XrmpnsvS4LD0RKnI7DT0thzu18k1O9DozpjsCsPpbTYDm6toycnrpkKVB1o5g7U2gs8enOOqXCyS5clreYnSoSCaSmpbSUV5wnVrkJI2+7fY0lgWR6u1Rguvcsz652hf4jRMUs/PcgaSzdZH6q46UWVZEl2Qp2SxCONBVKfkSJk0oqZc196W++6sD1WcR7uXhWYRMacNnI5WLZBHoHUq7imrt6plt1TiV95PdNE5TCiV3k90y694unUa9njxnUHSvJXTmxs5iWzdfq/cOF5XlkFqMpd23HxPK4FjdRUxJKmVqs20wpDXq7621+skbbikK6mWxPFjfm/2L2F8jdgXe3tPZlB1Tm+VzHrXMaWxqHZ+JX93JV4k2+YbgPMyqm0s3TVItPBbdjTpzr9g4hMqRIW8Bjj868149bM3/kWyeOttsa0oM/KTleYFsaDVwZEHOba4tH7OFjrdbEguFjjdf7LVFbsWpM5mSuWldlNQaCYzReAlblNRws4x12ZolNZBH05hnjsTicTMjV7tW0/QxJKHjN1p+JQOVkZxl0kuMqaNpaEKQaE2l+L/AGDuP4FnNPmvIfYlTsitoZseyh4DjlRLhUdtLiOpejtZHNsXlPzK1LqELkVrEdDM9sjjSlnHW62vIgbbbZbQ00hDbTSEttttpJCG20JJKEIQkiSlCEkSUpSREkiIiIiIAY0fbMPYhtWRmVdrXQGRzNg6Oh1U7b3Ig48zEcfoMbtpMKPBwhx5TTDGw5NzIsa99kn1uopm0k9XqfKRKNitPZn5XrPi/eVGh+QGrpOqeS+zoMS7x7cmSTV5NVb3orBiK7URMezaV4iqmRVx5EaA5iTTqIDbhsyEunNnux0XOud+nsz3vxO3NqnXEOBLzfMaSqj0cafLZrYsuXX5HS2im5E51JtNGcWA8lpb31O/3EGpKVdSj5xc7P2Xi+UY3vzljmK97ch6Olq6nEznF3tf6iq62I1Hg1OCY/4bMBM2ElKzO5VDZIpbj86LFbsHnbB0CoO+fLmfx1M/IlcfOVbaevl3nFMa0UlCftWZJUZJLzMiPoXkI/cmNmYRq7D6i4zewnYgza3ZUFBtdrBoOb1OpcksIEsqzMb9uwYlRKOuZW2uMi3mxzrylOsw5rrSJSO/ODkXxxl7slYDluH7Gs9R7V1fZ2E/Cs9r6KHlUaPEumGYt7R3mLz59ZEvaW3YjxykwnbCKRuR2lqUtCVNqpr/AHPPKs0d1zlLqJ3qnurNfDjGj8TqXRRrItuEk+9594iSST6mXToOW/t7/wAnzkfth8R+FOcw+eweMo4DAzMHLw8ui52ZUcjJjkVzoyIVZVMde3GyvIw76pKMYzrtrsnBbj4a8T1cFiZuNZjWXSyba7IWQlHUHGPS1KLlCT9zThOMlvs4tJlmWrp7TIOKeMZNZ5DlLepYPaVw9i7e5PY/ipsFsvBZON+FD38eF5FT3eOwcZxzIpFDjq1wMeu8BiTsfgZJEqZSIkxDd4Ds+dhZzn+J7oXb7ByncWrcc3VfUOhtxZrXxYWQ7B14zTUkh+U5NhU+Pw8lrajJH7eqrsri1MaNcEzITG6RojLEf26dQczktk0nmJr1LSUE2ltPE6rJtLZJ7pIJBbl7pIJP1SSRd0k+RF0H79EXNEkdxHMjAGyJPdQaOJ9UXhkRdE91J7kNBd0undI0mnyIuhl5Dpbi8P8Ak7jOO4/rVn3DBxMPzFCFan91x66OtV1QrrrUvL6lCuEIQT6YQjFJLUrrPNttt1rzLJ2abba65OWtttvW9bbbfq22UKqsSzq67VjM8rx3NHKPCsL0BgKdh4q34zjecpyBrP67F4TzaT9XaVj1ySb9Ep3rIaNhMWOnwrCSoroAi9x445TtN2ef5xnGybPcO3Nnz4EjMs/sKGJikZ2vpmnI9HQ0eLwLC1i0dPVsuum3FbsZXfedcdI2kqJpMoRnFsAAAAAAAAAAAAAAAAAAAAAAAAAAAAAAAAAAAAAAAAAAAAAAAAAAAAAAAAAAAAAAAAAAAAAAAAAAAAAAAAAAAAAAAAAAAAAAAAAAAAAAAAAAAAAAAAAAAAAAAAAAAAAAAAAAAAAAAAAAAAAAAAAAAAAAAAAAAAAAAAAAAAAAAAAAAAAAAAAAAAAAAAAAAAAAAAAAAAAAAAAAAAAAAAAAAAAAAAAAAAAAAAAAAAAAAAAAAAAAAAAAAAAAAAAAAAAAAAAAAAAAAAAAAAAAAAAAAAAAAAAAAAAAAAAAAAAAAAAAAAAAAAAAAAAAAAAAAAAAAAAAAAAAAAAAAAAAAAAAAPNZnmOMa7w/LNgZtcw8cw3Bsavcxy3IbA3EwKLGMZq5V1fXM5TSHXUw6uqhS50k223HCZYWaELV0Sf1JyajFOUpNKMUm223pJJd22+yS7tj09T0oClGkd56j5I6yxjcmjM9otlazzGK7Kx/K8eeeVDllHfciTYkqLMYiWdTa10xl6Fa0txCgW9VOZehWUGLKacaTVcVTrnVOddsJ12VycJ1zi4ThOLalGcZJSjKLTTi0mmmmtnxNNJpppraa7pp+jT96YABSfd+9NR8bdY5PuXeee0WttZ4dFalZDleQOvlEilIfbiQokWJCYl2lvbWMx5mFVUtPBn3FrOeZhVsGVKdbaV8hCds4V1wlZZZKMIVwi5znOTUYwhGKcpSk2lGKTbbSSbDaSbbSSW232SS9W37kirADzeGZhjOw8PxTP8ACrmHkeG5zjVFmGJZDXqWuBe4zk1XFuqG5gqcQ24qHaVU2JOjKcbbWbL6DUhKjNJekHxpxbjJOMotqUWmmmnppp900+zT7pn319AAAPgAAAAAAAAAAAAAAAAAAAAAAAAAAAAAAAAAAAAAAAAAAAAAAAAAAAAAAAAAAAAAAAAAAAAAAAAAAAAAAAAAAAAAAAAAAAAAAAAAAAAAAAAAAAAAAAAAAAAAAAAAAAAAAAAAAAAAAAAAAAAAAAAAAADjTIcOxhy6+wixp8CfGfhzoMxhqVDmQ5TS2JMWXGfQtmRGkMrWy+w8hbTzS1tuIUhRkfJAPT0Bi+7w0fubsM9zZRzG4c4ve7K7OXZV63c8t+JFM4uTL0dLkrbYlbh09Ffc8GupK5nu+sR+8zBp4LLWN5I63hbePZDrfIh0HvzUvJ3UuGbw0fmdXnmts8q0WdDfVi1EZGSjZnVVrBeJE2mv6aah+svaKzYjWdPZxpMGdGZkMrQVWJsKHYw5dfYRI0+BPjPwp0Gaw1KhzYcppbEmJLjPocZkRpDK1svsPIW080tbbiFIUZHi28itZ7F7A/cNxzM4uRV5X2b+4c2povKLicq4iw3tQ5Zk05iprtiaOZtZbEZtMiQ6xChUkZZFHQmPiVylWIljl9rfaKpQ8SQhjXSjXz9cY14mTNqMOYhFKMMTLm+y5GMUoYuVJpZSUcfIl5qqtljvdDcl3ofeUffU36yj73BvvKK/D+KPbaMjrfm/NS8YtS5nvDeGZ1eB62wOrXZ319ZrUZmZqJmDVVUFklzbm/uZq2KyioqxiTZ3FnJjQYMZ6Q8hB472j9H7m7czc2L8xuY2L3utezl1reuXPEjiRcuLjS94y4y3GIu4dwxWHPBsaSxZ73q8fvPQbiC87jeNuuYW5kOQ7I6vjprLYXb3bfp+Z3KWKrF+zh1Dmt1F4t8TE3MSa7tvK8anSKiy2NvRmplvxnPV5DT8KXQyXD8dCpGKVCE4geQ3myso2FCh10OJX18SNAgQIzEKDBhMNRYcKHFaQxGiRIzCG2Y8aOyhDLDDKENMtIQ22hKEkRLJw8Nwnj0SjPn7IyrysmLUocPCcdTxMWabjLkJJuGVlResZOVGPJ2Oy1Fu9qT7Up7jF+trWmpSTX83+7H+l+KXbSEOHDrocWvr4saBAgRmIcGDDYaiw4cOK0liNFixmEIZjxo7KEMsMMoQ0y0hLbaEoSRFyQAav6+pkAAAABbV5R9r72dfDnLpWvd6ck8Zqdh17pMW2B4hSZbsrKKF9TSXyjZPA19Q5I3ikw2HGnkwcmkVM1xl5l1qO424lRyH5wbEzjUXDTlbtPWbby9h6647bkzXCVMRlTXY2UY1r+/tqSeiGjquWdbYRGJ5xUkapBRjaIjNfQYIfYI6E7MjlDnG73O0NyzHMp3fYZBj7+qcL27tO/wOpzNF23eWGYZJEto+S4y7sDOZdx4KZ1PaXljLajH7WaqJr0uROh3a64yjKcurpjpagk5Nv69kl79gzSuMPazdnlzCvYeI6I5O4NfZxYOqYrcCymPkGtc1t5KeqlRqDG9jU2LWWTSEtkbpt42zbGTKVuH0Q24aLiox87T0bfs5i3rpfemqKjNNbUuus9pc9v8AVELLrfO9a7Jh0rntmqqn3c1sbzKaOO7fR6qXMcrcnlU86hRZUZUTRWEWyrLsnMXmZoLgnpa43ryIy1WN4jXymainrK6MVplma5PMZkP12JYZRE9HXcX05qJKfJDkiHXV8GLMtbmxrKmFMnsUyUW0q3KW/c13T+Hbs/yBKgBiau+k753OrZW1cV7K7kVe8YYD7/r29HcvuY1bFrorymZs+U5XaWu9exH4TiFsvwHtnmwl5KkO20dSDSd+fgV2hPHPtFtQr2zx/vrA1U0uNUZ7r/KY0Wsz3XV/JYXIj1mTVUSZYQ1R7Bhp5+lvaiwsqO5ZYlJhz1TYFnCgpVzgtyi0vj2aXyem9P5PQJxgMY/VfpQXFDJcD39nG3NT5lqR/Tlhh1FiGFV2XUuwc13PkmWvZuhdZiNUmoxKLUwseZwtUzIL+8sGaauYt65mRKasJdbBs6Iag9LG03l266PA9vcT8v0xq2+u6+nPaZ7WgZja4zGtX2GYWR5Zgi9eYoiJQssyWbC4dp8ruptdWoekwIl4rw2V1eTa96g+3d918N9u/fs/Rbfu9QZb4CKPMnmbo/gtx/yTkdvO7mRsIpXa6tqK7HYrVtkmb5PeE6eP4piEBcmJGsLi4SxJktuSZ0Ksg1cOwubSwg1NdNmM47Z+k7bIZgNbSm9lVyCj8Y5LxuRd2nmV96g9TEs2it2n3dIs6+eeU8k2Trm9keqoX1Irxak9w6Y1zmtxjtem9pd/gttbfyQMtIBEfj1zZ0VyM4n0XM/H7W5wLSFpimQ5haXO16hzB5OKU+IyLKJlMq+Oa69VrgUsmosULvKW0t8fsERVvVVrOaPvDHi3P6V3qOpzy3xbi9xB2RyKxujXOdk5re50eqkWlVWqQiTfUuMQddbNvm6F3veIzPyVvG50eOthywp4jzqorSNc5NqMW2uz92mvc29Lfy2DLVAWYOzN7b/i52lF1N1rj9TkWl99V1Y/dFqfO51ZZJyiphMpetbHXuWVnq8TKW6VCjctK6bVY9kLERD1o1Rv1MWZOjfbnd2xeF8FuZPHLiLlOmrTL3eQcDXNijZjewKnFaLB4mf7Tu9ZLk3NXY49YKlRKBVK5fzZRW0Ft2G4uOfqpsKkreXPq6el9Wt6+S9/z/IF5kBYs4vdu3onmVz+LhZx+1vkGT4W1Q5/aK5D22SRqSnupWB1pznVYhgRUM+zt8cuHUOM19/cZDjUxbCUTU0DrDzXevpimUXHSktNpPT+D9Pp+fcEAePXagcJ+U++844yaO23Ny/dOuYWYWGYYk/rrZmNs1UTA8mrcQylxORZPiFPjU867ILaBBSiut5bk1LxyoCZMNp19E/hgR9g/fUeO9uVzTn5BdVNFBXivLOMiZc2MOsiLkucjcAcbjpkTXmGVPrbadWholm4pDTikpMkKMs5/wClXV//AK5GBfthj37xFdsFCXSt60n3+a+i94IhcU+064V82djZzqbjbtmbnuea3pZWQZjTSdd7KxBFTVQr2JjUmQmzzPEqCqsFN3M2NEJitmy31ks5CG1RkKdKfQwSvRbloc7Qnmu42pK0L09kq0LQolIWhW7sXUlSVJMyUlRGRpURmRkZGRmRjIA4o9tFifKftDd1dn9WaEyLDrzTN7vKjm7MnZ7W29Veq0lnCsJmSYuNR8ZgzIScgkEU+M09bvnXsmbLq5SyJavs69Sko7ajFSbbW0mlv4fH3LYL2ooRyb5E4BxM0PsjkVtNrIH9f6spo17k7eK10e3yBUCVb11Kg62tlz6uPLeRLtI63G3J8fowl1aFLWlLa4pdqR2jFD2Y3HzFN+5Fq2325Bynb+PakbxqlyiFiUuHKyDDs+y9u7XZTqa8ZeYjNYI9BXCTEbcccsmn0yEJjKaepTvHmRprcnY95LzT2/x8d2BpjPNNUGwsr482uXkw/dUljmdNAYx2Zl8GrjJNyLN9Ts1SGatpp5UUoimybcU4KYwb6W03GUlHs1tv3pd+z+DfYEt+D3ODS/aBaVe31oZjNI+Cs5ne4Kac7ooWPXarrHYlRNsFor4Nxdteo+FdREsPqmJcdcQ+RsIQhC3Jhiyt2QfJzipmPZ855v3QHG2TxS0Xgmd7Yt8i1jjthebQslScJxTHL3K8prIdTVO3lrY2lWmOxFx2lrJs6U/WttwmJEuaTIgPe+kuZFnsy3seHHZicoeTGuKKdLh2Ow3JF5jMRKYakkp1Vfr/AFZumJAbkNn47ZW9/XzY0dbC5lc08tyOz9dcnKSjFpJ69ppa+Cbb1v8AMGVCAs19mV21nHPtJ7zItY0uK5XpHf2J1Um8tdR53LgWaralr5EeHb2WGZPBagovkUM2VHjXddZUmOX0LxUy0079e3JmR+Jz27ZTX/AnmFx44o5zqSdkETfFXr27l7Zd2FUYljWu6jONoXmt5lpkNfZ4/O8euxdqjfyWymncV7K683GFHE9XVKX86J9Tj0vqS3r369f7gXnwGJdyI9LD0NgGbWdDx54w5xv7CqW5XTydn5JsBjT1DdLZ7xnLxSqVgWwbiZBmNtPu1y8jaxWxeYa9YdqWmz6Ffu7PbnvqHtGuO1VyC1FEt6GOi9ssNzbB8ichu5DgmcU0avm2FBYvwHHIc9h6stqm6prWN4TdlTWsGQ9FgTvXK2GlXOKUpRaT+Ov4r1X5pAnGAAKAAAAAAAAAAAAAAAAAAAAAAAAAAAAAAAAAAAAAAAAAAAAAAAAAAAAAAAAAAAAAAAAAAAAAAAABam7YTknuPjlxkwCJobKYGudlciuS2meL9Tt60rYdrX6ahbWmXa7fZEqHZIcrTKprcekVjEqchTUCVcsT2TRMjRXEZWFiWZ2XRiVOEbMiyNcZ2NqEN95Tm4xlLphFOUlCMptJqMZSai6ZyUIuT20lvt6v6b0v1aLrIDGw5F6s3t2TWQ8UeQOuedHLHkdR7R5O6n4/cgdI8o9ks7XpdqwdrvTYc7JtVQpVZCla9zSiOqflVMCkcmm5DZqo0qycqKW3rMolb2ne1t55FyR4C8BdObnyTjRU8yMk3XY7S3vhRwoOw67CtIYTW5c9gOscgnsvox3Lc1cnuQ0X9elq4p5qMeVGVMr51tVWEmuEdtuIsbNpuxcurNuWXKu+pVV8dVO7NdlEoStbqpg7K1WrPOUoRi1Z1whb83Sn1QalFwj07T27GlDUt67t6e9aafqtN3ogGPpiFbuTs4O0l4b8XaHlTvzk/wAc+cGL73hWOv8Aktm7W29naezbS+Gx83j57i2cvVtXdMYjkhyk1UnH3mmKhhDeV2jyLOfEqVVfqOTtjunmh2nb/Z9VnJDbnFnj5qLi3U8gtguaDyNjANz7zyTK8x91oVPV7COHMs6LX2OQ5kJq4aqI7zU2eVvXWkeW9Y0tjiz+RG7odOZS8Kzj7OUWa6rlrEqvsxbN4/T5vnrJqlQqk3CUnGzzVS3Ynnaj3g1PzFX0bT9txUl7S7dPS1Jv3La1vsX4wFjjgrmO8OPXaJ8h+zbzvkDsblRqbF+O2H8mdQbF3JZxMr3BrSLa5lAwu31XsTPo0WHLy+dZruY2R0cq5YZkM0dfHegRYcedIYK+OI/PwpYN8avNhfXbRRk0XVqcY20ZFcbapOFkYzrlqXTOEl7M4yUXOPTOVcJ9a3pxabjJPT1Jdmtrs18H717l6AAAYRWAAAAAB43Yud0OrtfZ3s3KvaPuxrrDcnzvI/Y9ZMurb2DiNJOyC49l01e29PtrH2fXyPUqyCy7MnyfCixm3HnUJP7GMpyjGKcpSajGKW3KTekkve22kl8R6ep4jkNyG1DxX1DmW9N6ZlXYNrfBq5U+4uJ6jW/JfWfhV1HR1zXemXmR3kxTVdR0dc0/PtJ77UeO0o1KUnHs0FoPc/bdbnxXmzzZxW4132f+vLhd1w84d3S1tnts21qRC3JuWE2omLantWCS7Fiuk7DyaG4dLSn9HftOz2f+aB0JubtvNzYpzb5sYtb697P7Xlw5dcO+Hly4pB7bU04pqHuTcsNtRR7aotWUk5GiOk7DyWI4dJSn9HftOz2fk7Ro0aFGjw4cdiJEiMNRosWM02xGjRmG0tMR47DSUNMsMtIS2002lLbbaUoQlKSIi2ayyvw7XPHx5wt522Eq8vLrkpw4mE1qeHhzW4zzpRbhl5cG1jpyx8eXX5tqx0ne1KSapXeMH2dr7NSmv3E+8Iv8X4pdtJ4xW+dDbn7EHc+Vc1eFeLXOxuz42Ncou+YPD+lcW85p5x5aW5u5dNw3FGxV0tWwZuS4rfhQ8chtJo7xRa+KpttY5CfHvkLqDlPqLDt56LzOtzrW+cV5Tqe5r1Gh6O+2fhWNJd17pJm0mRUkxLtdeUdkyxYVk9l2PJZSaUmqsUqLGnRpEKbHYmQ5jD0WXElMtyI0qNIbU0/HkMOpW0+w+0tbTzLqFNuNqUhaVJUZHjCb80JufsQNz5VzZ4UYtcbE7PrYty3c8wuH1M4txWolOrS3L3Fp2G4o2Kqmq2VGt+O2TcTGojaaO8P6PPZdprJXOvxFXDHyJwq52uEa8TKskoV8tCC6YYmXOWoxz4xShi5U2lkJRx8iXX5doadDcordLe5RXrU3rc4+rcH6yivw/ij22jKCAeO11nVDtHX2C7Mxb2j7sbEw7GM6xz2xWTKW29g5dSQb+o9qU9g2zPqbH2fYR/Xqycy1MgSfFiyW0PNLSXsRrMoyhKUZJxlFuMotacZJ6aa9zTTTXxMhPa2vR90AAB8BwLUqw6yyK7KAdMcCYVuVr6v7MOs9Xc9fKy9b/wBSeoeqeL6561/qf1fxPG+994YvnLb0XLh9vmztdicW9oZHxntsm63cbF4VZC2dpVxywWqeT2OUb1rRZJjtbYpkGcZmrzKxx6siqjJosejQGG4Tl/7mHonJOTvGHdnH3EtoWemrvbuCW2DtbGqKhq9m0MK6SiPbM+ynZ1WcqFeVJzcftUxrKvnoqrWa5WzodgmNKaw88V7P/wBJS7O5pWBcRtuK2tqevluN0NdiGxdU5fiFbWN/Wjpga35OxoC8QOW0RFOrcOrHYzUw3e5Pl9Gp716ra242xrlv0l2TXxb7r8mgQY2TK7Uz0djfut8bVuxvLdT5c3NyDEcXg5Ve5VobamMY7Zw42T0E7AcnaizMGyWE1aVjVpOpa2rt6v2zCfocotIxurOR3pOO9si3HvfgLERU27unMn4t4hvXF8aftFVsazyHcmY2reR1bs/p6rGtouL4rhde5aLi9+tRZqfQkmn1tqqpV9jV2yXaebywLYXal7EZ1/r/AAs0Vsh+4vNUz8ubxBywZn3VHrPXWj23cEx+2yFTKI0zIMiVSyWvBh2U6NkZVcCrfv4drp2O+Gdojx51zh+trWl1fufjxVO1mjL62ZlLxSTjC6ysrZms8wcgsTLSNjk9mjpX628hRLOfjVnXJlMV0+HYW8GbedkI2VuTi5JSU5QXs912e/e/j8Nvt6IEScf7QbtbMWwio1vjnYNP1Gv6PGomH1GGwtv1DeNQcVhVyKmLj7NR7pHC9kN1iEwfUlMqYcjdWnELSpRHCXsK+HPPbjR2ku2dmbC4l55xo427sw7a7M/FJ1jU2OF4cmXlkLNNaYpHfh2BP2L+IpZfxegt3amK6ddLsi8GGmxfZFScK2H6VDqTX9XxrreN2ms+dx6rYwzHuRORXGs77L2qeHHRXVV65ksjelHiVo/WwSYW3YZnrObkM44xPX8K0tVyvWLzHZM8PeYvFXUmUPc2OVuc8idrbCtmLlvErbMrzNcG1BBJcyVIpsXvMkbTbWdtbzZ65F69Gbr8XrERIFRi9UiPGm3F3bk1CM0vK9vS9mUpOXz7yajrb9dPv8u4xSPRoONOnt5c9N959tbEa3Np+hsOkZXrmov4kWyx+rzLIM8TUNZZIqpbDzE25oK+PLRjy5JLj1k2xct2mPa0CpmwJc+l54Ji0Ofwc2PDp4MTMLpjfWH3l1Hix2p1zQUH0S2uOwLKUlspEpmhmXl+5VtuOKRF9uWRISXjeUqvR9ezW5rcIORfKjO+UOl/oxxTZGDVdPhdr9I2ps09s2UbOpNy9G9R15neWWVd3K1xEnxraHBYV18FDqnyNoqpekednzy9564/xHg8T9R/StK1hc7rl5y17/axwb2HHy6Fq5nHnO/snNMObsvaDmOXKe5TrsFxPU+s5MZMiKb9XWvvEX1LpSS3tdKXR3W/T13v5/MFeO0s7PTY/aZ9mDxz1zrDLKal2xgdPpnceMRsulyYeN5pYRdRzsbtsctrWPGnPVE2fCy2VOqbdyJIjN2kJmDYHEgWUqyg2g9UdrN2lPZT6z13xs7Q3s9Z+SaC1hiuM6goNi0ldJx9CsHx+qj4rS1DueVic40hseZGpYUWCxWsysXn3EdKPbVg5LlOzXL3POzif2jOx+KnESDwb3/D0BvHjdUYfd5Rg06xaroWxb6p1vXYgqgn5fDLI8XnxccU7kkdOJ5LR3Wv8xft0TLazhlS1UpdnXkSx6TVzK0xlHDfbPErRuN4VsVurx3O9oVdhq2pn2NLW3UC0dlTb0955VjcSDKlVceTMcxDAmr71bvIpo0aUttBU16cFGTrceptqUnCUfRbT96a7+/4MFVe2a5m6s332EWt9jcKocjGtCbT3drPTuQYlXY9GwZ7XOIYhX5xdzcAt8XpVlVUceozbAsPpfUap6Vj06BLgSKmVPp7GFJkXGvR39Iad1l2YeiM611VUb+X7pi5Tme1c1ix4bl7kGVRc4ybHyo7SyaR6ycLCYVQxjNfULdKNCcgzZpMJn2djIk9lxy7GbX2F9k/P7NzeGStZXNz5m9y7Ps7xRhaWcb21d28TIKfIsCTasMSHo+Az6nHoda9ZR4SsnjU8tVrX18O+mVTFjDT/DX0ivsqXsx0vw/hYjvrRN9eWVvj8uDaavv8Ti2MxTbBZHWYntHI8WzHAL+wiNxXr6oi+vYg7YpdcclZA6wVq69mVcq4zUdWOS6n0qUfRd37127P4b18BRPtZsOxXid6QJxhzDjLWwsNynNb/jPtPK6LD2266EvY+YbYyDCspr/ZUDw40ROwMTp6uRk1cyyy1euZXbzpjTrt3Kdf9h6TtitbnXah8L8IuXJTVRmOjtWYrauwXG2ZzdbkPIbZ1ROchvOsyGmpSIsx1Udx1h9tt4kKWy4kjQqeHZn9ifywveYLXaN9qnlkDItzVl/EzrEdaLvKLL71/YcGMxHxvKc6tMV8bBKKr18zGguYNheEzLGDCsa6mdJ+jrsdYp7bve2y7Nbmty57RbiFvfjzpf6QdU6uwbVdPnWVfSNqbE/Ydlje88zzG6jew83zvGsks/Usbtq+x8anp7BiR6x6nEdfntPxW7inFTrXUn0Vyi577N69E3669z+YMkHQnGLQHF/B6PXeg9S4PrDF6CC1Bix8Xx+vg2M00NpbesL27SwdxkNzPNJvWd1dTp1nZSFrfmSnnFGoV3ABhtt929v4sGsp4d9nri3aXdqhy74+5fsi/wBXVdNkPJPZ7eR43R11/PfmY7u+qx9qqXBs5cKOiNJay1+S5IS8brbkNpCUKS6s032v+hE9Gf8A55W2P/oxw/8A/uAeo7IXsyeb/F3tX+UHJbeukvcbSexMb5EwMOzX6SdR5N7Yl51uzDcuxVr3cw/Psgy2v9q49VT7DxLShgtQfV/VLFcOc6zGcy1Bk2XTUtQn7PTH001vS337gwM/RTqdvHednL3H2n1yWqPQ9nTtyXEJQ5IbrNxYjCQ+tCTNKFupYJxSEmaUqUZEZkXUd52Q60p9JF5zJUpKVObA57oQSjIjWst8uuGlJH5qUSELWZF1PuoUrp0SZlOrsFOzQ5t8LeZPKPa3JfSn0a4DsbXF7Q4bffSPqTMfbNtM2nRZJGiey8AzzKrqv8SlhSZvj2tdBjI8P1dx5EtbbC4w84eyh7TzjT2neXc+ezSxqPnUXY+eZJtGE5S3+v4FniWT7GYlfShh2eYhsS9oq/JMYyq4tchsI02tTZRWq+1jqkOUd/VQZ6qnKMrLF1xXXUkpNrp6tLs2uy/59/YE6fSxXmU9nVp5hTrSX3uZevHGmVOJJ11DOl+QJPLbbMyWtDRutE4pJGTZuNkoy76evT5d/sVSJ/kfYT/ylUAiJyS7JTtj+0f0dn+6ubuyMVTvXBcdrT4t8ScWvcJosQr7WbkWNyM7l5Ta4+5JwKrvrbDYl1X0K5GUXthYZA5VNZDmWO49VNQHZD5Lq/lDx29Gb5Bad5mUCcB2Nr3Fp2H4tj1hc4DZvQNevbXwn3BrF2mA29vSzpLjs+XChplWD984j1ZicS3PBUv5FRUaoqcZSjdFtJ/Fr0+KXva7b7A7LsB+Q+suKHYkbe5D7imyIWudW7s29fZCUOM1MsbM36vWtTT49Uw33Y8eXdZPe2NZjtNFkyY0WRaWkRqVKjR1Ovt8nin2jXa68wcHazbs7ezu4i6o4h4vZWWKYDH21klpUN28PH5L0J6mw1rEcz1nVxSrXG/VZz1XgL2L19r6xUM3MyVXzybpN2O/ECPzl9H83txdsLs8Rf2xuzY72K5Q+w+/DqcrxCdqrL8OtJ0eOpEiXRtZhicCLeMRjN96rKxYjkcjuEKfcJNXekj8AsLd4aae428fsx1XXZRkEzEtmbMyPEbzFsLYyWc9aXFvi15Q7hwm+doJlxInZAmoyrA77IWJ9hLQmhaQ6muQkouVv4OvzPSbaXT8V3Sb37vVL09dMQa4qZJuwvSacMu906moOPG5sj2vlJ7Q1XhGSV+SYzVW+TcZ75d1KgX1LNnQLeHnTMxOcvmcyY6iZkS257rtjHfWKxek94nBz3tPuGeDWj8qLWZporV+J2MqCppM2NByLkJs+nlvw1PtPsJlMx5jjkdTzDzRPJQbjTiCNB1Ryzsdu1e0j2lPGPmfiuRQ+UOdZHnOFbF5HboqbbW+OV+G5VbZBJxzaWN1+G55Z43LlYJWapmopsRmUtLIfXAjyGYFPjEuNS07MwO2y7Nbmty57RbiFvfjzpf6QdU6uwbVdPnWVfSNqbE/Ydlje88zzG6jew83zvGsks/Usbtq+x8anp7BiR6x6nEdfntPxW6uuPmVy6o6VTT0+ykk+3td13fbfdgvB8yuLWhNe9lTyr494NrLFMY1RhPErc8jFsWraiGUWqusN1lkGQY3lPfeZcdm5ZAyOorsiXkk9cm4nXsf2pOmSJjrrq7KHojUqQvjby3hKdWcWPvDDZTLJqPuNyJmBJZkupT16Et5uDEQtRERqJhsjMySnpku8u8FyraHE/k/rTBav25m2xOPG6sFw6k9erqz2xlWW62yWgx6r9pXEyvqK/2hb2EOJ69aT4NdE8bx50yNGbdeRZV9HS4H8reCOmeR2J8rNV/RXf57s7E8hxOB78a3zj2rT1mKv1s6Z61rjMMvhQfAmrSz6vZSYcpzr4jLDjRG4VlS/Y2JtbcotJvu+/d/F/MGRiAALIAAAAAAAAAAAAAAAAAAAAAAAAAAAAAAAAAAAAAAAAAAAAAAAAAAAAAAAAAAAAAAAAAAAAAAChHJfjXp/lzpbNdBb1xdGWa5zqExHs4SJL1fZ10+BKZsKbIKC2jGmVUZBRWcaNY1dgwaiQ+z4EtmXXyJcKRXcBXVbZTZXdTOdVtU42V2VycJ12QalCcJRacZRkk4yTTTSaPjSaaaTTWmn6NFpDTPY66M1nt7WG5Ni765ecrbrRExc7QWM8pd1J2bg+nZyGGWa+3xPHGMZoWV39KbDKqa2tHpvs5VfRSY8VFnj9TYx5Y8x+EOj+cWDYxh+4G8wpLfX+Wwc91ftHWGTv4PtjVmZwCJLOR4HmMaNNXVzHGkoRJjy4NjWyHY9fPcgnaVFROgS+AZtnK8jbkU5c8u55GOumiyMuh1RblKUa4wUYRjOU5uxKKVjnN2KTnLdKqrUXBRXTL8Sfffou7e29JJLv20teiLbHFfswNOcZ9w2XI2+2tyI5RciZ2JqwOu3Nym2b9J2WYhhrshb8rHcHQzS0VZjkKcSiamPohy7I2XLGPFnxId1dRZ/peYXZx6Y5hZpr3b1lm26ND8gdU1VnQ4DyB45Z6et9p1OOWrkiRKxSwt1VdzCvMVXLmT5Hsiwr1LZTa3keDMhMXtuiZcCAHyvIvKjmvLt+8xr8mNm0lGnpcHQq0vLVDhKUXSoeU1KW4Pqe/iqrUehQXS3tr59nvfr1Jpae9rS0+xBrhp2fmkeEzmy8hwa72jtHbO57Wst9ub43xm7ux9xbBkUsZyPURbzKF19TGRW1pyJj0aFX1cInHpRqnOTfVYHqk5QAY2Rk35d078m2d10+lSsse5NQioQivcowhGMIRilGEIxjFKKSVUYxglGKSS9y+fdv5tvu2+7fqAABYKgAAAAAAAAAAAAAAAAAAAAAAAAAAAAAAAAAAAAAAAAAAAAAAAAAAAAAAAAAAAxKOUvo6fLPk9vXZmT5d2lV/c6X2ttKx2ZeYdkuK5hJcppE+USokSuwGBnkfXMybjVOiNj1BaMooW2K2vgttVsNhooictcBVGcoNuLSb9+k/n22noEa+IfFXVnCnjxrfjZpyJOZwnXNU/Fasbh5mTf5Ld2k6Tb5JleRS47EWPIusiu502zmFGjRoMTx266siQ6yHDhsSUAB8bbbb7tvbfxbAAAHwAAAAAAAAAAAAAAAAAAAAAAAAAAAAAAAAAAAAAAAAAAAAAAAAAAAAAAAAAAAAAAAAAAAAAAAAAAAAAAAAAAAAAAAAAAAAAAAAAAAAAAAAAAAAAAAAAAAAAAAAAAAAAAAAAAAAAAAAAAAAAAAAAAAAAAAAAAAAAAAAAAAAAAAAAAAAAAAAAAAAAAAAAAAAAAAAAAAAAAAAAAAAAAAAAAAAAAAAAAAAAAAAAAAAAAAAAAAAAAAAAAAAAAAAAAAAAAAAAAAAB433ya/EOQH8v71U/vcPfJr8QZB+qqf3uOf4aPwSDw0fgkAOB75NfiDIP1VT+9w98mvxBkH6qp/e45/ho/BIPDR+CQA4Hvk1+IMg/VVP73D3ya/EGQfqqn97jn+Gj8Eg8NH4JADge+TX4gyD9VU/vcPfJr8QZB+qqf3uOf4aPwSDw0fgkAOB75NfiDIP1VT+9w98mvxBkH6qp/e45/ho/BIPDR+CQA4Hvk1+IMg/VVP73D3ya/EGQfqqn97jn+Gj8Eg8NH4JADge+TX4gyD9VU/vcPfJr8QZB+qqf3uOf4aPwSDw0fgkAOB75NfiDIP1VT+9w98mvxBkH6qp/e45/ho/BIPDR+CQA4Hvk1+IMg/VVP73D3ya/EGQfqqn97jn+Gj8Eg8NH4JADge+TX4gyD9VU/vcPfJr8QZB+qqf3uOf4aPwSDw0fgkAOB75NfiDIP1VT+9w98mvxBkH6qp/e45/ho/BIPDR+CQA4Hvk1+IMg/VVP73D3ya/EGQfqqn97jn+Gj8Eg8NH4JADge+TX4gyD9VU/vcPfJr8QZB+qqf3uOf4aPwSDw0fgkAOB75NfiDIP1VT+9w98mvxBkH6qp/e45/ho/BIPDR+CQA4Hvk1+IMg/VVP73D3ya/EGQfqqn97jn+Gj8Eg8NH4JADge+TX4gyD9VU/vcPfJr8QZB+qqf3uOf4aPwSDw0fgkAOB75NfiDIP1VT+9w98mvxBkH6qp/e45/ho/BIPDR+CQA4Hvk1+IMg/VVP73D3ya/EGQfqqn97jn+Gj8Eg8NH4JADge+TX4gyD9VU/vcPfJr8QZB+qqf3uOf4aPwSDw0fgkAOB75NfiDIP1VT+9w98mvxBkH6qp/e45/ho/BIPDR+CQA4Hvk1+IMg/VVP73D3ya/EGQfqqn97jn+Gj8Eg8NH4JADge+TX4gyD9VU/vcPfJr8QZB+qqf3uOf4aPwSDw0fgkAOB75NfiDIP1VT+9w98mvxBkH6qp/e45/ho/BIPDR+CQA4Hvk1+IMg/VVP73D3ya/EGQfqqn97jn+Gj8Eg8NH4JADge+TX4gyD9VU/vcPfJr8QZB+qqf3uOf4aPwSDw0fgkAOB75NfiDIP1VT+9w98mvxBkH6qp/e45/ho/BIPDR+CQA4Hvk1+IMg/VVP73D3ya/EGQfqqn97jn+Gj8Eg8NH4JADge+TX4gyD9VU/vcPfJr8QZB+qqf3uOf4aPwSDw0fgkAOB75NfiDIP1VT+9w98mvxBkH6qp/e45/ho/BIPDR+CQA4Hvk1+IMg/VVP73D3ya/EGQfqqn97jn+Gj8Eg8NH4JADge+TX4gyD9VU/vcPfJr8QZB+qqf3uOf4aPwSDw0fgkAOB75NfiDIP1VT+9w98mvxBkH6qp/e45/ho/BIPDR+CQA4Hvk1+IMg/VVP73D3ya/EGQfqqn97jn+Gj8Eg8NH4JADge+TX4gyD9VU/vcPfJr8QZB+qqf3uOf4aPwSDw0fgkAOB75NfiDIP1VT+9w98mvxBkH6qp/e45/ho/BIPDR+CQA4Hvk1+IMg/VVP73D3ya/EGQfqqn97jn+Gj8Eg8NH4JADge+TX4gyD9VU/vcPfJr8QZB+qqf3uOf4aPwSDw0fgkAOB75NfiDIP1VT+9w98mvxBkH6qp/e45/ho/BIPDR+CQA4Hvk1+IMg/VVP73D3ya/EGQfqqn97jn+Gj8Eg8NH4JADge+TX4gyD9VU/vcPfJr8QZB+qqf3uOf4aPwSDw0fgkAOB75NfiDIP1VT+9w98mvxBkH6qp/e45/ho/BIPDR+CQA4Hvk1+IMg/VVP73D3ya/EGQfqqn97jn+Gj8Eg8NH4JADge+TX4gyD9VU/vcPfJr8QZB+qqf3uOf4aPwSDw0fgkAOB75NfiDIP1VT+9w98mvxBkH6qp/e45/ho/BIPDR+CQA4Hvk1+IMg/VVP73D3ya/EOQF8vNqp/e45/ho/BIPDR+CQA/sAAAAAAAAAAAAAAAAAAAAAAAAAAHitg7J15qXFbLOtp53h+t8Lp0eJa5bneS0+J43XJ7i1l65dXsyBXR1KQ24baHZCVudxRISoyMhYA5T+k0cDtIOWNDpGuzflTl8JamkO4dHPBNZlIbSrxWJOwcugLs5KSc7iGZ2L4LlVVISbjjVgaUNk9Jcfw/KcrPo47ByMpp6lKuD8qD/APiXS6aa/wDXnEtztrr/ABzjH5N939Eu7/JGRoOut7iox+smXV9a1tJT1zJyLC2t50WtrIMdJklT8yfNdZixWUqUkjdfdQgjURGrqZDXc8j/AEl3tEtyqnVmrJuvOM2LyUuMMs66xmPk+ZrhuKUZon5rsFOQpRNJJk2mxxbHsSfbSlKmUtPd51Vkvb/IrfvIG2Veby3VtPbtobpvNytjZ3k2X+qK6GlKK9i8spsatYaQfhsRYDMaNHaImWGm2kkgt8wPsv5W9RlyGbi4MX3ddUZZd0flJRdNKfqtxusS9e/oYc+RrW1CEp/N+zF/3y/VL/E2d+3O137NLSDkmPnnMvS7k2H3ylVmBX0rbltGdR170aTV6ngZrPjSi6dDiyI7T6TMu82kjIxbk2J6UL2b2IKksYjTcidrvo7yYsnFNbUdDUyFl/JW7I2Fm2H20aOv8NNFIfT1LrF+Pd14wDa8b7MeCqSeTk8hlS9682qip/SFdLsX/fMxpchc/wAMYRX0bf6t6/gZuGWelt62iLdTg3CbOMgbI1Ew5lm66HD1rL+ap1mn13nKWz+BqQiQ50+BLP8AlCg1x6WztV9azoOFmvqxozPuIuNx5HeLSXyJbkLBMeSsy+Zk0gj+REMQgBL1+AvClaX/ALL63+9ZmZ0m/qvvKh+kUWnm5L/6TX0jBf8Ap2ZZ3/RZvIvv9f7kzSvh/g++Wdd/9Z07v/ex6mn9LZ2qwtB3/CzX1m0Rl30U+48jo1qL5khybgmQpQZ/IzaWRfMjGIQAuvwP4Va0+Iq/LIzIv9Y5Kf8AE+ffMn/rX/sw/wDpM3DE/S29bS1tJznhNnGPtmaSfcxPddDmC0F/OU0zca7wZLh/E0oXIb6/A1l/KEydd+lC9m9l6ozGXU3InVD6+6mVJyvW1HfVMdZ/yltSNe5tmFtJjo/DVRR31dD6Rfh3teMAwbvs68MWpqvGycbfvpzLpNfT7w8hfqmVrOyF6yjL6wX/AKek2qmo+137NLd7kaPgfMrS7U6YSSi1me3srUdtJdWRGmNGq9sQMKnSZZ9ehRY8d19RkfcbURGYuF1FxUZBWQ7qhta27p7FkpFfbVE6LZVk6OozSl+HPhOvRZTKlJUROsOrQZpMiV1IxpoBWXUPIrfvH+2TeaN3TtPUVoTpPOStc53k2Ietq6ElSLBmjsoUexYdbLwn409mTGkMmbL7TjRmg9ezPsroab4/lbq2vw15lELU/k7qHT0/VUS+hfjyUv6dSfxcZNfwfVv6bX1NwWA11HHH0l3tEtNKg1m05uvOTOLxktsPM7FxmPjOZohtqSZIgZrr5OPJXNNJG2qxynHstfWlSlPJdd7rqciPix6TRwO3e5XUW7q7N+KuYTFJaW7mMc871mchxKfCYjbBxGAizjpNzvoenZRguK1UdJNuOz0pW4TOlcl4E8R8apT+5rOpjvdvHyeQ9L3+Q4wyfTu2qXFae5GXXmUWdurofwn7P8e8f4mRoA8Vr7ZOvNtYrW51qzO8P2RhdwjxKrLcEyWnyzG7FPcQs/U7qimT66QpKHGzcQ1IUtvvpJaUmZEPajUJRlCThOMoyi2pRknGUWuzTT000/VNbRlevoAABSAAAAAAAAAAAAAAAAAAAAAAAAAAAAAAAAAAAAAAAAAAAAAAD4yJMeI0p+U+zGYQXVbz7qGWkl/SccUlJf1mAPsApza7NoIPebhE/avJ6l94LwI3UviRyXk94y+xTLDyD+JK+2nNls3IpveREONWNH1IvV2idf6f0n5HiF1+XeaaaP7Oh+YAkUtaG0qW4pKEJLqpa1ElKS+1SjMiIvzmY89My/GYPUpF1B7yf5SGHDlrI/sNERL6yP8AMZEYi/MsrCxWa586XMV169ZMh14iP+ilajSki+BEkiIi8iIiHCAEiZO0caZ6kymxmH8jZjIbQf6TkvMKIv8AtDP8w6Z7bkVPXwKSQ59hvTW2f0dSRHf6f2mKHgAKwr25KP8AvdJHT/jzXF/8GO2Pl9Ldh1/6UQun/t7/AF/t6f8AMKRgAKwo25KL++UkdX+JNcR/wo7g57O3Iqunj0khv7TZmtvfp6EuOx1/tIUPAASJjbRxp7oTybGGfzN6MhxBfoOM8+oy/wC0I/zD0kPL8ZndCj3UHvK/kofcOIsz+wkS0sLM/wAxEZiKQACZyFocSS21JWhRdUrQolJUX2kojMjL85GP6EPIdlYVyyXAnS4auvXrGkOskZ/0koUSVEfwMlEZGXkZGQ9vW7NyKF3USzjWbReR+sNE0/0/ovx/DLr8u8606f29T8wBIwBTmq2bQTu63NJ+qeV0L7+Xjxup/Aiksp7xF9qnmGUF8TV9lQI8mPLaS/FfZksLLqh5h1DzSi/ouNqUk/6jAH2AAAAAAAAAAAAAAAAAAAAAAAAAAAAAAAAAAAAAAAAAAAAAceXLiwIsmdOkx4UKFHelzJkt5uNFiRYzanpEmTIeUhliOwyhbrzzq0NtNoUtakpSZli+9pX6SXpzQD2Q6h4UxKDf23YTs+nt9qTX3JOkMInNtm0b1BKrX239s2sWR3kl7Gm1uFtrS1JbybICblU5yfFcPyPNZCxuOxp3z7Oyf4aaYt667rZahXH4bfVJrphGUtJ27LYVR6pySXuXvb+EV6t/3e/SMiTe3IjR3GPA5+zd/bRw/VOD1/VC7zLrZqCU2V3e8itpK5BPW2RXDxecaloIFlbSvMo0J0yPpiUc4/SnHjXb4NwH1khDReNDLeu5q01uOfyEnOwvVrElKGiIyccgWmc2bxrSaCsMGaUSkDFL5H8puQPLnYk7aXIraeU7RzGWuQUWTfTSTUY/Ckuk8unxDGoSIuO4fRJcInEUmNVdXWk6RvqjKkOOOroAPZOD+zjjcJQv5aa5LKWn5K6oYNcvh0drMjT/AKVrjXJdnR7yKuz7J9qv2cfj2c3+fpH6Lv8AMkByE5V8juVuWKzXkXubPduX6VurhLy28kSaijQ8pS3YuL4zG9VxnE69a1LX7Nxqoqa8nFuLTGJbi1Kj+AD0WqqqiuNVFVdNUF0wqqhGuuEfhGEEoxXySSMFtttttt+rb239WwArdpHjVyC5KZB7r6C0xsnb12hxDcqPgWI3OQx6snCI0v3lnBiOVdDD6GRrnXU2BDbJSTcfT3k9b8PHn0XvnptBqFa7ryjU/GylkEwuRW3V0vZewGGniJZuNY5ga5GIrU035Ox5uxq2Uh5SGVMkZPKZjuQ5ziOKT/lDkMXGklvyp2KV7T98cevrvkvnGtlcKbbfwQlL5pdvzk9L+JjYAM/TS3orfCbDG40vdG3N47tt2Tb8eJWzMe1Xhssk+bpLpqevyLLGvEUXRJs7AR4bZqSffWaXU3Q9YdjL2XupExvdjhhp+4djEjuyNl19tuF5xxBF9+eLa9tmTKnFKLvmSWkNJUf3pttJJSWoZf2mcBQ3HGqzs1r0lCmFNT/1r7IWr/uWZUePuf4nCH1bk/0S1/vGrIHtKfW+xMiQleP4Fml4hZEaF0+LXlmhZH8DSqFBfJRH8jIz6/IbejCtFaR1slpGutOaqwFDBJJhOFa9xHFksknp3SaTRVEAmyT0Lu9wk9OhdBVQQlv2rLbVPCNr3St5DT/OEMN6/wBtl5cb8bv0h/i5f4Gnu/ue9+dzxfoP2/4fTr4n0aZp3Onx69/2L3enTz69R5S41vsTHULXkGBZpRoQRmtdxi15WIQRfE1qmwWCSRfMzMunzG48AWY/atdv2uEqa+Ec+cX+rxJf3H3+TV/1z/2P/vNMeA3Dma6K0jslLqNi6c1VnyHyUT6c117iOUpeJXXvE6m9qJ5OErqfe75K69T6iDez+xm7L3baZPvPww09TuySX3pGta6208824sj+/Mlqi2wxpLiVH3y7zSm1qL7624k1JVIUfapgSa+9cTl0r3ui+nJ19FZHF3+qKJcbP+jbF/2ouP8Ad1GrHAZ+m6fRW+E2ZtyZemNubx0nbPG54ESym49tTDYhK82yRTXFdjuWO+GozJRvbAX4jZJT9RZKdVZa5Dei989NXtTbXSmUan5J0scn1x62lul602A+0yXfJbuOZ4uPiKFOt/3qPC2NYyVupWylkzNlT2zYPjrwznNRXILEsl/Qzq5YyX1ukpYy/wC+/h3MeeHkQ79HUvjB9X8PxfwMbABW/d3GnkFxryD3X37pjZOobpbi24sfPcRucejWhNkZqeo7OdEbq76IZEo0TqWbPhuElRtvqJKulEBtldtd0I2U2QtrmtwsrnGcJJ+jjOLcZL5ptGM009NNNeqa01+TJAcfOVfI7illic146bmz3Ud+pbS5q8SvJEaovEMqJbUXKMZk+tYzllehaUL9m5LUW1ebiG1qjGttCk5WfBz0px4l1GDc+NZIW0fgwz3rpmtNDjf8tJTs01a/JUh0jM23J9pg1myaEksq/BnVGlAwzAENy/hzh+bg1n4dcrWtRyqkqsqHbS1fBdUlH3Qt8yv4wZdqvtpfsTaXvi+8X+T/AL1p/M3BWieRGjuTmBwNm6B2jh+1sHsOiEXmI2zU4oUru95dbd1yyZtsduGS85NLfwK22i+RSYTRmXWsw1B3HDlNyB4jbEg7S467TynV2YxFxylSaGaSqjIIUZ03kU+X41NRKx3MKJThm4ukyWrtK03TJ9MZMhtt1GbP2anpJenN/vY9qHmtEoNA7dmuwKeo2pCfcjaQzec42TRPX8qyfcf1NaypHdSftmbZYW4tTslzJsfJyLTl474g+z7kuLVmTxzlyeFHcpRhDWbRBd27KY7V0Yr1so9rs5SprgmyUozq7NRs/Zz+LfsN/J+76Pt82ZRQDjxJcWfFjToMmPNhTY7MuHMiPNyYsuLJbS9HkxpDKlsvx32VodZeaWtt1taVoUpKiM+QPPTOAAAAAAAAAAAAAAAAAAAAAAAAAAAAAAAAAAAPwzJJGpRkSSIzMzMiIiIupmZn5ERF5mZ+REAP0cOfYwayOqVYSmYjCfi48skkZ/JKE+a3Fn8kNpUs/kkxTrJtlQq43IdKluwmJNSFylGZwWFEXTqhSDI5ayPy6NqSyXx8VfQ0CiNna2NxJVKspTsp4zPum4r6jSTPr3GWk9G2W/IvqNpSnr5mRn1MwKr3u1P5bFBF+0vX5qf0fWZikf6e6t9X+MwKUWNtZWzvj2U2RMc8+74qzNDfX4k00nutNJ/otIQn8w64AAABzoNZY2bnhV8KTMX16GUdlbiUfncWku42X9JakpL5mAOCAqXXatvpRJXOeiVqD6dULWcqQXX/AHNg/B8vmRyUmR+XT49PbQtVUbHQ5sudOWXxSSm4rJ/b9RtK3i/qkfD8/mAI/AJUxcMxeGReFSwlmXzkoVMPr9pnLU95/P8AT8B3rEGFGIijQ4sci+BMR2miL9BNoT0AEQERZTv97jPuf4jLi/8AgpMfb2bY/wDYE3/5K/8A/gxMMABDZcWU1/fIz7f+Oy4j/hJIfATQHFfgwpJGUmHFkEfxJ+O06R/pJxCuoAhyAlTKwzF5hH4tLCQZ/OMhUM+v2kcRTPn8/wBPxHl5uqqN/qcKXOgrP4JNTcpkvs+o4lDx/wBcj4fn8wBH4BUux1bfRSUuC9EskF16IQs4sg+n+5vn4Pn8iKSozPy6fDr4KdWWNY54VhCkw19ehFIZW2lf521qLuOF/SQpST8+hgDgjsa62sql3x62bIhueXe8JZkhzp8CdaV3mnU/0XULT+YdcAArRRbU/kMX8X7C9fhJ/T9Z+KZ/o7y2Ff4rAq5AsYNnHTKr5TMthXwcZWSiI/mlafJbay+aHEpWXzSQh2OxrLWxp5KZVbKdivEZd40K+o6kj69x5pXVt5vzP6jiVJ6+ZER9DICX4Cl2M7KhWJtw7pLdfMUaUIlJMygvqMunValmZxFmfl0cUpk/j4qOpIFUCMlESkmRpMiMjIyMjIy6kZGXkZGXmRl5GQA/QAAAAAAAAAAAAAAAAAAAAAAAAAAAAAAAABHXlFyu0Nw21Pd7m5CZ/VYLhtQ243DRJcTIyDK7nwVuxMYwzH2le0smySwNBlGra5pZMMk9Y2T0CphzrCLGjtI+050F2bOqkZdsqX71bNymPMa1Tpajnx2crzmwjEaFz5bi0SCxnCqyQptN7l0+K9HjGZQKqJcXj8Ook63Xm5zo5Bc/dyWO49+ZOdhJQcqFhWEVCpMTBNaY2++l1vGsLpHpEkoUbo3HVZ2kt6Xe5BKYbn3tlPlIbW3u/hXwZl8/OOVkOeJxUZNSv0lbkuL1KvFUk01vcZ3yTrg01FWTjKCxMnLhSnGPtWfu+6Pzk/7ku79+l3Lg3ah9uZyJ5/zbrW2CPXGieLThuwkaxprbpkmx4SJCXGbDbuQV5t+1kPG01IawesdTiFYsmUTE5NZQY98uxoAD3vj+NwuKxoYeBj149EP6MF7U5aSdls3udtktLqsslKT0lvSSULOydknKcnJv4+75JeiXyXYAJf8ADrgjye537CTrzjjrexyp6KpteT5lYmul11gsJf1vXsyzKSyqsqu+2S3YVSyc3I7kmnmqGltZDamSzmuz19Hc4m8TGaLP9+R63lLvaH6vPKZllQgtQYdZINiQ2jEteTjlMX0uukoUlnJs4VaPSFtsWVXj2KyiUymH57xZxHARcMm135jjuGDjuM73tey7W2oUQfb2rGpSW3XCzTRdpxrb+8VqG+85do/PX7zXwX5tGHxwd7G3nNzwOqyHXWtV6/1DYLZcVu3bXruIYJJgrU2pUrE2FwpOS58S2jeKPIw6jtqVMxlUO0u6lZ+InLr4eejS8H9CM1OR7+eveV2xYpNSH28t8bE9TQZqW2zP2drmisHJNy024b7bjeb5Pk9XOaNl06KE830LIvaaaYabYYbbZZZbQ0yy0hLbTTTaSQ2222giQ222giShCSJKUkSUkRERD6DxvmfHvO8q510XfyZivaVOHKUbZRfutyu10n6pqrya5J6db9SUqwqa9OS8yXxn6flH019epr4nlcLwXCNbY5X4frvDcVwHEqlBtVWLYXj1Ri2OVjZ9CNuvpKOHArIaDJJEaI0VtPkXl5EPVAA0qUpSblJuUpNuUpNttvu22+7bfdt92Znp6AAAfAAAAAAAAAAAAAAAB5XNMFwjZOOWGH7Ew3Fc+xK2QTVri2aY9UZTjlm2XUibsKS8hz6yYgiUZEiTFcT5n5eZjH25h+jS8H99s22R6BeveKOxZROyGG8S8bLNTTpqm3DL2jrm9sG5NM044TDbbeEZPjFXBaJ50qKa850PIzASPHcvyfE2ebx2bfiy2nKNc26rGvTzaZdVNq+VkJL5Fuyqu1ashGXza7r6Naa/Jo1cPOLsbec3A87XIdi61XsDUNet5xO7dS+u5fgkaChTikyssYRCjZLgJIaJkpEjMaOppVTHkw6u7tll4irVo3NjrTT7TjD7bbzLza2nmXUJcadacSaHG3G1kaHG3EGaVoURpUkzSojIzIY9naFejucTeWbN7n+g49bxa3tM9YnnMxOoQeoMxslm/IcRluvIJxWKGXYyVpS9k2Dqq3o63H7K0x7KpRpZV6rwX2mV2OGPz1Cpk9RWfixk6vh1X4+5Th8ZTpdibfamESOu49rcqXv+pJ9/9WXo/pLX1bNdMAl/zG4I8nuCGwla85Ha3scVelKcXjGZVxrutdZ1CR9b17DcyjMprLXuNmh2bUvHCyOmJ1lq+paqQ4lk4gD1SjIoyqa8jGurvotipV21TjZXOL98ZRbT+D77T2npojZRcW4yTi12aa019Uy+X2XnbmcieAE2l1tnb1xvbi02bUJesbm265JriEuQpx6w1FkFgbnslDJuuyHcHs3VYhZrN5ENOM2U6RfI2DfF7ldobmTqek3Nx7z+qzrDbdttuYiM4mPkGKXPgodl4xmePuq9pYzkleayKTW2LSCfZNmxrXp9TMg2ErUMiYvCPnRyC4Bbkrtx6Dyc6+Ss4sLNcIt1SZeCbLxth9TrmNZpSMyIxTY3RyQqstIj0S9x+U+5PorKBKW4tzRvFPgbD5mNmZx8a8PlNOb0lDHzJerV8YrVdsn6ZEVttvzoz2pwzMbMlVqE9zr9PjKH9n4pfu/pr0e2rAW3uzc7TnQXaTaqXl2tZfurs3Fo8Nra2lryfHeyvBrCSRIRPiOIRHLJsKs5CXE0WXQIrMeSZHAtYlPeMTKiNchHg2XiZODkW4mXTPHyKJdFtVi1KL9V6bUoyTUozi3CcWpRk4tNzMZRnFSi1KLW01/z2fxT7p9n3AAAxyoAAAAAAAAAAAAAAAAAAAAAAAA83kmT1+NRPGlK8WS6SiiQm1ET0hRfFRn0PwmEn08R5RGRfyUktw0oMDs7S2gU0RybYyER2UEfTqfVx1fTqTTLZfWddV8kJI+hdVKNKCUoo95TnVjkClxo5rgVR9U+qoX99kp6+Spjif5ZH06kwg/BT5ErxVJJwedvL6wyCaqZPd7xl3ksR0dSYitGfXw2UGZ9C8i76zM3HDIlLUoyLp0wAAA7mmoLS/ker1sZTvd/vr6+qIzCfwnnjLup6/FKC7zq+h+GhRkZADph6uiwy9vu45HjerQ1dD9emd5lg0n0PqyXdN2R1Iz7psoU31LuqcR8RWPHdd1FQTcieSbWenorvvI/1Iyouhl4MZXUlqSZeTr/AH1GZEpCGj8hUIiIi6EXQi8iIvgRfYAKc02s6KvJDlh4ltJLoZ+N1aiJV0/mxm1Gay69fJ911J+R9xJkKgssMRm0sx2WmGkF0Q0y2hptJfYlCCSlJfoIh9QAAAAAAAAAAAAAAAAAAAAHyeYYktqZkMtPtLLotp5tDrai+xSFkpKi/SRj6gAKc3Os6KwJblf4lTJPqZeD1diKV0/nRnFEaC69PJh1pJeZ9xRmKQXuGXtD33JEb1mGnqfr0PvPMEkup9Xi7pOx+hEXeN5CW+p91Li/iJSgZEZGRl1I/IyP4GX2GAIXgJHZFruotyckQCTVT1dVd9lH+pHlH1M/GjJ6EhSjPzdY7iiMzUtDp+QoVc0FpQSPV7KMprvf3p9HVcZ9P4TLxF3VdPipB911HUvEQkzIgB0w93i2dWOPqRGkGufVF0T6qtf32Mnr5qhuK/kEXXqbCz8FXmSfCUo3B4QABL+rtoFzEbm10hEhlZF16H0caX06m0+2f1mnU/NCiLqXRSTUg0qPsREijvrDH5qZkB3umfRL8dfU2JTRH18N5BGXUvM+4sjJxszNSFJMz6yTxvJ6/JYnjRVeFJaJJS4TiiN6Oo/goj6F4rCj6+G8kiI/5KiQ4SkEB6QAAAAAAAAAAAAAAAAAAAAAAAAABa57UrtRtQ9mnps8ivvUc03jm0OfG01p5qb4MzIbBhJsu5RlC46jlUuvqCSttVvaElEq1kkihpDVYPvSa+rXaHc+NR9nfx3yHdmypTFnkEhMij1TrdiYiPfbNzx2OpyBRV5d11yHTwEmmzyzIVsuRaGkZddJEu2l09Taavrk/wAm9w8wN15pvzeeUSMozzNJ6nnD++M0+O0zC3E02I4rWKddbpcWx6IsoVTWtLWokE7NnyJ1rNsLCXvngvwhLnrvvubGcOKx56etxlm2xaborktNVR/6e2L2tqqtqblOrCy8pUrog07ZL/YXxa+LX4V+b7dnwuR/JDcfLLcGXbz3tmM/Nth5jMN+dPlGbUCqr2lLKsxzG6tCjiUOM0cdfqlPSwENxYjBKWZOynpMh6hoD7xYsmdJjwoUd+ZMmPsxYkSKy5IkypMhxLTEeOw0lbr777q0NMstIU444pKEJUpREfQFddVFcKqoQqqqhGFdcIqEK64JKMYxSUYxjFJJJJJIhW2222233bb22/i2/U+AyRuyc9H72jzFax/e3KP3j0txredh2eP48UVVZtHdFcakvodoo89lSsMwae0RdMws4jtldRXEKxSqehy2smg3Lexn9HyiYSeJcque+KR7HMkphZDrHjXfxGpNZiTh9yVW5PuOukIWzZ5Q196kVuu5SF12Or6OZgzOve9RY9l+jyjxb9oHlOzjeAtjKxbhkcnHUowfpKvD2nGcvVSyXuC7+SpPptjJY2FvVly7esa/e/g5/Bf1fX97Xo6S6Q0Pp3jbrmj1JonXeM6v11jqXPZeL4tBKJEKS+SPW7Oxkurfsbu7sFNodtL66mWF1avpKRYz5T/Vw6tAA8dnZO2crLJzssnJynZOTnOcpPcpSlJuUpN92222+7ZKJJJJJJLsklpJfBJegAAFB9AAAAAAAAAAAAAAAAAAAAAAAAAAAAACku79D6d5Ja5vNSb213jO0NdZElv2pi+UwSlxDksEv1SzrpLS2LGku69Ti3au+pZlfdVT6jkV0+K/0cLAv7WP0fvaPDprIN7cXPePdPGtl2ZZ5BjxxVWe0dL1xKW+t29jwGUqzPBoDRn1zCsiNWVLFbWrK6pmHEdyadsKgGxcB4m5Lw9ep4tjsxZyTyMG2TdFy9HJLv5N2tdN1a6u0VNWQTg7F+PXevaWpJezNeq+vptfJ/lp9zTHgM3PtmPR8ombHlvKrgRikeuzJSZuQ7O410ERqNWZa4XiSrLJ9OV0dCGazKHfvsiy13FQiuyJfecw9mDe92iyHCTlRZMGTIhTY78OZDfeiy4kplyPJiyY7imn48hh1KHWH2HULaeZdQlxtxKkLSlSTIuhOD57A5/EWVhWe1HpjkY02lfjWNb6LIp94vT8uyO4WJPpfVGUYwd1M6J9M1/ZkvwyXxT/AL16r9CtfHDkhuPibuDEd56JzGfhOw8OmE/BnxTN2Ba17qkFZ45klWtRRL7GbyOj1S4pZ6HIstg0rImpTMaQzsuOy17UbUPaWabLIqH1HC944TDgRty6edm+NMx6wfSTLWUYuuQopV1r6/kocVUWhpXKqpJrobs02DDMmw1aor/xg5N7h4f7rwvfmjMokYvnmFz0vNn98ep8ipn1tpucRyqsS603dYtkMRBwratdWhRoNqbAkQbWFX2ESL8V+FcbxFi9cFCnk6IP7rk60ppbf3fIaTcqZtvplpypm3OG07IWXMbJlRLvt1t+1H4f1o/NL3dk/R+5rb4gIJ9njz41H2iHHfHt2a1lMVmQR0x6Pa2t35iJF9rLPGo6XJ9FYF3WnJlPPSSrPE8hQy3FvqR5p00RLaJcVNXOwc6ZONfh5F2Lk1TpyKLJV21TWpQnF6afuafrGSbjKLUotxabnoyUoqUXuMkmmven/wA/Ve8AACwfQAAAAAAAAAAAAAAAAOiyK/h47XOTpRkpw+qIkYldHJUgy6pbT8TJBfynXOhk22Rn0NRoQoDh5TlMPGYXiud16c+lRQoZK6KdUXkbrvTzRHbMyNa/io/vaPrH1TGeys5tvMenz3lPyHldVKPyShJde400j4NtNkfRCE+RF5n1UZmf7a2ky5nP2E503X31dfmSGmy69xlpPUyQ02n6qEl5/FSjUtSlK68AAH6RGoySkjUpRkSUkRmZmZ9CIiLzMzPyIi8zMVwwzXqY/g2t+0Sn/quRa1wiNDB+RpdmJPqS3i8jTHP6rR+bxKc+o0B5jEteyrgm59r4sKtM0rba6d2VNT8eqCUX3hhRf7cpJrWX96R3VE6mvcGBDrYzcSBGaixmuvcaaT3U9T+KlH5qWtXxW4s1LWfmpRn5jlgAAAAAAAAAAAAAAAAAAAAAAAAAAAAAAAAAAA4k6BDsozkSfGalRnf5bTqe8nqXwUk/JSFp+KHEGlaD80qI/McsABHnLdeyqcnJ9V4s2tI1Lca6d6VCT8eqySX39hJf7clJLQX99R3Um6qmomgKQZnr1MjxrWgaJL/1nJVa2REh8/M1Ow0l0JDx+Zqjl9V0/NkkufUdAocOfW2c2omMz4DymJDKuqVF5pWk+nfadR8HGnCLotCvIy8y6KIjLgmRpM0qI0qSZkpJkZGRkfQyMj8yMj8jI/MjH4AJT4tlMPJoXit91mcwlJTYZq6qaUfkTrXXzXHcMjNC/ik/va/rF1V6kQ/q7SZTTmLCC6bT7CuvzNDrZ9O+y8nqRLacT9VaT8/gpJpWlKkyjx2/h5FXNzopklwuiJcY1dXIsgi6qbV8DNB/ymnOhE42ZH0JRLQkDvQAAAAAAAAAAAAAAAAAAUx3RuLXnH3VOfbq2xkMXFtd61xqwynKruUZGUavgNkaY0RjvJcnW1nLXHqqWrj96Zb3E2DWQm3ZcthpdThgH+kcdp+fInby+Femcibk6R0VkS3dm3lJPfVC2VuWvQuJNqHltqQxOxrVbypdNFa7q407NV31kZzY9PjM9vYPDXA3eIOTqw4dUKIftsy9LtTjxaUtN9vNsbVdUe+5y6muiE2rGRdGitzfeT7Qj8Zf8F6t/l6tFoftLe0F2P2jXJXINz5amdQYLVJfxrTetXJy5MHX+Ax5KnIkdxCFnDfyrIHCTc5ncsII7K3cREjqbpKmkgwbe4AOmMXFowsanExa404+PXGqquPpGEVpd3tyk+7lKTcpyblJuTbevylKcnKTblJ7bfvf/PuXZei7H9tNOPONsstrdedWhppppCnHHXHFElDbaEkalrWoyShCSNSlGRERmZEM8nsJ+xBgcfKrE+ZfLjFmZu/raLFvtParvYiXo+kK2U2l+vy/J4EhCkObcnMLRJrIL6FFraK424tJZy64nEok+jxdjrCydGKdoNycxxMmlizSteMus7yEs2LWZAd6R92ZLAlNE3IrIctCvoygPJcRNnRl5utpMSLicuwzWh5H488YynK7guKtcYRcq+Syq3pzl3U8OqS9IR/DkTi9zlulPoVisk8PF9LrV37OuL/VTa+P7q934vXWgAA8jJQAAAAAAAAAAAAAAAAAAAAAAAAAAAAAAAAAAAAAAAAAxW+3Y7EGByDqss5l8R8WZhb+qYsq+3DquiiJZj7vrYran7DL8YgR0JQ3tyCwhcmzgsISWyYrbjiEnnLTactypAEpxHL5vCZtWdg2OFkH02VvbqvqbTnTdFfirnr+1CSjODjOMZK3bVC6DhNdn6NeqfuafxX6P0e0aZJ1pxlxxl5tbTzS1tOtOoU24042o0rbcQoiUhaFEaVoURKSojIyIyMh/AzFvSHex1hYwjK+0G4x44mNSypp2vJrWdHCWTFVMnu9JG7MagRWjbj1kyWtP0mwGUtohTpKM3Q0qJKyyXX4dI6V4PmsTnuPqz8R6UvYvpk07Me+KTnTPWt62nCaSVkHGaS3pQF1UqZuEvqmvSS9zX9zXue0XCOzS7QXY/Zy8lcf3PiSZ1/gtqljGtya1bnLjQdgYDIkpclx20LWUNjKsfcNVzhly+gzrbdtcSQpyktruDO2jWl9xa85BapwHdWp8hi5TrvZWNV+U4rdxTIik189szVGlsd5TkG2rJaJFVdVcjuzKi4hTqya21LiPtI07oygPRx+0/Pjtt5HCvc2RNxtI71yJDusry7nvpha13LYIREhVDK3FLYg41tR5MSmlNd1EaDmqKGyI4Ue4yae5p3j/wALrksSXMYVf+n4de8iEF7WXiQW32X4rsdbnB/inUpV+040xWVhZHlyVU37E37P9WT9Pon6P5vfxM/AAAeDkyAAAAAAAAAAAAAAB02RZDR4lRW+T5NbV1Dj1BXS7a6ubaZHr6ysrYLK35c2dOluMxYsaOyhTjr77rbTaSNS1pIuoshZx20fZvT87dxyfy0wE5zUg4ENVdXZtdYrHQlzuEos4p8WnYQtDqvvj09F+cRfkpL/AICGzTj4ekX9qbO37tudwn0dlavoO0zcuR9tXePWUlEPae2oKktz8fmOMLbZscS1dLbdqmYhkuFZZum6snSnx6TGJ7WLoPV/D32cV5/H1ZvLZOVjWZMFbRjY6qhOqqXeud8rq7dysjqaqjGDhFxU5dblCEZfnuE3CqMZKL05S2037+nTXZem++/cteu17w/M8R2HjFLmuBZRj2a4dkcJFjj+VYpcV+QY9dwFrW2mZVXFVIlV8+ObjbjRuxpDiEutuNKMnELSXpiIzMiIjMzPoRF5mZn8CIvmZjBZ9H+5j51qTljQ8ZrG6nT9P8gSvIBY9Lfdfr8X2NUY/Y39DlFKwtw018i7bpnsVum4iEt2iLKqlz0Oro4LjGwK13hqXCZyG0b6pI+/VxXE+SjL4TnUmXQ0kf8ArVJ+RmXj9OhMqPSPEvAW+HeTlgztV9U6o5GNf09DsonKcF1w21GyE65wkk2n0qa0pKKzMe9X19aXS03GS3vTWn2fvTTT9PivcdvgmDprkM3Nu0SrFZE5DirLqUFKi6pddSfkcxRH1SR/62I//V+vhVUABr5fAAAAAAAAAAAAAAAAAAAAAAAAAAAAAAAAAAAAAAAAAAAAKV53g6bFD1zUNEmxQRuTIqC6FOSkuqnWkl5FMSRdVEX+uSI/9v6eLQQyMjMjIyMj6GR+RkZfEjL5GQmeKKbEw1LZPZDVt9EmfftIrafJJn8ZzSSLoSTP/XSS8iM/H6dDeUQFGh6LGchk43ZtzWu85HX0amxSV0TIjmfmXTr3SeaM++ws/wCSvqkz8NbiVedAATGhTI9hEjzYjhOxpLSXWnE/NKi+Bl/NWk+qFoP6yFpUhREojIcoUB1vlHs6Z7EmukUGc51iuOKPuxpqvImy6+SWpZ9EGXwS+Tai6E46o6/AAAAAAAAAAAAAADjTJkSuiSrCwlRoMCDGfmTZsx9qNEhxIzSn5MqVJfUhmPGjsoW8++8tDTTSFOOKShJmT19AWZ+3H7RQuAvEK0awW9RXcid7lba90ymLIJu3xln1Jss12nGQbbhJLAqywhN1LyvJGZX+KqWxJhN2CW9Zq++9JeekyXnZEiQ64/IkPuLdefedWbjrzzrhqcdddWpS3HFqUta1GpRmZmYucdrvzrn8/OamxNpVtjJe1Lhzzms9HVq1uojMa6xidMRHyAoinXG2bDOrZ6yzCerulIaatYNS8txmoiki2EOkvBnArguHqjbDpzs1Qyc1te1CUo7qx2/hjwl0tba82V0k9SIDKu861tPcIbjD4a98v9Zre/XXSn6AXs+xC7MKZ2hfI4r/AGDXSWuMmjZlPke2JjjMpmPnVs6+cnHdR1c5omyORkZxXZ2VvRn0P1GHxZhE/CtbvHnH7S+mtRZ7vza2vtLavpXch2Bs7K6bDcUqWzNCJFtdS24rL02QSFog1cFC3LC3s3yKLV1UWZYy1txYry07WLgbw317wO4wa345a9Q3JRjFf7UzbJzb7kzOtkXTTEjM8ymmpKXSKzsmyjU8R43FU2NQKOhbdcj1TKjw/HXiR8Hx6xcWfTyXIRnCmUWurGx17NuT8VN78uhvX7Rysi35MouvDx/On1SW64d3/Wl7o/T3v5dveS1rKytpa2vpqavg1NRUwYlZVVVZEYgVtZWwGG4sGvr4MVtqLCgworTUaJEjNNsR2G22WW0NoSkucADnltttt7b7tv1b+LJwAAAAAAAAAAAAAAAAAAAAAAAAAAAAAAAAAAAAAAAAAAAAAAADg2dZW3VbYU1zXwbaotoMustaqziMT62zrZ7DkWdX2EGU27FmwZsV12NLiSWnGJDDjjLza21qSetQ7b3swpnZ6cjjv9fV0l3jJvKZcZHqeY2zKej4LbNPlJyLUdpOdJwikY4cpqdij0l9b9vh8qGRvzbWkyFxjZeiHnPLhvr3njxg2Rxy2EhuMjJ6/wBqYTk5N9+ZguyKVp+RhmZQjSlTplWWThxriIybarnGp95QuOtx7V5RbT4S8RWeHuThbKUpYGS4051S2/2e/ZvjH0duO25x7blB2VJrzOpY2VQr62l+OO3B/P3xfylrXyen7tGpSH1YfejPMyYzzseRHdbfjyGHFtPMPNLJxp5l1s0uNOtLSlbbiFJWhaSUkyMiMVG3LqLPdB7W2DpbaFK7j2wNY5Xc4bldS4ZrRHtqWW5FeehyDQhE6rnIQ3YVFmwRxbSqlQ7GItyLKZWqmg6VhOFsIWVyjOuyEZwnFqUZwmlKMotdnGUWmmuzT2QDTTaa012afqn8GbM/sOO0ULn1xCq2s6vUWPInRBVOvdzJlSCct8mZ9ScLCtpyUE22Siz2sr5rds8nyXmVBlSkMRoTlely9CNWZ2RHOufwD5qa72lZWMlnUuYvN6z3jWoW6uM/rrJ50NEjIDiJdbbesMFtma3MICu6ch1qqnVLK22beUS9pVDmRLGJFsK+VGnQJ0ZiZCmw32pMSZEktJfjSoslhS2ZEaQytDzD7K1tOtLS42pSFEZ86eOOAXCcxOdEOnA5DrycVJajVLa+8Y69ElVZJShFdo021R7tNk7h3ebUk37cNRlv1a/oy/Ndn79p/I5IAA0wywAAAAAAACy924/aKFwF4hWjWC3qK7kTvcrbXumUxZBN2+Ms+pNlmu04yDbcJJYFWWEJupeV5IzK/wAVUtiTCbsEt3mJkyJXRJVhYSo0GBBjPzJs2Y+1GiQ4kZpT8mVKkvqQzHjR2ULeffeWhpppCnHFJQkzLVq9rvzrn8/OamxNpVtjJe1Lhzzms9HVq1uojMa6xidMRHyAoinXG2bDOrZ6yzCerulIaatYNS8txmoikjc/A/Arm+YjK+HVg8eo5OUmtwtl1fsMaXuatnFymmtSqqtj2bRiZl3k1ai9TnuMdeqX9KX5J6T9U2mWx333pLz0mS87IkSHXH5Eh9xbrz7zqzcdeedcNTjrrq1KW44tSlrWo1KMzMzHyAVL01qLPd+bW19pbV9K7kOwNnZXTYbilS2ZoRItrqW3FZemyCQtEGrgoW5YW9m+RRauqizLGWtuLFeWnouc4VQnZZKMK64ynOcmowhCCcpSlJ6UYxim23pJJt9iCSbaS7tvSXxbL53o4nCrLeQ3N2o3/OrZMfTvF9ifkeQ3T7TzUK9z7JKC3ocMwqtk+EpuTYNe0JeXWyWXCKvq6OO3Mcju3lSiZsVUpShKUISlCEJJKEJIkpSlJdEpSkiIkpSREREREREXQi6CH3A3hvr3gdxg1vxy16huSjGK/wBqZtk5t9yZnWyLppiRmeZTTUlLpFZ2TZRqeI8biqbGoFHQtuuR6plRzDHM3iznf84OXty4JxxaYrFw4tak8euc5Kya907pzna1rcIyjW2+jqewY1PkVKL/ABN9U/7TSWl8kkl8+794AAGtGQAAAAAAAAAAAAAAAAAAAAAAAAAAAAAAAAAAAAAAAAAAAAB/KkpWlSFpStC0mlaFESkqSojJSVJMjJSVEZkZGRkZGZGXQf0AAjPnOLnjtl4sZJ+y56luRDIjMo6yPq5DWo+vm317zJmfVbJl5qW24ZeHEuL6mjX1XJrZJdCdT3mXf5zElBGbLyfn9RXksi/ltqW2fksxFGbDkV8uRBlINuRFeWy6j5EtBmRmk+hd5Ci6KQovJaDSovIyAHGIzIyMjMjIyMjI+hkZeZGRl5kZH5kZfASbwbI/eCnR47hKsYPcjzSM/rueR+DKMuheUhCT75l5eMh0iIk93rGMepw++Vj93HlLUZQ3zKLOT1Pocd1SfvvTqRGqOskvJP49ErQXQlmAJTgPwjJREpJkpKiI0qIyMjIy6kZGXkZGXmRl5GQ/QAAAAAAAABYJ9Io5sPcVuC9nrHErZddtTldMtNUUK4r6mLCs11HhR5W3cgYU2604TaqGwrMHUtszdYfzyNLbLrFUpN/Ya0j0gLl05yn7RHZNHS2ZTtccb2/oGwpDDyHIb9ti8yQ/su5QlnvMLkTdhSryoRNbde9do8doFm4lLaGWdx8DcOuW57HdserGwF9+yE17MnVKKoqfufXfKEpRf4qoWoxMy3yqZJP2rPYj9H+J/lHaT9zaLIwAKzcdtG5nyX3pqjQOvmCey/bWc0GE07i21Oxq47ic2zOvLBKVtqKqx6tKZe27hLR4NZXS3u8Xc6joyyyFNdltslCuqErLJyeowhCLlOUn7lGKbb+CINJtpJbbaSXxb7JGW96LjwFQzCzTtCNiU3V+Wu81Vx4RNZP73EYUqu2lsOAo1mhRypJOa3qJSCQ6yUHYEN5Cm5UdwZlgpLobS+EcdNMaw0VriAVdhGqMJoMIx5lSUesvw6KAzEXZ2LiCL1m3uZSJFvczl9Xp9tOmzX1LekOLVVocueIOXs5zlsvkJuSrsn0Y1cv+ixa240V69E+n27NdnbOyX9I2KipU1RgvVLcn8ZP1f+C+SSAAAhS6AAAAAAAAAAAAAAAAAAAAAAAAAAAAAAAAAAAAAAAAAAAAAAAAAAAGGn6UdwFQ9CwvtCNd03R+Iuj1VyHRCZP75EfUmu1bsOeolkhJxZJt63t5SyW68U7X8NlCW4shwYXY3C2+dL4RyL0xs/RWx4BWOEbXwm/wjIWUpR6yxDvYD0RFnXOLI/VremlLj29NOR0egW0GFNYUh6O2tOpP5E6NzPjRvTa+gdgsEzl+pc5v8JuHENqajWJ085xmDeQEqW4o6rIa04d7UOGtfjVljEe7x9/qPd/s35t53G2cVfPqyOM06Op7lPBseoJb7v7vZur4RrnRBLsQ2fT0WKyK1Gze/lNev+0u/wBU2UZGx69HX5sPcqeC9brHLbZdjtTijMq9UXy5T6n7Cz11IhSJWosgfU4664baaGvs8HStwydffwOTLcLrKSpWuFF7n0f3l05xZ7RHW1HdWhQdcckG/oGzVD7yG4TFtlEuO/rS5Wl7owiRC2FFo6hc1xxn1KjyK+WThoccZemvG/ELl+AylCHVlYKedjNL2m6Yt3VrXd+bR5kYxX4rFW9NxRZxLfKui3+GfsS+SbWn+T0/ps2W4AA5uJ8AAAAAAALBPpFHNh7itwXs9Y4lbLrtqcrplpqihXFfUxYVmuo8KPK27kDCm3WnCbVQ2FZg6ltmbrD+eRpbZdYqlJ1wovc+kBcunOU/aI7Jo6WzKdrjje39A2FIYeQ5DftsXmSH9l3KEs95hcibsKVeVCJrbr3rtHjtAs3EpbQyzZGHSPgjh1xHA4qnHpyc5LOyW17Sd0U6anvuvKo8uMov8Nrta11MgMu3zbpNP2YexH6L1f5y20/hr4AZonouPAVDMLNO0I2JTdX5a7zVXHhE1k/vcRhSq7aWw4CjWaFHKkk5reolIJDrJQdgQ3kKblR3BiQ8dtG5nyX3pqjQOvmCey/bWc0GE07i21Oxq47ic2zOvLBKVtqKqx6tKZe27hLR4NZXS3u8Xc6jbYaG0vhHHTTGsNFa4gFXYRqjCaDCMeZUlHrL8OigMxF2di4gi9Zt7mUiRb3M5fV6fbTps19S3pDi1Qv2kc28Hja+Kon05HJ9TvcXpwwq2utP3r7xZqte6VcL4v1L2BT12O2S3Gv8Pzm/T/ZXf6tMq0AAPCCZAAAAAAAAAAAAAAAAAAAAAAAAAAAAAAAAAAAAAAAAAAAAAAAAAAAAKNbToCNDGQx0eaTbiWPdL4pM+7FkK8/5qukZZ9DM+/HIvJJiso4k+ExYwpUCSnvMS2HGHC+ZJcSae8k/ktBmS0KLzStKVF5kAIdAObZQHqyfLr5BdHob7jCz6dCV3FGSXEl1P6jiO64jzPqlRGOEAJJa6uztqJEZ5fel1KkxHDM+qlx+6ZxHD6mZ/wB7SpjqfmamFKP4j3wjPr24OqyOM2tfdjWZeoPEZ/VJbpkcVf2dSkEhvvGZd1Drh9fkcmAAAAAAAAARR50cjYnEjiByH5FyHGUTNX6xyC4xluQhpyNMzuxaRj+u6ySh4/DOPbZ3b47WP95LvRqWtRMPqImXNSVZWU+4sZ9vazJFjaWs2VZWVhMdW/LnT5z7kqZMlPuGpx6RJkOuPPurM1uOrUtRmZmYzwfSrOQi8K4q6N451c1LNlvPaU7L8hYae6uv4Tp+tivqhS2Eq6ojTszzLErGK68nuvP42+ljvqYfNrAxHvH2Zccsbhb8+UdWcjkyUZa9cfE6qYLfr/PvJ37vTt2IbkJ9VsYL0rj3/tT03/u9IGWb6KzxJRme7tycyckrydqNMUKdV62ffbM217D2FBVIy62guk2ZJm4zgDaaWShTySVD2SSvCdNJLYxMhtG+xU4zo4s9m7xyw6bA9Qy7P8YLd2ektJNynMm2wlnJ4kae2RETc6gxB/FcTkNn1UhWPklalLJRnm/aHyjwOAnj1y6buTtjiLT1JUJOzJkvjGUIqiXyvKMGvrvUn6Vpz/P0iv1e19C6qAAOeicAAAAAAAAAAAAAAAAAAAAAAAAAAAAAAAAAAAAAAAAAAAAAAAAAAAAAAAAwXPSpuJKMM3dpvmTjdeTVRuehVqvZL7DZk2jYevYKZGI20502yJU3JsAcVSxkJeUSYetjV4TRqNb+dGLVPbWcZ0cpezd5G4fDgev5dgGMHu7AiQknJTeTamS9k8uNAbURk5Ov8QZyrE46C6KWeQGlCkrNJlsvhHk3xPiDj8hy6abbViZO3qPkZTVcpS/q1Tdd/wBakY+VX5tE4pbkl1R+O499L5tbj+Zq5Rza2yn09jAt6qZIrrSqmxbKtsIbq2JcGfBfblQ5kV9s0uMyI0hpt5h1Bktt1CVpMjIjHCAdNtJpprafZp+jXwZr5twuDHI2Jy34gceORcdxlczaGscfuMmRHQ03Gh53XNLx/YdZHQyfhJj1Od1GRVjHdS31aiINTLCjNluVwxXfRU+Qa814q7y46Wk5L9lozaUHL8fYde6OsYVuCslPohRGFK6rjQszw3LrGU6ynutP5Iyl8kKfYN3KiHLHiDjv5K5rksBLUKMmfkr4Y9qV2P8An5Fle/ns2OizzKa5++UVv+0u0v4pgAAQxdAijzo5GxOJHEDkPyLkOMomav1jkFxjLchDTkaZndi0jH9d1klDx+Gce2zu3x2sf7yXejUtaiYfURMuSuGK76VZyEXhXFXRvHOrmpZst57SnZfkLDT3V1/CdP1sV9UKWwlXVEadmeZYlYxXXk915/G30sd9TD5tTHh/j/5V5rjcBrqhflV+cvjj1buyP/Brs/MtXz8uqyfvjF6/tPtH/eaMD6ysp9xYz7e1mSLG0tZsqysrCY6t+XOnzn3JUyZKfcNTj0iTIdcefdWZrcdWpajMzMxwgAdUJJLSWkuyS9Evga4ZZvorPElGZ7u3JzJySvJ2o0xQp1XrZ99szbXsPYUFUjLraC6TZkmbjOANppZKFPJJUPZJK8J00ktjOjFqrsVOM6OLPZu8csOmwPUMuz/GC3dnpLSTcpzJtsJZyeJGntkRE3OoMQfxXE5DZ9VIVj5JWpSyUZ3VRzJ4u5R8tz/IZCl1U1WvExu+4qjFbrjKP9W2asv+trNgxa/LohH3tdcvjuXfT+i0vyAAA1oyAAAAAAAAAAAAAAAAAAAAAAAAAAAAAAAAAAAAAAAAAAAAAAAAAAAAAAAChW1qjwZsK6aT0RMb9UkmX/ZEdPeZWry81Ox+qC8z6JjF5F86SCU2a1ntXG7JhKe88w167H6eavFidXTJJfNTjROskX+6faIsgD+kLU2tK0KNK0KStCkn0UlSTI0qIy+BkZEZH8jIS5orJNvT11kXTrKitrcIuhEl9JeHIQXT5IfQ4gvh5J+BfAREFfNU2Jv1M6tWrqqBKJ1sjPzJiYk1ERF9hPsvKMy+BuF1+JdQKqAAAAAAANdx6TnuxeyO0eLWkaUS6rj9pvAcJciNueIy3kuYNTdpXE5Rd5RIlyKfM8Wr5CU90ibp4yVIJ1LilY6wmz2km01bq598wtkpknLg33IXZ8Wikmvvm7i2N5RPxXElGrzIumM0lSkkJNSGyLw0KUhKVHCYdU8BiLB4TisTWpU4OMrF6ftZ1xsuevnbOb+Pfv3Nbul122S+M5NfTfb+GiS3DXRr3Jblfx20IhtxyLtXcGCYjdLb7/fiYvYZBCPLbH73987tXjDdvYrNHRRIiqMjSfmW3TixY0KNHhQo7ESHEYaixIkVpuPGixo7aWmI8dhpKGmWGWkIbaabQltttKUISlKSItdL6M3qBOyO0zpc1kxUPwtE6c2bslLryCWw3a3MWt1RWtkSiNBy/D2POnRCMu+g652S0aXIyVJ2MI8i+0/Nd3L4eEnuGFh+Y1v0uy7HKfb51U0P8yU46Gqpz9856/KK7fxcgAAPMyQAAAAAAAAAAAAAAAAAAAAAAAAAAAAAAAAAAAAAAAAAAAAAAAAAAAAAAAA+EqLGmxpEKbHYlw5bDsWXElNNyI0qNIbU0/HkMOpW08w80tbbrTiFNuNqUhaVJUZH9wD09AaiXmVo57jTyv5E6EW243F1VuDPMQpVud/vy8Xrsgm+6Vj98++d20xhypskd/qruSk94zPqZxpGQf6TJqBOt+0zus1jRUMQt7ac1lslTrKEoYctKaLZaoskGSCJBSzb1xBnSy6EtarBuS6anJKlqx8B1ZwmY+Q4jjc1vc8jCx7LH/8AG8uKuX5Wqa/Lvp9jW7oeXbZD3RnJL6b7fw0ZFPoxe61637R49aSZRIq+QOm8+wluI44aGV5Jh7ULaVPOSXeSlcuNT4ZlNfHSrvEbdxJSlBuqbUnYjjU0dm3tRWleffD3ZKpJw4NDyF1hEvZKV9w2sWyXJ4GK5aoj6kR9cZu7ZJoUaUOEZtrUlClKLbLjxz7T8RU81i5cVpZmDFSfxtxrJ1yf/dSpXf4fpKcdLdUo/uz3+UktfxTAAA82JADXcek57sXsjtHi1pGlEuq4/abwHCXIjbniMt5LmDU3aVxOUXeUSJcinzPFq+QlPdIm6eMlSCdS4pWxHGpo7STaat1c++YWyUyTlwb7kLs+LRSTX3zdxbG8on4riSjV5kXTGaSpSSEmpDZF4aFKQlKj9J+zHEV3N5WXJbjh4M1F/C3IshXF7/7KN6+Pf4bI/kZaqjH96e/yinv+LRCYSW4a6Ne5Lcr+O2hENuORdq7gwTEbpbff78TF7DIIR5bY/e/vndq8Ybt7FZo6KJEVRkaT8yjSMg/0ZvUCdkdpnS5rJiofhaJ05s3ZKXXkEthu1uYtbqitbIlEaDl+HsedOiEZd9B1zslo0uRkqT7Hzea+O4fks1Ppnj4WRZU96/beXKNK387XBfmRdMPMtrh7pTin9N9/4bNi1FixoUaPChR2IkOIw1FiRIrTceNFjR20tMR47DSUNMsMtIQ2002hLbbaUoQlKUkRfcAHKZsgAAAAAAAAAAAAAAAAAAAAAAAAAAAAAAAAAAAAAAAAAAAAAAAAAAAAAAAAAAH4ZEZGRkRkZGRkZdSMj8jIyPyMjLyMj+IiJdwDrLeyr+nRMWY+031+bJOGbKvPz+s0aFf1iXgjls6H6tky3yLomfCiyTMvga2yXEV/X0jIM/t7xH8TAFPBUfV871bIzimf1LGE+yRdfI3WCTKQr9JNsvJL/HMU4HeYzLOFkNNJ69CRYxUrP7GnnUsvf96cX+kAS0AAAAeQ2FlsXAMBzjO5qUKhYViGS5bLS4ZpQqLjlLNuJCVqIyNKDahLJRkZGRdTIx68Q07RfJTw/gDzZyNtw2pFZxS3+uC4R9002UjVuUQ6w+98S62EiMXUvPz8vPoL+LV5+Tj0f9dfTV/3lkYf4nyT1GT+Cb/RbNTPZWEy3sZ9rYvrk2FnNlWE6S4fVyRMmvuSZL6z+a3XnVuKP5qUY4QAOuUklpLSXZJeiXwNYMy70SXXTS53NfbUlj79Gi6X11Sye78Gpz2wMlydjvn8Oq6/EXO6k/Pp1X8EDNCGL/6KZibdbwV3hmC2yRLynlNkNUS+nm7WYtqzVa4ijV8yTYX9wgk+ZJNKj69VGRZQA5q8b3O/xRy0m9qFtNMfkqMamppf60ZN/Ntk/iLpx6l8U3/tSbAAA1QyQAAAAAAAAAAAAAAAAAAAAAAAAAACyHvHtcq6duviZrDiZiuR7FwPafLfVOjtz8gcg1tmlPp+jr80lXLT2vsAyfI4mLsZfsq4jU9naItMdRf47jVTQzPX1yp9nDai3vBm5fH5eFDHnlVOl5MJzrrn2tjGufQ/NrftVNvvGM0pODjPXTKLdEbIzcul76Wk2vTut9n6NfNbW+3qmAABhFYAAAAAAAAAAAAAAAAAAAAAAAAAGF76W1rppE7hTtqMx9+kxN0a6upPc/2qC9r/ACXGGO+Xx6LsMuc7ivh16o69V9MNEZ+HpWeJt2XBXR+YIbJcvFuU2PVRr6ebVZlOrNqLlqJXyJVhQU6DT5Eo1JPr1SRHgHjov7Pr3d4Xwot7ePdl0b+X3my2K/KNqS+SSILOWsmb/eUH/upf4HNrbCZUWMC1rn1xrCsmxbCDJbPo5HmQn25MZ9B/JbTzSHEn8lJIbjTXuWxc/wABwfO4SUJhZriGNZbES2ZqQmLkdLCuI6UKMzNSCamoJJmZmZdDMxpvhtpezoyU8w4A8JsjccN2RZ8UtALnOGfeNVlH1bi8OzPvfE+lhHkl1Pz8vPz6jWvtVpTx+Gv13ruzKd/K2GPPT+nkvXw29erL/Gv2rY/GMX+ja/8AUTLAAHjJLHkNhZbFwDAc4zualCoWFYhkuWy0uGaUKi45SzbiQlaiMjSg2oSyUZGRkXUyMacuysJlvYz7WxfXJsLObKsJ0lw+rkiZNfckyX1n81uvOrcUfzUoxtmO0XyU8P4A82cjbcNqRWcUt/rguEfdNNlI1blEOsPvfEuthIjF1Lz8/Lz6DUtD2f7KqUsbmb/fZfh07+VVd8/4+d3+iIrkn7VS+Cm/1cV/gBmXeiS66aXO5r7aksffo0XS+uqWT3fg1Oe2BkuTsd8/h1XX4i53Un59Oq/ggYaIz8PRTMTbreCu8MwW2SJeU8pshqiX083azFtWarXEUavmSbC/uEEnzJJpUfXqoyLZPtBudPhfNinp324lP5fea7ZL841NP5Nox8FbyIv91Sf+61/iZQAAA50J0AAAAAAAAAAAAAAAAAAAAInc1uSc7itoS42RjeJN7B2Pe5XgGqNPa/fsCqoua7e23mNPgOv6OwszIzgU6by7ZtL6S2ZSG6KtsvU+s046FXaKbMm6rHpj1W3WQqri2opznJRjuUmoxjt7lKTUYrcpNJNnxtRTk3pJNt+vZfJd39F3fuJYgLM+2ZPa08Z9UZVyeyLfnGTkRF1jjM/Y+0uL+P8AHfItYVsvCsahrvM8qdT7l+lLKcqlZNU4/EtZGKSMvwt6PczIsZifVk4+UV2qvIHm1sHI4fDHW3CqBhNxtvnjjVhszXuc7ViW87X+qtE45g+O57l20spx7HZ0G0yK5RWZfjFHh2JNXNTFt8muCOdapg1kqPKkFxN03U8fIxMqqyV8JZFU7Y00PGpeRf5/3imiyEa8dSu641yhbCE1TKycJRVvzUt9UZxa17LSbl1Ppj09LknuTS02mn+JJdy6GAs3bG2tz34Fzta7R5I7u03yw40ZZtLX+rNuWGN6If4/bJ0ovamT12E4nsKiVXbLz3G8zwypy25qYOVVVrGgZD6lYxXqh111uUpN5EYuVhyxo1WxupyaL/MVWRju3y5TqcfNrcb6qLoWV9dblGyqG42QnHqhJSdUZqTa04yjrcZa2k/R+y5Jp6fo36NPugAs/UG3ucnN7Ze+18XNvai4rcc9C7hy3QVJnuXaUl782ZurY+s3mazZt3Go7HYGvsUxDW9NkzruM45IjvXV3fv1NraOSIkZ+LGi1n4j8jd9zt47w4a8sY2vrTeumcRwba2IbP1bWWmL4Tu/S2wp19R1OVJwy7tr+xwrLMaynGrHGsyqU3NjTOT3osmheXB76lZFvF3VVWzd2NO7HqrvycSE7Hk49VjripWdVUaJSjK6pW1U3220uTVtcPLt6PitTaWpJSfTGbS6ZPTfbv1d9PTcUpe5va3caAW58O5Tb0x/SPIzce5tbOso0vohvbjdGrWmfacW1sSqxbYeR7E0TEl7As7xOxYWBqxfEoUTeWHNNYBmR5g49QsPpp5iW69a/wAl39ju16LWm5bHX2dQs01fl2f1eYay1xluv6nEL/X+Sa7oMgw29TkWwtjsW7OSNbNrbTB5pTqC1VExHLkz62wJLUiDZswbanYpTqbg5JKM2/N8uqF1vlvp6f2VVkJS63De+mvrknE+qaemk++vd6bbS3397Wlrfxel3JPAADCKwAAAAAAAAAAAAAAAAAACi+3I3nSSyL4lNjLP9Hq7rRf53jFaBS/a7XeoYL3TzatWk9fsS7Fl9f8A6yEACP4/pClIWlaT6KQpKkmXxJSTIyP+oyIx/IACZUd0n2GH0/yXmW3S6fDo4hKy6f1KH2HTY6742P0jp+Zrqa81fP63qrRK8/8AGIx3IAC2v2xE5dd2YPNmQhRpU5ovJYJmR9D7lo9BrHE/oU3LUky+ZGZC5QLZvbKRly+y75rtIIzNOlbeSZF+BDtKmY4f6CQwoz/MQkeH1/K/F79P5Rwd/T7zVst2/wA1b/2c/wDys1YIAA6vNbNip6MVXoh9mRHkoSRKtuQG2bBwy/nLbi4jVEo/tMm61tPn8kkXwGQ4Me70ZOSh/swqhpJkaoW9duRnCL4pWt3HphEf5/DloP8AQZDIRHL3ilt+I+a36/yjkr8lY0v4aNix/wCYp/7OP9wAAEAXgAAAAAAAAAAAAAAAAAAAAAAAAALTnar/APTDsyP/AH2Pil/xZ3ELsYtOdqv/ANMOzI/99j4pf8WdxC7GJXM/92cR9M//AOZRah/OXfWH/kQAAEUXQAAAAAAAAAAAAAAAAAAAAAAAAAMeP0nWvRM7MiRIWkjVU8gNTWDZmX8lbkXLqs1F9hm3ZOJ6/Yoy+Y11Y2L/AKTZKQx2YVu0oyJU3euo4rZH81odyGYZF9p+HEcP9BGfyGugHv32ab/zcnv0XJZWvp5WM/79kJyH8/8A6kf8f+f+dAbUjsd5y7HsweE0hajUpvReNQSMz6n3Kt6dWNp/QluIlJF8iIiGq3G0+7GuMuJ2XfChpZGRq0rUSSI/wJlpbTGz/QaH0mX5jGF9qWv5I474/wAo/wAPu1+/8Cvjv52f/Zv/AM0S5kAAPDiYLa/bETl13Zg82ZCFGlTmi8lgmZH0PuWj0GscT+hTctSTL5kZkNVuNp92ykZcvsu+a7SCMzTpW3kmRfgQ7SpmOH+gkMKM/wAxDVgj3H7LdfyRyPx/lH+H3ajX+JD8j/Ow/wCz/wDVIDYqejFV6IfZkR5KEkSrbkBtmwcMv5y24uI1RKP7TJutbT5/JJF8BrqxsX/Rk5KH+zCqGkmRqhb125GcIvila3cemER/n8OWg/0GQzvtLb/zcjr0fI4qf08vIf8AekU8f/Pv/s5f3xMhEAAeAE0AAAAAAAAAAAAAAAAAAAUR3loDAuQcDWlbn6rxMXVG7dV7+xcqKxarVrzzT2SM5ViCLVTsOYU2iO1YaVa1qCjOzY6fCRMjmZrFbhR7kDvPAONGlNmb72jYuVmB6sxOzyzIHo6EvTpTUJCUQaapjrW0mXeZBaPQaKigm6369cWMGITiDeJRXsfz/PpWN1/eJWRhSq9+Y7JtQhGGu7lJyUUl6t6PkunpfVrpS29+ml32/prZEztPd/M6g4t5nrzFoK8t39ygqrzjnxx1jWk3Iv8AN9m7Op5WLMTmoSnGybxjBINu9mWaXcxyLU1NLWG1NnR5FjXtyIgbK1gjgBnvZb7mzArW54+8UeNOc8P977LqKm0uo+s2chwHVdfhe3MpraqFLsYOvZmT60nVGXZMcNuuxFN/UWFsuNXG6tmSHC3jRsTLM6d5+8yIqJfKXZeNqhaz1k44czFeHWl70vXazUeFsvIS27sS0r32X9x5/wCAxYXd69Ox+tKJQxpJW/jOX2L0XIntFOGHFja0BrLNC1mm9/cl8u1XbIKXhOzM8we81vhWuWtg0Txrg5VRYU7ld5kVdj1qw/Tybt2LIs4c9uMyw3smHOjHtjx0LFdTRRyeRyuRU1JXuXHXU3U4T30yWPR5leLfL9nblWzump4qgnjzTkvMa0261VF9tftIyUp/2mk5Ls1BKPaTZSbntyV0Fz21JjnCniJtTDeR20937c0HY3p6XvoGf0eotVa33br/AGhn21NoZPjj07H8Jx+mqcPKohRruzh3l9kV3U0tBV2VhINhF88WUO1e0pp7jzxcm8x9J6ywbUu+uLGd6ZzfX2fa0xSlwa9fpZ24cEw/M9e5BLxaJTvZFgWZYbkd5S3GJXLsuikrfjSnIfixkKF68R+f5D43jnhq6OJ955GLjkOEr/vir495EuutRrlS8eWEq0oRlGcblJNdMnXX1eZZ166umvvH8PR7fStPvvq697fo1osg8QuQ2lOBNxyU4ucvNj4nx3yn+6o5A7r1Rkm3bmLg+Dbm0zufOJOw8ZyzAc5yJdfi2QWlG7fysUzXGYVs9fY1fVfhT4aWZ0Rxyo/FW+reU3aI765t6sbsbXjlR8W9YcTdb7Rer5tdjG6csotq7A2jsLJNbO2DEWTkmF4dLvarDl5hGjHj9zkDdtGx2xtWayc8x5Ts29Nao5HY/v7l3vLXuHbe3RtjlHyOxVOVbMxqmzabhOrdVbWyTWmvdV4MWRxLNvFcKx+hxhmQqqpkxStbWfMsbl2wlGw4z6DQuI4xxm7V/cPHHTFNCwPSG6OFWL8p7DVeOR01WBYvuPHN4WepshyXC8WhqZo8R998ZsqN3J4WP10CLb29E1azEOSjJYlMv7u7eahWrlyiwunMnNweHOyu3GfIrHgkra25Ql5UrJ2RlDzF5dcp1eVaj1dNLevLc10r0mk9+X1N9mu62kov07vTTmrzuYek8I+X7Edl2Q+vjHvbw2WG1vPOqTrHJ19xpptKnHXVEkyQ02lTjiuiEJUtRJOqsja0BO4sF1PXQGrdGaan2NtZeUQbVh6JTwMJynUuNUkB+EzHe9Yazgtl2thSWvr8Zg2sGuGY0ey8V56tqq602824y82h1l1C2nWnUJcbdbcSaVtuIURpWhaTNK0KI0qSZkZGRmQpnrnSenNP+1von1VrrWh3xQk3R4HhmPYmdq3Wes+zI886OvgnJi1ZTZhVkR01Rq4pkooTTBSHiXrcLavu/lWRnKVc751pa6ZSvrqr3OXUpQ8l1RsilGatfsS6I7byWn1bTWnpP46i2+3x3vT9Neq2/Sp4AAxSoAAAAAAAAAAAAAAAAAAAp5s9JKxdR/gT4ii/Sfio/wB5RioYp7s4+mLOF9s6GRf/ABln/vEYAjiAAAJWYeo1YvRmfyr2U/1I6pL+wk9B6QeZw0umL0hf+wWz/tUo/wDnHpgAEFe09x5eUdnNzkqG0eI6XFbeVqw2RdVOP49ry+yBhtBfNxx6rQhsvms0+ZfETqFKd74SvZej9y64aa8dzYGqdh4S2z073jLyvEbiiQ13T8j8RU8kdD+PXoMnCtVGZiXvsqcmi1v4Ku2E3/cUzW4yXxi1+qaNPKA/TI0maVEZKIzIyMjIyMj6GRkfmRkfkZH5kY/B1uaybBP0VzI2rXs89m0RuEcrFuVuexjZ69VIg2us9P20V7p18kPS5Fk2kvLquO4fz6jJdGHt6JNnrcrAuaesHZBJdo8v07nsKKpXRTreVU2dY9aSGU/Mo6sNqG5Ci6d05UUj694umYSOZ/GlLo8UcxBrXVkQuXzV9FV6f5+Z+psGI949T/qtf7MnH/AAADVzIAAAAAAAAAAAAAAAAAAAAAAAAAAt69oDo3aW7pnBZ3WGL+87em+0K4+7y2Qr23jtL7uatwii2TDyjKOmQ29Sq39lyb+ob9iUJWmRTfW+/XVEttiSpm4UADIsyZ20Y2PJQUMXzvLaTUn50/Ml1tyaepdo9MY6Xrt9ylRSlKS3uWt/DstLX5fUAADHKgAAAAAAAAAAAAAAAAAAAAAAAAAMaL0qPI2qrs89ZUROEUrKeVuBRiZ69FLg1Ws9wW0p7p180My49a2ovPouQ2fy6jX2DNn9LZz1uLgXCzWDUglO3mX7jz2bFSrqppvFabBceq5DyPkUhWZW7cZRkfeOLKIundPrhMDoj7O6XV4XxZta8/IzLl80r5Ub/wDB/Qgs57yZL92MF/up/wCIG2G7MLHl4v2c3BuocR4bp8VtG2r7Zl0U2/kOvKHIH21l8nG3rRaHC+SyV5n8RqeiI1GSUkZqMyIiIjMzMz6EREXmZmfkRF5mY3DOiMJXrTR+mtcOteA5r/VOvMJcZ6d3wV4piNPRLa7peReGqAaOhfDp0EB9qtqWJw9G+9mTlW6+Kpqqg3+Xnr9fmX+NXt2y+EYr9W3/AOkqsAAPFiWIK9p7jy8o7ObnJUNo8R0uK28rVhsi6qcfx7Xl9kDDaC+bjj1WhDZfNZp8y+I1PI3DW98JXsvR+5dcNNeO5sDVOw8JbZ6d7xl5XiNxRIa7p+R+IqeSOh/Hr0GnmMjSZpURkojMjIyMjIyPoZGR+ZGR+RkfmRj2n7KrU8Pl6PfXk4trXyuqtgv18h/oRPJL2qn8YyX6NP8AxPwbBP0VzI2rXs89m0RuEcrFuVuexjZ69VIg2us9P20V7p18kPS5Fk2kvLquO4fz6jX2DNn9Emz1uVgXNPWDsgku0eX6dz2FFUrop1vKqbOsetJDKfmUdWG1DchRdO6cqKR9e8XSf+0Sl2+F8qaW/IyMO5/JO+NG/wDxv0LOC9ZEV+9Ga/3XL/AzCQABzuTgAAAAAAAAAAAAAAAAAABbY7U/U269zcdMIxTSGqZG7rSp5M8dNh53qyLmGC4O7mesdX7Jq9g5VSFe7Fv8cxdtU5zHKuM0zMnuLU+608iHJQw6lNycBk4eTPDyqMuuEJzx7Y2whZ19EpQe0peXOuzW/fCyEk+8ZJpMpnFTjKLbSktPWt/xTX6plrz+7C7Qj/8ARC7Z/wD3wuGP8UBweUGq+Tdtn3EHnlonUcG43rpfB8uxPcPFLJtg4pS2uXa13ZQ4tY5pgOPbQafm4CWx9V5rjdZMobJy0j4RlS41sXtwojlaUu6iAyo8lCq2FuPx2DjtRurthCXIWQyKb6p0203LIz72oTrnJdVMqboNqcLYzjGSp8ttNSnOXdNbVacXFqSkumC7ppeu0/RprZZJ341y97SKgxTjLb8Os94o8ervYuuMt5H7O3pn2qLDIrrB9Z5tRbCPWOq8I1bmmb2VldZrfY1UQZGYXkynoKSmanG7Esn5jMUri9nZcnE8x8UqKzH6hzh47x5yqwyvKFvYuV7G5Bs5/QsYtSMR3btGYqq5WBO30196LjsjHkyo7KJNvHnqZiPyfAU28h1whTDExKseuGSq6Iq+yMLcqNcbcrruvtseR000xhJz8uCph0176nL6oabblJybjuXZPUfSOkkunbe1rb6n39NWXdZQOWvZ3ZdvHWeJ8Ts25a8Ztjbs2PvXTWYaVzrV1RsDWr237xzL8u1NsDBNnZXgxy62kzCfdTcVzHHLe4Zk0s5Dd03Hse7FYrJxL09yEzvlTuLnlye13XaPyXMNR4dxy0dohjLqbO8nwHTeMZXc7Avb3ZWUYu9JxGRmefZrbs2aKTGpc+LjFPWRaudbWc01Kj3PgFy7lZ2wv/0XFrycqqNOVmQ+8effBSrlNuE75Y9dl8qoO+yqiEp+2l0RstU6VUk17UnGLbjB9PSn313UVJqO30pyaXv3qOgAAii6AAAAAAAAAAAAAAAAAAAAAABTParhIx2M383baOnp+ZEaYsz/AKjSn+syFTBR7bkjpGpYpH5uPzJCi+zwW2G0mZfn8dZF+gwBRAAAASzxhs2scokGXQ/ZMBRl9hrjNrMv7VDvRxYLHq0KHG6dPV4sdjp8OnhMob6f1d0coAAAABqIuZOsV6W5b8nNSqY9Xa1zvzbWIQUEnuIcqqPOryDTymU9CMo02qahzI3Ukmcd9ozSkzNJRsF830i3TC9SdqRty5ZhKhU27cQ1zuOlR3DS097TxxvCMklNL7pE4czNcEyeY8fVRpkSHUGfQiIrGQ6u4bLWdxPG5m9vIwca2fv1ZKmHmRb+MbOqL+aZrVseiyyH7s5JfRN6/gZL3os+2W8N59bA1lNkeHD3Jx/yiHXR+/3fWcqwTI8Zy2vPuH5OeDizObL6F9dPe7xH3Cc67BIaofsuN6o43doTxK25KmnW01NuLHMcymd3+4iJhmxfWNcZlKe6qSlbMTF8stpTjajIlkz0IyV3VFteB4x9puG6Odoy0tQzcKtuWvW7GnKqa+fTV5Hz9pfIluPnulx98Jvt8pJNfx6v0AAA84M8AAAAAAAAAAAAAAAAAAAAAAAAAAAAAAAAAAAAAAAAAAAAAAAAAAAAAAAAAADX3elMbZazLn1r7WUKR4kPTfH/ABeHZR+/3vVsqzvI8my2w+oXk342LPYSvoZd9XTvH9Q2+mNAJ8dqRvVHJLtCeWu3Ik07GmudxZFjmLTu/wB9EvDNder64w2Wz0UpKGZeMYnVSm20mZIJ7oZmrqZwHHU/h3DeBwXFYkl0zqwaHYta1dbBW3L8rbJr5+rNcvn13WS9U5y0/knpfwSJJ8NtYubp5b8Y9SpY9Ya2NvzUuITkGnvobqrzOqODcSnk9D6xoVU7MmSTIlGUdh0ySoy7p7d0a1z0dLTC9t9qRqO5ehqm0+ksQ2NuS6R3DU0z7Mx1zCcclOr7pk36pmud4xMZPqk1Px2kdeijI9lGPJvtRy1Zy2BiJ7WLgu2X9WzKuluLXx8uiqX0kiS46Oq5z/enr8or/jJgAAeYkiBqIuZOsV6W5b8nNSqY9Xa1zvzbWIQUEnuIcqqPOryDTymU9CMo02qahzI3Ukmcd9ozSkzNJbd0a1z0i3TC9SdqRty5ZhKhU27cQ1zuOlR3DS097TxxvCMklNL7pE4czNcEyeY8fVRpkSHUGfQiIvTvsuy1Xy2fht6WVgq2P9azFujqOvj5d9sl8osjuRjuuE/3ZtflJf8AGKLGQyXvRZ9st4bz62BrKbI8OHuTj/lEOuj9/u+s5VgmR4zltefcPyc8HFmc2X0L66e93iPuE51xoRPjsuN6o43doTxK25KmnW01NuLHMcymd3+4iJhmxfWNcZlKe6qSlbMTF8stpTjajIlkz0IyV3VF6z4iw3yHBcriRXVO3CvdUdb3dVB20r87a4fP4EbRPouql6JTjt/JvT/g2bXgAAcsGxgAAAAAAAAAAAAAAAAAAAAAAAAAAAAAAAAAAAAAAAAAAAAAAAAAAAAAAAAAABH3akvxr+NFSfVMOvbJRfY7IdddV+jq14BiQQiflU8rLIreWSu8hcxxppXXqRsxukZlRfmU2ylRfpAHnx2dJF9duKuJ06lIsIbSi/oLkNk4Z/mSjvKP8xGOsHu9cQjl5TEcNPVEFiTMX9hd1s47Zn+h6Q2ovzkAJKgAAAAAAMOz0snQC5mJcVOUNZBWZ0N7l2jMynoR3yVHyKEnOtfNOqSnvMNRJOP7FLvuKU049asNp8JzoT+FENqL2vnGdXLDs7eS+r66vTYZfV4O/s/XzaW1uTVZrqt5vOKyurCQlfSwyeHTWOHNGtPhm1kbyFrZJXjtaroe/wD2b8gsvgPukpbs43Jtp03t+Te3kVS+nVO6uK9yq16aITPr6b+r3WRT/Ney/wC5N/U/pKlIUlaFKQtCiUhaTNKkqSfVKkqIyNKkmRGRkZGRl1I+o2zXZ0ckGuW3CHjVvxc4rC7zXWFHHzV/xkvL+kXFEu4dsRDiiPvpP31oLxxonSS6qO4w4svvhGepjGbV6KXywatsJ35wvyKzI7PErRje+sob7iFOu4zfnWYpsmvikpaXERKPIWcNtm2G0OpXKzG2kKU13TJyj7SeMeZwledCO7eMvVj0tv7tkdNN2vf2sWPOT9FGEm+y2vuBZ0XODfayOv8AWj3j/DqX5mYMAAPAyaAAAAAAAAAAAAAAAAAAAAAAAAAAAAAAAAAAAAAAAAAAAAAAAAAAAAAAAAhX2i/JBriTwh5K78ROKvu8J1heR8Kf8ZLCz2LlaWsO12htRn31H7639G46TJKdTGbfcQX3szKagw+fStOWDVThOg+F+O2ZFZ5bZv732bDYcbJ1rGaA7LFNbV8okrU4uJeZC9mVs6w4hokSsOqZCVO94ibnfDXGvluc47CceqqeRGzIXu+7Uftr9v3dVcHCLf8ATnFer0WcizyqbJ+9R1H+1Lsv0b2/kmYS6lKWpS1qUta1Gpa1GalKUozNSlKMzNSlGZmZmZmZmZmfUfyADqM10zXfRNtALh4lyr5Q2cFZHfXuI6Mw2etHcJMfHYas62C00pSe881Lk5BroiW2pLTb1W+2rxXCMmMxMW1OyC4zq4odnbxo1hY16a/L7TB2Nn7BbU2tuanNdqPOZxZ11mS0p62GMQ7muw100J8MmscZQhbyU+O7crHL3inkFynP8nlxl1VSyHTS0+zpxoxx6pR+CsjUrPrNt92zYcaHl0Vx1p9Kcvj1S9pp/RvX5AAAQBfAw7PSydALmYlxU5Q1kFZnQ3uXaMzKehHfJUfIoSc61806pKe8w1Ek4/sUu+4pTTj1qw2nwnOhP5iYtqdr5xnVyw7O3kvq+ur02GX1eDv7P182ltbk1Wa6rebzisrqwkJX0sMnh01jhzRrT4ZtZG8ha2SV47U/4W5BcZz/ABmXKXTWsmNNz32VOSnj2yl8VCNrs18YJrukWMmvzKLI+/p2vrH2lr661+Zquh/SVKQpK0KUhaFEpC0maVJUk+qVJURkaVJMiMjIyMjLqR9R/IDqE142znZ0ckGuW3CHjVvxc4rC7zXWFHHzV/xkvL+kXFEu4dsRDiiPvpP31oLxxonSS6qO4w4svvhGc1Bh8+il8sGrbCd+cL8isyOzxK0Y3vrKG+4hTruM351mKbJr4pKWlxESjyFnDbZthtDqVysxtpClNd0yczBhy34k4x8RzfIYKj01QvlZj9tJ41/7ajXufTXNQbXbqhJdmtLYsezzaa572+lKX9qPaX6tb/MAACDLwAAAAAAAAAAAAAAAAAAAAAAAAAAAAAAAAAAAAAAAAAAAAAAAAAAAAAAB0uRWRVFHZ2He7q2Irngn16f6pd6Mxi/rfcb69PPp1ESfj8RW/a9sSI8ClbX9d5Zz5SSMupNN95qMlXz6OOm8vp5ebCT8/lRAABW3Utf3WLW0Uk/vjjMFlRl08mk+PI6H8yUbsf4eRGgy8z+FEhKvEKz2TjtZEUnuvKYKTILp0V48ozfWlf8ASaJaWT/M2RF1+IA9KAAAAAAADVUdrHxOc4Y899/6bg1qq7B5GVO7D1WSUEiI5rTYhrybHIcBRJR4rGLrmT8JkOm233rLGJ5JJSCQ4varjFQ9KR4YPbK0FrbmXh9SqTk+gLD3F2a5FZccky9SZzaNFR2ko0IdUqPhOfyGmGG0JZQ1F2Ddz5bqmoSCb3v7PeXXG87DGtl04/KQWJLb1GOQpdeJN/FufVRH55G32RhZ1XmUuS/FW+r/AFfSX6L2v9UwPhN3s5uW9nwf5l6P5FRnJSsexPKWqrYtdEJTjlzrDKmnMdz2AmMSHSly2cfsJdrTNKbX4eQVtTKb7r0ZpxEIgHv+Tj1ZePfi3xU6cimyi2D/AKVdsHCa+TcZPT9z7kLGThKMo9nFqS+qe0blyju6jJaWnyPH7GJcUOQVdfd0lvXvIkwLSotYjM+tsYUhszbfiTochmTGeQZodZdQtJmlRGO0GNZ6NVzyb5C8UpfFbOLj1na/FViHWY6Ut7vTci0VaPrbwuWz3koJ33Anm/gMpmOhTVZQR8FN91cm0UYyUxyvy/G3cRyWXx1++vGtlCM9aVtT9qm6K/dtqlCaXu6ul90zY6rFbXGxeklvXwfvX5PaAAAjS4AAAAAAAAAAAAAAAAAAAAAAAAAAAAAAAAAAAAAAAAAAAAAAAAAAAHV3l3UY1S3GR5BYxKehx+rsLu7t7B5EaBV1FVEen2VjNkOGTbESDDjvSZLyzJDTLS1qMkpMxqgO0Z5b2fODmXvDkVJclJx7LMpdqtdV0slNuU2sMVabx3AoCoxoaKJLex+viWty0ltHiZBZW0pzvPSXXF5oHpKvPJvj1xSicVsHuPVtr8qmJlZkRRHu7Nx3RVW+hvNJb3dSsmvf+eTGAxWZCEtWdBIzo2HUSatJjXxD2v7MuFdGLkc3fDVmXvFw9rusauad1q+V18FBP1SobXsz7xPIW7lGpPtH2p/2muy/Jd/9YC4z2TvE5zmdz30BpudWqscHj5U1sPahKQSojetNdmjJskhz1GlfhMZQuHAwmO6TbhJssngEokoUtxFuYZ4Pot3DB7Wugtk8y8wqVRsn3/Ye4usnJTLjcmJqTBrR0ry0imtDSkx82z+O6w+2tLyHYuvqSfEdS1NWTm4eLeXXDcFm5MZdORbD7pid9S+8ZCcIzj86YeZf9KmveYuNV5t0I63FPql/Zi1tfm9R/MyrwABzIbAAAAAAAAGqo7WPic5wx577/wBNwa1Vdg8jKndh6rJKCREc1psQ15NjkOAoko8VjF1zJ+EyHTbb71ljE8kkpBIcXbmGeD6Ujwwe2VoLW3MvD6lUnJ9AWHuLs1yKy45Jl6kzm0aKjtJRoQ6pUfCc/kNMMNoSyhqLsG7ny3VNQkE3gfDpvwly65ngsLJlLqyKoLEy++5LIx4xhKcvndDy7/krUvVM17Jq8q6cf6LfVH+zLv8Awe4/kTd7OblvZ8H+Zej+RUZyUrHsTylqq2LXRCU45c6wyppzHc9gJjEh0pctnH7CXa0zSm1+HkFbUym+69GacRtf6O7qMlpafI8fsYlxQ5BV193SW9e8iTAtKi1iMz62xhSGzNt+JOhyGZMZ5Bmh1l1C0maVEY00Y2Dvo1XPJvkLxSl8Vs4uPWdr8VWIdZjpS3u9NyLRVo+tvC5bPeSgnfcCeb+AymY6FNVlBHwU33VybRRjT/tN4V34uPzdENzxNY2Zpd3jWTbotfypulKD9W1kJ9lBmXx92pSpb7S9qH9pLuvzS3+T+JkpgADxQlgAAAAAAAAAAAAAAAAAAAAAAAAAAAAAAAAAAAAAAAAAAAAAAAAAAAD+VrQ2hbjiiQ22lS1rUfRKEII1KUoz8iJKSMzP5EQ/oU12XfFXVJVTC+ku2JSHOh/WbgJPo+o/I+njn0jkR9O82p8yPqgAUWyS3Ve3U6xMz8J100Rkn5dyK197jp6dC6GbaSWsun98Wsz8zMdEAAD0mI1J3WQV8NSe8wl0pMvy6pKNG++uJV9hOmlLBH+E6kSsFKdWUpxa+TcvI6O2CvAjGZGRlDYUffUXUi6E/II+vxI0x21EfRQqsAAAAAAAAAPA7V1lhu6NaZ9qPYdS1e4LsrEcgwjLKl4mzKbRZJWSaqxQytxt0o8tEeSt2FLSg3YUxtiWwaXmW1F74BVGUoSjOEnGcJKUJRbUoyi04yi13TTSaa7prYaTTTW0+zT9GvgzUW8zOLubcMeTW3eN2eNvLtdbZVLrqq4cjuR2MrxCaSLPDcvgpW22SoeS41MrLZKWyUUV+Q/AdMpMR9CIwjPf9Jf7O4936Nq+bOsqQ5Gz+O9O7V7Vi18Vo5eU6LclPz3buSsjJ5+Vqm4kyrlKUI6JxLIMunTHjaooDJYEA6c8L83DnuIx8zqX3mtLHzYLS6MquMeuXT7oXJxuh6pRn07bjLWvZFLptlDv0+sG/fF+n5rvF/Fpv3kyOAvMbNuB/KnV/I/DEyJ7GK2vs3OsXZdQ03m+tbxTcLNcSdN7rHTIsKrvSqSXJQ41U5LApLom1u1raT2supdqYLvHWOB7g1lfRMmwDZOLU+YYpdw3G1tzae7htTI5PoQtw4lhF8RUO0rnjTLrLOPLrprbMuK+0jTpDLI9G07UZjUmZt8BN4ZGmJrfZl89P483tipJRsR2leSvEtdeSZjriUxKHZElfruOoPozDz834jbTsjOHX4esfaH4bfI4ceXw6+rMwK2siEVuWRhJubaS/FPFblZFdnKqVq25RriZGDeq5Oqb1Cb9lv3T9P0l6fVL3bM6gAAeEEyAAAAAAAAAAAAAAAAAAAAAAAAAAAAAAAAAAAAAAAAAAAAAAAAFPNtbUwXR2sc83Bs2+iYzgGtsWuMwyu7mONobhU9JDdmSCZQtbZy7CV4aYdXXMmqXZ2ciJXQm3pcphpdQxgr+kl9qMxtvM3OAmj8jTL1vrO+Zn8hr2uUk42XbSo5XiVWvI0xpxSZdDreSj13IkF1ZmZ+TERxpqRg7T8yd8O8Hfz/J04NW41bVuXeltUY0GvMn8OuW1XVF/isnHeoqUlZvujRW5vu/SMf3pP0/Jer+S+OkY/8Az65jZtzw5U7Q5H5mmRAYyq19m4Li7zqHW8I1rRqchYViTRs9I6pFfVd2Vdy4yG2rbJZ93dG2h2ycSUNwAdO4+PTiUU42PBV0Y9UKaq4+kK64qEIr3vUUu77t9222a9KTk3KT25Ntt+9vu2Se4Z8Xc25ncmtRcbsDbeRa7JyqJXWtw3HckMYpiEIl2eZZfOShtwkw8axqHZ2ykuEkpT8diA0ZyZbCF7ZTVWssN0vrTAdR68qWqLBda4jj+EYnUsk2RQqLG6yNVVyHltttFIlrjxkOzZakE7NmOPy3zU884o8az0aDs7j0ho205s7NpDj7P5EU7VXqqLYRWil4totuUxPau4yzM3mJW1riNFuVJWjorEsfxKdDeJq9nsnlIjwX7QueXKcqsDHn1YfFudW4vcbcyWlkT7eqqcVRDe9ShbKL6bNuZwafLr8yS9uzT+kP6K/P8T+TXwAAA8/M4AAAAAAAPA7V1lhu6NaZ9qPYdS1e4LsrEcgwjLKl4mzKbRZJWSaqxQytxt0o8tEeSt2FLSg3YUxtiWwaXmW1Fqa+ZnF3NuGPJrbvG7PG3l2utsql11VcOR3I7GV4hNJFnhuXwUrbbJUPJcamVlslLZKKK/IfgOmUmI+hG3SGLd6S/wBnce79G1fNnWVIcjZ/Hendq9qxa+K0cvKdFuSn57t3JWRk8/K1TcSZVylKEdE4lkGXTpjxtUUBkvQPs955cXyrwMifTh8o4Vbk/ZqzE9Y83vtFWdUqJv3udUpNRrMHOp8yvrivbr2/rB/iX5fiXwSlpbZgQCZHAXmNm3A/lTq/kfhiZE9jFbX2bnWLsuoabzfWt4puFmuJOm91jpkWFV3pVJLkocaqclgUl0Ta3a1tJw3Ae9ZGPTl0XY2RXG2jIqnTdXL0nXZFxnF67rab7ppp9000mQ0ZOMlKL04tNP4NPaNxbqXamC7x1jge4NZX0TJsA2Ti1PmGKXcNxtbc2nu4bUyOT6ELcOJYRfEVDtK540y6yzjy66a2zLivtIqGMFf0bTtRmNSZm3wE3hkaYmt9mXz0/jze2KklGxHaV5K8S115JmOuJTEodkSV+u46g+jMPPzfiNtOyM4dfh51A5i8RcHfwHJ3YNvVKpt24l7WlfjSb8ufol1x067ortGyMtbi4ylsNF0b61Na36Sj+7L3r6e9fFfPYAAEEXgAAAAAAAAAAAAAAAAAAAAAAAAAAAAAAAAAAAAAAAAAAAAAAAOPLlMQYr8yS4TUeM0t55xRkRJQ2k1H069Oqj6dEpLzUoySRGZkQijkFy/f2sqye6pJ1XcjtGZH4EVszJhkunl1Sn6zhl5LdU4v+cKg7Kykpbx4/Bc6xozhKsXE/B6U2fVEYlEfm3GP6zvyOR0T5Gx1VSQAB2tLVP3VpDrWCPvSXSStZEZkyyn6z7yvI/JpolK8/iZEkvNREOqFftZ456hAVdykdJVkgkxSURdWoHUlEsj+JHLWROH/ALk2yZfy1EAKlxYzMKNHiR0E2xGZbYZQX81tpJISXkRdT6EXU/iZ9TPzMfcAAAAAAAAAAAAAHCsq2uua6wp7iBCtam1hSq20q7KKxOrrKunMORZ0Cwgym3Y0yFMjOux5UWQ04xIYccZebW2tST1jPbN9m1cdndyntazGa2ze46bdftMy0XkchpS40KCp9l7JNZzJhKcSu511OsI9e0bzhyrLFZuM3kjuy7KZHi7PMQd7QzgxrTtB+M+ZaE2AzFgXD7S8h1dnSovrFhrnZVdElN49k8Pu9HnYCzkv1GTVja0e2MasrWAhyPLdiTYu2eEPEcvD3JxnY5Pj8vppzq1t9MU35eTCK9bMeUm9JNyqlbBLqlFxxsqjz69L8cduD+vrF/KWl39zSfps1OI+8WVKgyo02FJfhzYb7MqJLivOR5UWVHcS9HkxpDKkOsPsOoQ6y80tLjTiUrQpKkkZVd5A6D2lxf3HnuiNz41IxTY2ubx+jv6t0zdjPdEIkV9zTze4hu1x6/rX4lzQW8dPq9pUToc1noh4klRsdI12V3VwtqnC2q2EZ1zg1KFlc4qUZRktqUZRaaabTT2uxANNNpppp6afZpr1TXuaNjN2Ena1wedOomNE7ryRs+W2oKFHtaTYKbZf3Lr+uOLAhbGgL7xFKymtU/FrdiwUIStVg7BymKSot9MhUeQUNVr2PmYZhhPab8K7PCZE2PZ2u9sPw+1TCW6lUnD84krxLOI8lDRl4sJWI3Fy7JQ4Smkoa8ZREbSVJ2pQ548ecJjcNzK+5pQx8+l5caFpKix2zhbXWl6VOUVOtf0OqVa9mESdwrpW1e13lB9O/wB5aTTfz9z+Ot+rYAAGkmWAAAAAAAAAAAAAAAAAAAAAAAAAAAAAAAAAAAAAAAAAAAAY+vbt9rXB4Laif0TpTJGy5bbfoXPZMmvU28/prX9icqBN2NPX3jKLlNkpiVW66grQpabBqdlMokxaGHCvNdBKlSp0qTNmyX5k2Y+9Kly5TzkiVKlSHFPSJMmQ8pbr777q1uvPOrU464pS1qUpRmdx/tg8wzDNu035qWebSJsizqt7Zhh9Umat1So2H4PJRiWDx4yHTPwoScRp6Z2MhsktKQ74ySM3VKVbZHS3g/hMbhuHxvKSnk51NGXl39nKyy2qM41xet+TQpuFa97c7GlKyRAZV0rrZb7Rg3GEfgk9NtfGWtv8l6JAXfexk7Nq47RHlPVVmTVtmzx01E/V5lvTI47SkRpsFL7z2N6ziTDU2lFzsWdXyK902XClVuKwsmvI/el1sOPKtzcftB7S5QbjwLRGmMakZXsbY14xR0FW0ZtRmeqFyLC5uJvcW3VY9QVrEu5v7eQn1erqIMya91QyaT2lXZ58GNadnxxnw3Qmv2Ys+4YaRkO0c6TF9XsNjbKsYkVvIcnmd7q81AQcZioxqscWv2PjVbVQFuSJbUubKwfG/iaPB8e8bGsS5TOhKFCi05Y1L3GzLkvWLXeGPv8AFbuS6o1TRViY/nT6pL9nB7l8JNaah+fq/l9UTVra2upq6BT08CFVVNVCi1tXV1sViDXVtdBYbiwYECDFbajQ4UOM01HixY7TbEdhttlltDaEpLmgA53bbbbe2+7b9W/iydAAAAAAAAAAAA4VlW11zXWFPcQIVrU2sKVW2lXZRWJ1dZV05hyLOgWEGU27GmQpkZ12PKiyGnGJDDjjLza21qSfNAE2ntPTXdNeqfxBrDO2b7Nq47O7lPa1mM1tm9x026/aZlovI5DSlxoUFT7L2SazmTCU4ldzrqdYR69o3nDlWWKzcZvJHdl2UyPFtBDbHdoZwY1p2g/GfMtCbAZiwLh9peQ6uzpUX1iw1zsquiSm8eyeH3ejzsBZyX6jJqxtaPbGNWVrAQ5HluxJsXVq8gdB7S4v7jz3RG58akYpsbXN4/R39W6ZuxnuiESK+5p5vcQ3a49f1r8S5oLeOn1e0qJ0Oaz0Q8SS6I8EeJo85x6xsmxPlMGEYXqTXVk0rUa8uK3uTfaGRr8N2pNRjbCJBZeP5M+qK/Zzb6f6r9XF/wB8fivoykUWVKgyo02FJfhzYb7MqJLivOR5UWVHcS9HkxpDKkOsPsOoQ6y80tLjTiUrQpKkkZbF/sJO1rg86dRMaJ3XkjZ8ttQUKPa0mwU2y/uXX9ccWBC2NAX3iKVlNap+LW7FgoQlarB2DlMUlRb6ZCo9cyLk3Y+ZhmGE9pvwrs8JkTY9na72w/D7VMJbqVScPziSvEs4jyUNGXiwlYjcXLslDhKaShrxlERtJUnO8YcJjczw+T5qUMnBpvy8S9JdVdlVUpyrk/8Aqb1BQsj6JqFiTlXEpxbpVWx13jNqM18U3rf1jva/NejZtSgABzST4AAAAAAAAAAAAAAAAAAAAAAAAAAAAAAAAAAAAAAAAAAAAFPs8y5NDDODCcL2vMbPwzT5nDjq6pVJV9jqjI0xkn/PJTp/VbJK6giKuZPPP5RdqfNRqROdZR3jPyZY6NMEXX4J8FCDIi8vPr8wB5ozNRmpRmpSjM1KMzMzMz6mZmfmZmfmZn5mY/AHNrq+XazY8CE0bsmSskNpLyIvIzUtavghttBKW4s/JKEmo/gAPSYVjS8itUpdSoq2GaH5zhF5KLqZtRSP8OSpJpPp5paS6svrJSRyeSlKEpQhKUISkkpSkiSlKUl0SlKS6ESSIiIiIiIiLoXkOkx6ii49WM18ciUsi8SU/wBOipMlRETjqvmSfIkNJPr3GkoT1MyNR94AAAAAAAAAAAAAAAAAAACxn2znY84z2juBQdh6ydocL5Y64qlwcRya0SqFR7JxVpx+Wet85nxWXpEZDEqRJnYbki48z2BZSp0CUx7Iu5kuuwcct7I3tMsLzGRg9rwj5DWFvHmrgHY4lr24znDnnEOm140fPsNavcIehLMu+icjIDiG0ZOG6SOpltWgG68F465bg8X7jGujNxYbdEMnzOvH29uFdkJxbq23Ly5J9Lb6JQXYxLsOu6XXtwk/xOOtS+bT9+vevz2Ym3YW9hlszi7sqv5icwq2roNnUdRYRNN6djWFZkE3C5WR1btZa5znNnWOzadjJm6SdPp8fx2qnWPshNnOs7eVGuo8GDX5ZIANf5jmM3nM2ednTjK2UY1whXFxqpqi241VRbk1BOUpNylKUpSlKUm22X6qoUwUILt6tv1k36t/N6X5JJAAARRcAAAAAAAAAAAAAAAAAAAAAAAAAAAAAAAAAAAAAAAAAAAAMTbt0uwy2Zyi2VYcxOHtbV3+zryor4m5NOybCsx+bmkrHKtqsqs5wezs3YVO/kzlJBgU+QY7azq72umsg2dRKk3UidBsMW7EuyN7TLNMxj4PVcI+Q1fbyJqIBWOW69uMGw5lxbpNeNIz7MmqLCGYSDPvrnLyAohNEbhOmjoZ7VoBvnE/aFzHFYFeB5OLmQx61XjWZCtVlVcVquuTrsgra60lGCajNRSj1uKilhW4NVk3PcouT3JR1pt+rW09N+/1W++vXdjPsY+x5xns4sCnbD2a7Q5pyx2PVIg5dk1WlU2j1tirrjEstb4NPlMsyJKH5UeNOzLJER4ft+yiwYEVj2RSQ5djfMABqHI8jl8rmXZ2ba7si+W5S9IxilqFdcV2hXCKUYRXZJd9ttvKrhGuChBail+vxb+Lfq2AABhFYAAAAAAAAAAAAAAAWM+2c7HnGe0dwKDsPWTtDhfLHXFUuDiOTWiVQqPZOKtOPyz1vnM+Ky9IjIYlSJM7DckXHmewLKVOgSmPZF3Ml118wBm8dyOXxWZTnYNrpyKZbjJd4yi+067IvtOucdxnB9mn200mqLK42RcJrcX6r+5p+5r3M1UuW9kb2mWF5jIwe14R8hrC3jzVwDscS17cZzhzziHTa8aPn2GtXuEPQlmXfRORkBxDaMnDdJHUyykewt7DLZnF3ZVfzE5hVtXQbOo6iwiab07GsKzIJuFysjq3ay1znObOsdm07GTN0k6fT4/jtVOsfZCbOdZ28qNdR4MGvyyQG38t9oPMcrgWYHk4uHC+DrybMdWuy2ElqdcXZZNVV2LcZpdU3FuPWk2ni1YNVU1PqlNxe4qWtJ+5vS7teq9FvvrsAABoZmgAAAAAAAAAAAAAAAAAAAAAAAAAAAAAAAAAAAAAAAAAAAAUmzvBZNrJVc06UOSloSmZDUpLZvm0nuofYWo0oN3uJS242tSSWSEqQo195KqsgAIps4fk77xMIpLBKzV3e88wphkj69OpyHu4x3f6XidOnwMVzwvDmsbjqkSTbftpKO688j6yIzRmR+rR1GRGZGZEp5zonxFkkiLuNpNXuQAAAAAAAAAAAAAAAAAAAAAAAAAAABHnkXyb1txjxqhvc8Yy2/t8xv28VwLX2usZmZpsbP8AJFxnZiqbEcWgLaesJLENlyRKffkQ4MZPgtPy0SJcNmRIYW1N5+qfdNuC3vD4XqH0Q8pPcb1vp4Pvz7Jw72x6h3/qe0/c71rvdz796l4vd+qSh9itvv7k39dLev8Aj8FtglNx05Na35N4ze32CMZbQW2H37uK55r7YuMzML2NgGStx2phU2XYtPW69XSXob7UmM8xImQZKPFbYlrkRZjMeQotp6LKGXaa87Pd0m/UD1JxaPOvVOng+/fsfMSp/X+59T2n7m+qd3v/AH71Pwu99XoLlgSWn2+Cf6pPX5bAAAHwAAAAAAAAAAAAAAAAAAAAAAAAAAAAAAAAAAAAARw5DcstD8XKqvnbhzdiltL5ia7ieG1cGdkOc5m7AVHbkRcVxSoYlWlo42/LiMPSfCYrYS5LS7CdDYNTyfd6P29jW/NSa/3Nh0G8rcX2PjcHKKOBksaBDv4tfYEo2WbWLV2dzXMTEkg/Fbh2k5hPl3JC/l/G48eoJ+B5tkM6jp5l/Q642JFo7yXWQpFxTRbjHH/a8aqs3mFza5i09nwPaLMN9lud6lE9ZS76sz3I7dmt/wDkF8VP/cfxr/gPCrS6d+/ev4fD/wD38gTgAAFIAAAAAAAAAAAAAAAAAAAAAAAAAAAAACPPIvk3rbjHjVDe54xlt/b5jft4rgWvtdYzMzTY2f5IuM7MVTYji0BbT1hJYhsuSJT78iHBjJ8Fp+WiRLhsyP3jpya1vybxm9vsEYy2gtsPv3cVzzX2xcZmYXsbAMlbjtTCpsuxaet16ukvQ32pMZ5iRMgyUeK2xLXIizGY8Wd5+qfdNuC3vD4XqH0Q8pPcb1vp4Pvz7Jw72x6h3/qe0/c71rvdz796l4vd+qSh+aLKGXaa87Pd0m/UD1JxaPOvVOng+/fsfMSp/X+59T2n7m+qd3v/AH71Pwu99XoK+ldPz6erfu/Eo6/j3fx2gXLAABQAAAAAAAAAAAAAAAAAAAAAAAAAAAAAAAAAAAAAIOWHaIcYkb5wrjljGU2uxNi5hmkzAJjuBVBXOJYPk0GDczX67NculTK2lhzk+wbOM5TUci/yCNIjqOZTxoqXJLdXeRfJvW3GPGqG9zxjLb+3zG/bxXAtfa6xmZmmxs/yRcZ2YqmxHFoC2nrCSxDZckSn35EODGT4LT8tEiXDZkRO5h49QY7yE7OtrH6OnomrPlrmF5ZNU9ZCrG7C7t9XZrNtriciEwwmXa2kx12XY2EgnJc2U45IkvOurUs+ZvP1T7ptwW94fC9Q+iHlJ7jet9PB9+fZOHe2PUO/9T2n7netd7uffvUvF7v1SUK9Remk/STa3vfT+S/P4LuCTOhuVep+QmE5ZmmMu5Jh6td2U+m2dh20sfkYHnWsrWtgJtZcLOcetHFnT9yrUVgmYiVKrXI6JBNzVPQ5rUeiepe0k4+7h2Li+v6al3Ji0PY0yyr9QbM2Fq28w/VG5p9Uy/IlQ9a5jYOG3byVRosh6KzZQadyYbaY0ZLs16PFdgbyV9bLaXbN+4Xf6Hwt1AeeezO9096vcXPiP17wfL2h9Gvid/vffjru73vqdBV7lgWI/wBxd2fh4V7P9YLfPBb6FvZvhmv2l36gq32F4P1u97o+2O94H/Wfj+J9XqPvSu3r7Wku/wCHcVLb+K7/AKKXv9BeSAAFsAAAAAAAAAAAAAAAAAAAAAAAAAABHnkZxk1tycxqhos7fy7H7jDr9vKsC2FrnJpmF7GwDJERnYarjEspgIder5D8N5yNKYkRpkCSnwXX4i5ESG9HkMAJ67oEeeOnGTW3GPGr6iwSRl2QW+Y37mVZ7sHY2TTM02Nn+SORmoSbnLspnIaesJLENhuNFYjx4cGMjxnGIiJEuY9IkMAA3vuwAAAAAAAAAAAAAAAAAAAAAAAAAAAAAAAAAAAAAAAAHT5DSRMloLzHJ7khqDkFPZ0kx2IttuW1EtYT8CQ5GW80+yiQhl9amVusPNpcJJracSRoV4PR+oca0HqTX+mcOnXlli+uMbg4vRz8lkwJl/Kr68lEy9ayquspq5+Yoln4rkOrgsK8u5HR86qAG+2vd6gAAAAAAAAAAAAAAAAAAAAAAAAAAAAAAAAAjzyM4ya25OY1Q0Wdv5dj9xh1+3lWBbC1zk0zC9jYBkiIzsNVxiWUwEOvV8h+G85GlMSI0yBJT4Lr8RciJDejuOnGTW3GPGr6iwSRl2QW+Y37mVZ7sHY2TTM02Nn+SORmoSbnLspnIaesJLENhuNFYjx4cGMjxnGIiJEuY9IkMA+7etb7fAAAAfAAAAAAAAAAAAAAAAAAAAAAAAAAAAAAAAAAAAABRPaWhsQ25meks5ySyySFbaGzyZsPEI9JMq41dZXU3HbLGXYuSMz6eykzKtMC1kPNsVcunllLQy4qatlK47nS8jOMmtuTmNUNFnb+XY/cYdft5VgWwtc5NMwvY2AZIiM7DVcYllMBDr1fIfhvORpTEiNMgSU+C6/EXIiQ3o8hgH3b7d/T0BGzQvFPU/HvCctwvGWslzFexbKdcbPzHaeQSM8zrZtrY16amVMzjIbNtB25Lq0+z0QkRIta1HckG3CS9MmuyKJal7Nrj7p/YuLZ/TXe5cqha5mWNjqDWWwtpXmYao0zPtGX40mZrbDrBtKKiSiNKkMxHrKdcOQzWmVGU1NYjymbgAB1Pv3ff1+f/Pp9G16MAAAfAAAAAAAAAAAAAAAAAAAAAAAAAAAAAAAAAAAAAAAAAAAAAAAAAAAAAAAAAAAAAAAAAAAAAAAAAAAAAAAAAAAAAAAAAAAAAAAAAAAAAAAAAAAAAAAAAAAAAAAAAAAAAAAAAAAAAAAAAAAAAAAAAAAAAAAAAAAAAAAAAAAAAAAAAAAAAAAAAAAAAAAAAAAAAAAAAAAAAAAAAAAAAAAAAAAAAAAAAAAAAAAAAAAAAAAAAAAAAAAAAAAAAAAAAAAAAAAAAAAAAAAAAAAAAAAAAAAAAAAAAAAAAAAAAAAAAAAAAAAAAAAAAAAAAAAAAAAAAAAAAAAAAAAAAAAAAAAAAAAAAAAAAAAAAAAAAAAAAAAAAAAAAAAAAAAAAHXW9xUY/WTLq+ta2kp65k5FhbW86LW1kGOkySp+ZPmusxYrKVKSRuvuoQRqIjV1Mh9SbaSTbb0ku7bfokve2DsQFuPbna79mlpByTHzzmXpdybD75SqzAr6Vty2jOo696NJq9TwM1nxpRdOhxZEdp9JmXebSRkYtybE9KF7N7EFSWMRpuRO130d5MWTimtqOhqZCy/krdkbCzbD7aNHX+GmikPp6l1i/HuzGN4e53MSeNxHIWRl6WfdbYVP6W2RhW/9otSvph+K2Cfw6k3+i2/4GRuAw/8ALPS29bRFupwbhNnGQNkaiYcyzddDh61l/NU6zT67zlLZ/A1IRIc6fAln/KFBrj0tnar61nQcLNfVjRmfcRcbjyO8WkvkS3IWCY8lZl8zJpBH8iIS9fgLxXYk/wCS+hP32ZmDF/nH7y5r84otPNxl/wBJv6Qn/wDTozeQGC7/ANFm8i+/1/uTNK+H+D75Z13/ANZ07v8A3sepp/S2dqsLQd/ws19ZtEZd9FPuPI6Nai+ZIcm4JkKUGfyM2lkXzIxdf2feKktrAql8lm4e/wDevS/ifPv2N++/9if/AAM3kBh/4n6W3raWtpOc8Js4x9szST7mJ7rocwWgv5ymmbjXeDJcP4mlC5DfX4Gsv5QmTrv0oXs3svVGYy6m5E6ofX3UypOV62o76pjrP+UtqRr3NswtpMdH4aqKO+rofSL8O9g3eDPE+Om7OHyZa/6l05L/ACWPba3+SZWsvHl6Wx/Pcf8AzJGRuAtx6j7Xfs0t3uRo+B8ytLtTphJKLWZ7eytR20l1ZEaY0ar2xAwqdJln16FFjx3X1GR9xtREZi4XUXFRkFZDuqG1rbunsWSkV9tUTotlWTo6jNKX4c+E69FlMqUlRE6w6tBmkyJXUjEDkYeXhy6MvFycWfp05FFtEt/DptjF/wAC9GcJ94yjJfGMk/7mzsQABjFQAAAAAAAAAAAAAAAAAAAAAAAAAAAAAAAAAAAAAAAAAAAAAAAAAAAAAAAAAAAB/K1obSpbikoQkuqlrUSUpL7VKMyIi/OZjz0zL8Zg9SkXUHvJ/lIYcOWsj+w0REvrI/zGRGAPRgKcSdo40z1JlNjMP5GzGQ2g/wBJyXmFEX/aGf5h0z23IqevgUkhz7Demts/o6kiO/0/tMAVgAUQXtyUf97pI6f8ea4v/gx2x8vpbsOv/SiF0/8Ab3+v9vT/AJgBXQBRBG3JRf3ykjq/xJriP+FHcHPZ25FV08ekkN/abM1t79PQlx2Ov9pACsACnEbaONPdCeTYwz+ZvRkOIL9Bxnn1GX/aEf5h6SHl+MzuhR7qD3lfyUPuHEWZ/YSJaWFmf5iIzAHowH8oWhxJLbUlaFF1StCiUlRfaSiMyMvzkY/oAAAAAAAAAAAAAAAAAAAAAAAAAAAAAAAAAAAAAAAAAAAAAAAAAAAAABRne3IjR3GPA5+zd/bRw/VOD1/VC7zLrZqCU2V3e8itpK5BPW2RXDxecaloIFlbSvMo0J0yPpiUc4/SnHjXb4NwH1khDReNDLeu5q01uOfyEnOwvVrElKGiIyccgWmc2bxrSaCsMGaUSkCb4jw7y/OT6ePxJ2VqXTPJs/ZYtb9/XdL2XJLu66+u3XdQZZtvqpXtySfuiu8n+S93zel8zMI2DsnXmpcVss62nneH63wunR4lrlud5LT4njdcnuLWXrl1ezIFdHUpDbhtodkJW53FEhKjIyFgDlP6TRwO0g5Y0Oka7N+VOXwlqaQ7h0c8E1mUhtKvFYk7By6AuzkpJzuIZnYvguVVUhJuONWBpQ2T2CHyE5V8juVuWKzXkXubPduX6VurhLy28kSaijQ8pS3YuL4zG9VxnE69a1LX7Nxqoqa8nFuLTGJbi1Kj+PU+K+zDBpUbOXy7Myzs5Y+M5Y+Mn74u3/8AMWr4Si8d9/wkdZyE32qioL4y9qX6fhX09r6mQzyP9Jd7RLcqp1ZqybrzjNi8lLjDLOusZj5Pma4bilGaJ+a7BTkKUTSSZNpscWx7En20pSplLT3edVZL2/yK37yBtlXm8t1bT27aG6bzcrY2d5Nl/qiuhpSivYvLKbGrWGkH4bEWAzGjR2iJlhptpJIKjQDf8HhuK4xJYHH4uM0teZXTHzn7vavkpXT+s5yZhTtss31zlLfubevyj6L8l8wAAJMtgAHtKfW+xMiQleP4Fml4hZEaF0+LXlmhZH8DSqFBfJRH8jIz6/IUylGC3KUYr4yaS/VtDTfotniwFX/7nvfnc8X6D9v+H06+J9Gmadzp8evf9i93p08+vUeUuNb7Ex1C15BgWaUaEEZrXcYteViEEXxNapsFgkkXzMzLp8xRG6mT1G6qT+EbIN/omfdP4P8AQ8WAALp8ArLqHkVv3j/bJvNG7p2nqK0J0nnJWuc7ybEPW1dCSpFgzR2UKPYsOtl4T8aezJjSGTNl9pxozQdGgFFlddsJV21wtrktShZGM4SXwlGScWvqgm09ptNejXZr8zIZ44+ku9olppUGs2nN15yZxeMlth5nYuMx8ZzNENtSTJEDNdfJx5K5ppI21WOU49lr60qUp5LrvddTkR8WPSaOB273K6i3dXZvxVzCYpLS3cxjnneszkOJT4TEbYOIwEWcdJud9D07KMFxWqjpJtx2elK3CZ14YDU+S8C+HOSUn9yWDc96u49rHab/APgqMsZ9/XdPV66kt7MqvMvr/p9a+E/a/j+L+JuO9fbJ15trFa3OtWZ3h+yMLuEeJVZbgmS0+WY3Yp7iFn6ndUUyfXSFJQ42biGpClt99JLSkzIh7Uag/j5yr5HcUssTmvHTc2e6jv1LaXNXiV5IjVF4hlRLai5RjMn1rGcsr0LShfs3Jai2rzcQ2tUY1toUnKz4OelOPEuowbnxrJC2j8GGe9dM1pocb/lpKdmmrX5KkOkZm25PtMGs2TQkllX4M6o0oHmnM/Zvy2Cp3cbOPKY8dvy4R8rMivX+ZcpQu16LyrHZJ+lK9DPqz6p6Vidb+Le4frpNfmtL3szPQFGdE8iNHcnMDgbN0DtHD9rYPYdEIvMRtmpxQpXd7y627rlkzbY7cMl5yaW/gVttF8ikwmjMutZh55ZXZVOdVsJ1WQk4zrsjKE4SXZxnCSUoyT7NNJr3ozk00mmmn3TT2mvimvUAACg+gAAAAAAAAAAAAAAAAAAAAAAAAAAAAAAAAAAAAAAcOfYwayOqVYSmYjCfi48skkZ/JKE+a3Fn8kNpUs/kkwBzB8ZEmPEaU/KfZjMILqt591DLSS/pOOKSkv6zFHb3an8tigi/aXr81P6PrMxSP9PdW+r/ABmBSixtrK2d8eymyJjnn3fFWZob6/Emmk91ppP9FpCE/mAFebXZtBB7zcIn7V5PUvvBeBG6l8SOS8nvGX2KZYeQfxJX205stm5FN7yIhxqxo+pF6u0Tr/T+k/I8Quvy7zTTR/Z0PzFOwAHNmWVhYrNc+dLmK69esmQ68RH/AEUrUaUkXwIkkREXkREQ4QAAAAAAAPuiLKd/vcZ9z/EZcX/wUmPt7Nsf+wJv/wAlf/8AwYA4QD7riymv75Gfb/x2XEf8JJD4AAAAAObDsrCuWS4E6XDV169Y0h1kjP8ApJQokqI/gZKIyMvIyMh7et2bkULuolnGs2i8j9YaJp/p/Rfj+GXX5d51p0/t6n5inYACRVVs2gnd1uaT9U8roX38vHjdT+BFJZT3iL7VPMMoL4mr7KgR5MeW0l+K+zJYWXVDzDqHmlF/RcbUpJ/1GIajsa62sql3x62bIhueXe8JZkhzp8CdaV3mnU/0XULT+YAS/AUXotqfyGL+L9hevwk/p+s/FM/0d5bCv8VgVcgWMGzjplV8pmWwr4OMrJREfzStPkttZfNDiUrL5pIAcwAAAAAAAAAAAAAAAAAAAAAAAAAAAAAAAAAAAAAAR15RcrtDcNtT3e5uQmf1WC4bUNuNw0SXEyMgyu58FbsTGMMx9pXtLJsksDQZRq2uaWTDJPWNk9AqYc6wi3Kqbb7YU0VzuutkoV1VxlOyc5PSjCEU5Sk36JJs+NpJttJJbbfokSCly4sCLJnTpMeFChR3pcyZLebjRYkWM2p6RJkyHlIZYjsMoW6886tDbTaFLWpKUmZYvvaV+kl6c0A9kOoeFMSg39t2E7Pp7fak19yTpDCJzbZtG9QSq19t/bNrFkd5Jexptbhba0tSW8myAm5VOePJ2ofbmcief8261tgj1xoni04bsJGsaa26ZJseEiQlxmw27kFebftZDxtNSGsHrHU4hWLJlExOTWUGPfLsaD2Lw19nNdarzPECVljSnDjYT/Zw9GvvdsH+0kvfTVLy1pKdlicoKLyM9vcKOy7p2Nd3/YXu+r7/AAS9Sv8AyP5TcgeXOxJ20uRW08p2jmMtcgosm+mkmox+FJdJ5dPiGNQkRcdw+iS4ROIpMaq6utJ0jfVGVIccdXQAAHq1VVVFcKaa66aq4qNdVUI11wivSMIRSjGK9ySSI1tttttt+rb239WwAupcHext5zc8Dqsh11rVev8AUNgtlxW7dteu4hgkmCtTalSsTYXCk5LnxLaN4o8jDqO2pUzGVQ7S7qVn4icuvh56NLwf0IzU5Hv5695XbFik1Ifby3xsT1NBmpbbM/Z2uaKwck3LTbhvtuN5vk+T1c5o2XTooTzfQtZ5nxlwXCuVV2T95yo7TxMNRvtjJf0bZdUaaWtrcbbI2ae4wl6F+rFuu04x6Yv+lPsn8175L5pNfMwMNI8auQXJTIPdfQWmNk7eu0OIblR8CxG5yGPVk4RGl+8s4MRyroYfQyNc66mwIbZKSbj6e8nrfh48+i989NoNQrXdeUan42UsgmFyK26ul7L2Aw08RLNxrHMDXIxFamm/J2PN2NWykPKQypkjJ5TOfvheC4RrbHK/D9d4biuA4lUoNqqxbC8eqMWxysbPoRt19JRw4FZDQZJIjRGitp8i8vIh6oea8j9p3K3uUONxcbArfaNlm8vIXwac1CiO/VxdFmvTqetuQr4+uPeyUpv4L2Y/w239dr6GMHpb0VvhNhjcaXujbm8d227Jt+PErZmParw2WSfN0l01PX5FljXiKLok2dgI8Ns1JPvrNLqboesOxl7L3UiY3uxww0/cOxiR3ZGy6+23C844gi+/PFte2zJlTilF3zJLSGkqP7022kkpK5yA0/L8S8/nNvJ5fOkn6whfOip//s0Oqr/cMqNFMPw1QXzcU3+r2/4lK8K0VpHWyWka605qrAUMEkmE4Vr3EcWSySendJpNFUQCbJPQu73CT06F0FVAAQs5zsk5WTlOT9ZTk5Sf1cm2XUkvRJfTsAABSfSlea6K0jslLqNi6c1VnyHyUT6c117iOUpeJXXvE6m9qJ5OErqfe75K69T6iDez+xm7L3baZPvPww09TuySX3pGta6208824sj+/Mlqi2wxpLiVH3y7zSm1qL7624k1JVc4AZdHIZ+K08XNy8Zr0dGTdVr6eXOJTKEJfihGX9qKf96MYPdPorfCbM25MvTG3N46Ttnjc8CJZTce2phsQlebZIpriux3LHfDUZko3tgL8Rskp+oslOqstchvRe+emr2ptrpTKNT8k6WOT649bS3S9abAfaZLvkt3HM8XHxFCnW/71HhbGsZK3UrZSyZmyp7YQgNmwfHnibBaTzlmVr/os6qN6f1tj5eT/wCP8/Ux54WPP+h0P4wfT/DvH+Bp/t3caeQXGvIPdffumNk6huluLbix89xG5x6NaE2Rmp6js50RurvohkSjROpZs+G4SVG2+okq6UQG5GzTBcI2Tjlhh+xMNxXPsStkE1a4tmmPVGU45Ztl1Im7CkvIc+smIIlGRIkxXE+Z+XmYx9uYfo0vB/fbNtkegXr3ijsWUTshhvEvGyzU06aptwy9o65vbBuTTNOOEw223hGT4xVwWiedKimvOdD33ivtPwb3GrlsSzCk9J5GO3k4+/fKdelkVR+Cgsl/FmFZx8496pKa/dl7Mvyf4X+bia8IBdS5xdjbzm4Hna5DsXWq9gahr1vOJ3bqX13L8EjQUKcUmVljCIUbJcBJDRMlIkZjR1NKqY8mHV3dssvEVatHpGHm4fIUxyMLJpyqJellFkbIp630y6W3Ca/pQkozi+0kn2MCcJ1vpnFxfwa1+nxXzXYr/wAcOU3IHiNsSDtLjrtPKdXZjEXHKVJoZpKqMghRnTeRT5fjU1ErHcwolOGbi6TJau0rTdMn0xkyG23UZ7vY3duFSdoH7R0nvPH6HW/JXE8fbvGpdFIXHwbbFDDXHh2t3j0GwkvzscyKqkSIr97jDkuziLhSju6acmAxaVtHroxc27G73r+6WcVfc/1z2h75X/tP1PxOvup7iZX74+s+H5ep+7HtX1jxPvfd6dfrd0a14w4DjuU4rOyrqa683DxL8ijNilG2Lx65Wquya15lM1BwcbOpQUnOtRmkzIxbrK7YRTbhOUYuHqvaetpe5re01rfo+zNpyRkoiUkyNJkRkZGRkZGXUjIy8jIy8yMvIyH6I1YtnVjj6kRpBrn1RdE+qrX99jJ6+aobiv5BF16mws/BV5knwlKNwSEq7aBcxG5tdIRIZWRdeh9HGl9OptPtn9Zp1PzQoi6l0Uk1INKj5uJ47EAAAAAAAAAAAAAAAAAAAAAAAAAAAAAAAAAfhmSSNSjIkkRmZmZERERdTMzPyIiLzMz8iIdfaW0CmiOTbGQiOygj6dT6uOr6dSaZbL6zrqvkhJH0LqpRpQSlFHvKc6scgUuNHNcCqPqn1VC/vslPXyVMcT/LI+nUmEH4KfIleKpJOAComTbKhVxuQ6VLdhMSakLlKMzgsKIunVCkGRy1kfl0bUlkvj4q+hoFEbO1sbiSqVZSnZTxmfdNxX1GkmfXuMtJ6Nst+RfUbSlPXzMjPqZ9cAAAA9XRYZe33ccjxvVoauh+vTO8ywaT6H1ZLum7I6kZ902UKb6l3VOI+IA8oOdBrLGzc8KvhSZi+vQyjsrcSj87i0l3Gy/pLUlJfMxXym1nRV5IcsPEtpJdDPxurURKun82M2ozWXXr5PuupPyPuJMhUFlhiM2lmOy0w0guiGmW0NNpL7EoQSUpL9BEAI/12rb6USVznolag+nVC1nKkF1/3Ng/B8vmRyUmR+XT49PbQtVUbHQ5sudOWXxSSm4rJ/b9RtK3i/qkfD8/mKngAPMRcMxeGReFSwlmXzkoVMPr9pnLU95/P9PwHesQYUYiKNDixyL4ExHaaIv0E2hPQcoAAAAAAcV+DCkkZSYcWQR/En47TpH+knEK6jlAAPMSsMxeYR+LSwkGfzjIVDPr9pHEUz5/P9PxHl5uqqN/qcKXOgrP4JNTcpkvs+o4lDx/1yPh+fzFTwAEerHVt9FJS4L0SyQXXohCziyD6f7m+fg+fyIpKjM/Lp8Ovgp1ZY1jnhWEKTDX16EUhlbaV/nbWou44X9JClJPz6GJhD5PMMSW1MyGWn2ll0W082h1tRfYpCyUlRfpIwBDQBIq51nRWBLcr/EqZJ9TLwersRSun86M4ojQXXp5MOtJLzPuKMxSC9wy9oe+5Ijesw09T9eh955gkl1Pq8XdJ2P0Ii7xvIS31PupcX8QB5QdjWWtjTyUyq2U7FeIy7xoV9R1JH17jzSurbzfmf1HEqT18yIj6GXXAAK/4zsqFYm3Dukt18xRpQiUkzKC+oy6dVqWZnEWZ+XRxSmT+Pio6kgVQIyURKSZGkyIyMjIyMjLqRkZeRkZeZGXkZCGA93i2dWOPqRGkGufVF0T6qtf32Mnr5qhuK/kEXXqbCz8FXmSfCUo3ABJUB11XbQLmI3NrpCJDKyLr0Po40vp1Np9s/rNOp+aFEXUuikmpBpUfYgAAAAAAAAAAAAAAAAAAAAAAAAAAAALXPaldqNqHs09NnkV96jmm8c2hz42mtPNTfBmZDYMJNl3KMoXHUcql19QSVtqt7QkolWskkUNIarB96TX5OHh5PIZNOHh0zvyL5qFdcF3b9W23pRhFJynOTUIRTlJqKbVM5xhFzk0oxW23+n6t9kve+x6XtI+050F2bOqkZdsqX71bNymPMa1Tpajnx2crzmwjEaFz5bi0SCxnCqyQptN7l0+K9HjGZQKqJcXj8Ook63Xm5zo5Bc/dyWO49+ZOdhJQcqFhWEVCpMTBNaY2++l1vGsLpHpEkoUbo3HVZ2kt6Xe5BKYbn3tlPlIbW3SzkfyQ3Hyy3Bl2897ZjPzbYeYzDfnT5Rm1Aqq9pSyrMcxurQo4lDjNHHX6pT0sBDcWIwSlmTsp6TIeoaOhvCvhDD8PUxusUMnlLIavymtxqUl7VGKpJOFa9JWaVl3dy6YONcYPJyp3vS3GtPtH4/OWvV/Lul7viAAZI3ZOej97R5itY/vblH7x6W41vOw7PH8eKKqs2juiuNSX0O0UeeypWGYNPaIumYWcR2yuoriFYpVPQ5bWTQdg5TlsDhsWWZyF8aKo9or8Vls/dXTWvassfwitRW5zcYRlJWa6p2yUIR2/f8ABL4t+5f/AOLuWeOHXBHk9zv2EnXnHHW9jlT0VTa8nzKxNdLrrBYS/revZlmUllVZVd9sluwqlk5uR3JNPNUNLayG1MlnNdnr6O5xN4mM0Wf78j1vKXe0P1eeUzLKhBagw6yQbEhtGJa8nHKYvpddJQpLOTZwq0ekLbYsqvHsVlEplN73SGh9O8bdc0epNE67xnV+usdS57LxfFoJRIhSXyR63Z2Ml1b9jd3dgptDtpfXUywurV9JSLGfKf6uHVoeGeIfHvJ8u54+FKfG8e9x6Kp6yr4+m774tOKkvWmlxhpuM5XLTJejCrq1KerLPXb/AAxf9VP1+r+qSPm000w02ww22yyy2hpllpCW2mmm0khttttBEhtttBElCEkSUpIkpIiIiH0ABoZmgAAAAAAAAAAAAAAAAAAAAAAAAAfN1pp9pxh9tt5l5tbTzLqEuNOtOJNDjbjayNDjbiDNK0KI0qSZpURkZkMeztCvR3OJvLNm9z/Qcet4tb2mesTzmYnUIPUGY2SzfkOIy3XkE4rFDLsZK0peybB1Vb0dbj9laY9lUo0sqyFwEhx3KchxN6yePyrca1a6uh7hYk9qFtUt12w/q2RlH3pJ9yiyuFsemcVJfP1XzT9U/mmjWjZf6PT2oeH5grF3tP4XdVXrJsM59Tbe14jDpTJLNJTo7V5d0uZKjGn76bK8QbsEIMidgtuH4YyL+yc7IWq4Dqt9tbSyOk2DyHyuh93ikUMZ5zD9a49KdYlWlPik2ziRLO3ubl+NGbusokQakzgR00tXXRob1tLvMn+dAh2UZyJPjNSozv8ALadT3k9S+Ckn5KQtPxQ4g0rQfmlRH5igmW69lU5OT6rxZtaRqW41070qEn49Vkkvv7CS/wBuSkloL++o7qTdVsPLeOed5jDlg3yxqKLEo3/dKZ1zyIpp9Nk7LbWotpOUavLU1uMk4NxdirDpqn1xUpSXePU01H6JJfk3tr19e5TUdzR31hj81MyA73TPol+OvqbEpoj6+G8gjLqXmfcWRk42ZmpCkmZ9emAacZRKzG8nr8lieNFV4UloklLhOKI3o6j+CiPoXisKPr4bySIj/kqJDhKQXpBD6ts5tRMZnwHlMSGVdUqLzStJ9O+06j4ONOEXRaFeRl5l0URGUmMWymHk0LxW+6zOYSkpsM1dVNKPyJ1rr5rjuGRmhfxSf3tf1i6qA9SAAAAAAAAAAAAAAAAAAAAAAAAAA83kmT1+NRPGlK8WS6SiiQm1ET0hRfFRn0PwmEn08R5RGRfyUktw0oOFHPHtKOLPZ34dW5BvzMn28oydiW7g2sMUhJyDYeYphqJuVMrqMpUKNApojqvCfvsis6KhOURVzdodg43HOwdjHpMvEfOM2KJsHWO9cEpbKWTCMzlVuKZLBq2DUfhyLmjockduocBlvr3msfiZLMQo0pahv95x1M1heHec5HHeXhcZlZGOt6thBKM+nal5Sk4yu004vylPUk4/iTRanfTCXTOyMZfBv0+uvT89GRreX1hkE1Uye73jLvJYjo6kxFaM+vhsoMz6F5F31mZuOGRKWpRkXTph43XuwsH2xhWNbH1tlNNmuC5hVsXONZRj8xufVW1c+akk9HfbPql1l5t2LNiPpamV85iTAnR482M+w37IQ8oyhKUJxlCcJOM4STjKMotqUZRaTjKLTTTSaaaa2XU01tPafdNejXxA7mmoLS/ker1sZTvd/vr6+qIzCfwnnjLup6/FKC7zq+h+GhRkZD2OJa9lXBNz7XxYVaZpW2107sqan49UEovvDCi/25STWsv70juqJ1Ne4MCHWxm4kCM1FjNde400nup6n8VKPzUtavitxZqWs/NSjPzFIPEY7ruoqCbkTyTaz09Fd95H+pGVF0MvBjK6ktSTLydf76jMiUhDR+QqERERdCLoReREXwIvsAAAAAAAAAAAAAAAAAAAAAAAAAAAAADIjIyMupH5GR/Ay+wwAAU9yLXdRbk5IgEmqnq6q77KP9SPKPqZ+NGT0JClGfm6x3FEZmpaHT8hQq5oLSgker2UZTXe/vT6Oq4z6fwmXiLuq6fFSD7rqOpeIhJmRCW44k6BDsozkSfGalRnf5bTqe8nqXwUk/JSFp+KHEGlaD80qI/MAQ6AVKy3XsqnJyfVeLNrSNS3GunelQk/Hqskl9/YSX+3JSS0F/fUd1JuqpqAO5o76wx+amZAd7pn0S/HX1NiU0R9fDeQRl1LzPuLIycbMzUhSTM+sk8byevyWJ40VXhSWiSUuE4ojejqP4KI+heKwo+vhvJIiP8AkqJDhKQUUxz62zm1ExmfAeUxIZV1SovNK0n077TqPg404RdFoV5GXmXRREZATBAeWxbKYeTQvFb7rM5hKSmwzV1U0o/InWuvmuO4ZGaF/FJ/e1/WLqr1IAAAAAAAAAAAAAAAAAAAAAKY7o3Frzj7qnPt1bYyGLi2u9a41YZTlV3KMjKNXwGyNMaIx3kuTrazlrj1VLVx+9Mt7ibBrITbsuWw0uqEJ2ThXXGU7LJRhCEU5SnOTUYxjFbcpSk0kktttJBtJNt6S7tv0S+LIw9odz41H2d/HfId2bKlMWeQSEyKPVOt2JiI99s3PHY6nIFFXl3XXIdPASabPLMhWy5FoaRl10kS7aXT1Npq+uT/ACb3DzA3Xmm/N55RIyjPM0nqecP74zT47TMLcTTYjitYp11ulxbHoiyhVNa0taiQTs2fInWs2wsJcie0t7QXY/aNclcg3PlqZ1BgtUl/GtN61cnLkwdf4DHkqciR3EIWcN/KsgcJNzmdywgjsrdxESOpukqaSDBt7jonwb4Vr8P4avyIxnyuXXF5E+0vu1b1JYlUltai0ndOL1bYl3cIVkFlZLvlqPauLfSvTqf7z+vuT9F82wPvFiyZ0mPChR35kyY+zFiRIrLkiTKkyHEtMR47DSVuvvvurQ0yy0hTjjikoQlSlER/Nppx5xtlltbrzq0NNNNIU44644okobbQkjUta1GSUISRqUoyIiMzIhnk9hP2IMDj5VYnzL5cYszN39bRYt9p7Vd7ES9H0hWym0v1+X5PAkIUhzbk5haJNZBfQotbRXG3FpLOXXE4lMeIOfwvD2DLLyn12z6oYuLFpW5NqW+mPZ9Fcdp22tONcWtKU5QhO1TTO+fTHsl3lJ+kV8X8W/cvVv4JNqk3Yz+j5RMJPEuVXPfFI9jmSUwsh1jxrv4jUmsxJw+5Krcn3HXSELZs8oa+9SK3XcpC67HV9HMwZnXveosey/QAc5czzWfzuZLMz7euXeNNMNxox629qqmDb6Y+nVJtzsa6rJSl3J2qmFMVGC18W/xSfxb/AOUvRJIAACJLoAAAAAAAAAAAAAAAAAAAAAAAAAAAAAAAAAAAAFIMz16mR41rQNEl/wCs5KrWyIkPn5mp2GkuhIePzNUcvqun5sklz6jtDzI0maVEaVJMyUkyMjIyPoZGR+ZGR+RkfmRiZ4pXneDpsUPXNQ0SbFBG5MioLoU5KS6qdaSXkUxJF1URf65Ij/2/p4oFAx2FXaTKacxYQXTafYV1+ZodbPp32Xk9SJbTifqrSfn8FJNK0pUngGRkZkZGRkfQyPyMjL4kZfIyH4AJZ47fw8irm50UyS4XREuMaurkWQRdVNq+Bmg/5TTnQicbMj6EoloT3oijjOQycbs25rXecjr6NTYpK6JkRzPzLp17pPNGffYWf8lfVJn4a3EqlJCmR7CJHmxHCdjSWkutOJ+aVF8DL+atJ9ULQf1kLSpCiJRGQA5QAAAAAAAAAAAAAAAAAAIJ9odz41H2d/HfId2bKlMWeQSEyKPVOt2JiI99s3PHY6nIFFXl3XXIdPASabPLMhWy5FoaRl10kS7aXT1NpJ7dG4tecfdU59urbGQxcW13rXGrDKcqu5RkZRq+A2RpjRGO8lydbWctceqpauP3plvcTYNZCbdly2Gl6uXtLe0F2P2jXJXINz5amdQYLVJfxrTetXJy5MHX+Ax5KnIkdxCFnDfyrIHCTc5ncsII7K3cREjqbpKmkgwdx8HeF5+Ic1zvU4cZiSjLKsXZ3T7ShiVy9VOxd7JR71Vd9xnOreLlZCohqOnZLfSvgvfJ/Je5e9/JMjtyf5N7h5gbrzTfm88okZRnmaT1POH98Zp8dpmFuJpsRxWsU663S4tj0RZQqmtaWtRIJ2bPkTrWbYWEugAD+2mnHnG2WW1uvOrQ0000hTjjrjiiShttCSNS1rUZJQhJGpSjIiIzMiHRdVVVFVdNMIVU1QjXXXCKjCuuCUYwjFaUYxikkl2SRBNtttttt7bfq2ZZnoym8cwnS+RXHKynTLHDamsxva+IwnnXnmcduJlm7jGWR4CFLWhhnIkv45MXFaS22UypkykIN+dKWvNCwzXqY/g2t+0Sn/quRa1wiNDB+RpdmJPqS3i8jTHP6rR+bxKc+o1Yr9Hu7MDLuF+ksl3nvio9jbv5CMY1YQ8HmtLTZ6z11StT5eO1eQNOdCh5lkMq4k3l7U91TlDFax+sn+r38K1gwMjMc1+M8rDzPEnJX4MoToc6oOyvXl23VUV132Qa7STtjJda7WNOxNqfU57EjONFanvem0n6qLbaT/L3P09PdoAADVzJAAAAAAAAAAAAAAAAAAAAAAAAAAAAAAAAAAAAACkGZ69TI8a1oGiS/wDWclVrZESHz8zU7DSXQkPH5mqOX1XT82SS59R2r4ACGBkaTNKiNKkmZKSZGRkZH0MjI/MjI/IyPzIx+Cvmd4OmxQ9c1DRJsUEbkyKguhTkpLqp1pJeRTEkXVRF/rkiP/b+ni0EMjIzIyMjI+hkfkZGXxIy+RkAOfV2kymnMWEF02n2FdfmaHWz6d9l5PUiW04n6q0n5/BSTStKVJlHjt/DyKubnRTJLhdES4xq6uRZBF1U2r4GaD/lNOdCJxsyPoSiWhMTB6LGchk43ZtzWu85HX0amxSV0TIjmfmXTr3SeaM++ws/5K+qTPw1uJUBK4BxYUyPYRI82I4TsaS0l1pxPzSovgZfzVpPqhaD+shaVIURKIyHKAAAAAAAAAAAAAAAABgH+kcdp+fInby+Femcibk6R0VkS3dm3lJPfVC2VuWvQuJNqHltqQxOxrVbypdNFa7q407NV31kZzY9PjM9vJP7cftFC4C8QrRrBb1FdyJ3uVtr3TKYsgm7fGWfUmyzXacZBtuEksCrLCE3UvK8kZlf4qpbEmE3YJb1mr770l56TJedkSJDrj8iQ+4t15951ZuOvPOuGpx111alLccWpS1rUalGZmZj1n7N/Diuslz+XXuumUquOhJdpXL2bsrT7NVbdVL7rzXZLSnVCRGZ9+l5EH3fexr3J94x/P1l8te5tHyABez7ELswpnaF8jiv9g10lrjJo2ZT5HtiY4zKZj51bOvnJx3UdXOaJsjkZGcV2dlb0Z9D9Rh8WYRPwrW7x5x/1rkc/G4vCyM/Ln5ePjVuc36yk9pQrgu3VZZNxrrjtbnJLaXcjYQlZOMILcpPS/xb+CS7t/Aux+jxdjrCydGKdoNycxxMmlizSteMus7yEs2LWZAd6R92ZLAlNE3IrIctCvoygPJcRNnRl5utpMSLicuwzWhwaysraWtr6amr4NTUVMGJWVVVWRGIFbWVsBhuLBr6+DFbaiwoMKK01GiRIzTbEdhttlltDaEpLnDmXneby+e5C3OypNJtwx6FLcMbHTbhVD0TffqsnpOyxym0tpLYKaY0wUI+vrKXvlL3v/gvcgAAIYugAAAAAAAAAAAAAAAAAAAAAAAAAAAAAAAAAAAAAAAAAAAFFNiYalsnshq2+iTPv2kVtPkkz+M5pJF0JJn/AK6SXkRn4/Tobyio0JnKSlaVIWlK0LSaVoURKSpKiMlJUkyMlJURmRkZGRkZkZdBGnOcXPHbLxYyT9lz1LciGRGZR1kfVyGtR9fNvr3mTM+q2TLzUttwyA8OKpa3yj2dM9iTXSKDOc6xXHFH3Y01XkTZdfJLUs+iDL4JfJtRdCcdUdLR+kZkZGRmRkZGRkfQyMvMjIy8yMj8yMvgAJngPF4NkfvBTo8dwlWMHuR5pGf13PI/BlGXQvKQhJ98y8vGQ6RESe719oAAAAAAAAAAAAAALL3bj9ooXAXiFaNYLeoruRO9ytte6ZTFkE3b4yz6k2Wa7TjINtwklgVZYQm6l5XkjMr/ABVS2JMJuwS3mcfg5HJ5uNgYseu/KtjVBd+mO+8pzaT1XXBSsslp9MIyfuKLJxrhKcnqMVt/H5JfNvSXzZjYekcdp+fInby+Femcibk6R0VkS3dm3lJPfVC2VuWvQuJNqHltqQxOxrVbypdNFa7q407NV31kZzY9PjM9vF/H1ffekvPSZLzsiRIdcfkSH3FuvPvOrNx1551w1OOuurUpbji1KWtajUozMzMfIdQ8PxWNwvH4/HYq/Z0Q9uxpKd10u9t9nxnZPb1tqEemuOoQilr1tkrZynL1b9Pcl7kvkv8A/vqwMxb0eLsdYWToxTtBuTmOJk0sWaVrxl1neQlmxazIDvSPuzJYEpom5FZDloV9GUB5LiJs6MvN1tJiRcTl2FpzsQuzCmdoXyOK/wBg10lrjJo2ZT5HtiY4zKZj51bOvnJx3UdXOaJsjkZGcV2dlb0Z9D9Rh8WYRPwrW7x5x/ZX1lZW0tbX01NXwamoqYMSsqqqsiMQK2srYDDcWDX18GK21FhQYUVpqNEiRmm2I7DbbLLaG0JSXn32g+KpYkJcFx9rjk3QT5C6D1KiiyO440Wu6tvg1KxppwpcYrbtbhm4WN1vzrF7KfsJ/wBKSf4n8Uvd8X9O/OAAHiZLgAAAAAAAAAAAAAAAAAAAAAAAAAAAAAAAAAAAAAAAAAAAAUU2JhqWyeyGrb6JM+/aRW0+STP4zmkkXQkmf+ukl5EZ+P06G8oq1j+VJStKkLSlaFpNK0KIlJUlRGSkqSZGSkqIzIyMjIyMyMugAhiA9xnOLnjtl4sZJ+y56luRDIjMo6yPq5DWo+vm317zJmfVbJl5qW24ZeHAFUtb5R7OmexJrpFBnOdYrjij7saaryJsuvklqWfRBl8Evk2ouhOOqOvwhgRmRkZGZGRkZGR9DIy8yMjLzIyPzIy+Ak3g2R+8FOjx3CVYwe5HmkZ/Xc8j8GUZdC8pCEn3zLy8ZDpERJ7vUD2gAAAAAAAAAAA40yZErokqwsJUaDAgxn5k2bMfajRIcSM0p+TKlSX1IZjxo7KFvPvvLQ000hTjikoSZlyRYJ9Io5sPcVuC9nrHErZddtTldMtNUUK4r6mLCs11HhR5W3cgYU2604TaqGwrMHUtszdYfzyNLbLrFUpOfxmBdynIYnH0L9rl3wqT1tQi3uy2SX9GqtTtn/VgyiyarhKyXpFN/Db9y+rekvmzDC7XfnXP5+c1NibSrbGS9qXDnnNZ6OrVrdRGY11jE6YiPkBRFOuNs2GdWz1lmE9XdKQ01awal5bjNRFJFsIAHVGFiUYGJj4WNHooxaYU1R9/TCKW5P3zk9ynJ95Sbk+7Zrk5SnKU5PcpNtv5v+5e5L3LsVL01qLPd+bW19pbV9K7kOwNnZXTYbilS2ZoRItrqW3FZemyCQtEGrgoW5YW9m+RRauqizLGWtuLFeWnaxcDeG+veB3GDW/HLXqG5KMYr/ambZObfcmZ1si6aYkZnmU01JS6RWdk2UaniPG4qmxqBR0LbrkeqZUeMt6LjwFQzCzTtCNiU3V+Wu81Vx4RNZP73EYUqu2lsOAo1mhRypJOa3qJSCQ6yUHYEN5Cm5UdwZlg8T+0bxA87PXDY8/9E46e8jpfa7Oa1JP3NYsW6kuzVsr096i1LYFHRDzZL2pr2flD/wC59/ol8wAAPNCQAAAAAAAAAAAAAAAAAAAAAAAAAAAAAAAAAAAAAAAAAAAAAAAADp76mjX1XJrZJdCdT3mXf5zElBGbLyfn9RXksi/ltqW2fksx3AACHM2HIr5ciDKQbciK8tl1HyJaDMjNJ9C7yFF0UhReS0GlReRkOKK17ToCNDGQx0eaTbiWPdL4pM+7FkK8/wCarpGWfQzPvxyLySYooAPU4ffKx+7jylqMob5lFnJ6n0OO6pP33p1IjVHWSXkn8eiVoLoSzEpiMlESkmSkqIjSojIyMjLqRkZeRkZeZGXkZCGAklrq7O2okRnl96XUqTEcMz6qXH7pnEcPqZn/AHtKmOp+ZqYUo/iAPfAAAAAAAAAAA40yZErokqwsJUaDAgxn5k2bMfajRIcSM0p+TKlSX1IZjxo7KFvPvvLQ000hTjikoSZlq1e1351z+fnNTYm0q2xkvalw55zWejq1a3URmNdYxOmIj5AURTrjbNhnVs9ZZhPV3SkNNWsGpeW4zURSRme+kUc2HuK3Bez1jiVsuu2pyumWmqKFcV9TFhWa6jwo8rbuQMKbdacJtVDYVmDqW2ZusP55Gltl1iqUnXCj2X7MuEUKsjnb4e1a54mD1L0ri195uj7vbsSojJacfLuj6TZFchdtxpi+y1Kevi/wxf0Xta9HuL9UBUvTWos935tbX2ltX0ruQ7A2dldNhuKVLZmhEi2upbcVl6bIJC0QauChblhb2b5FFq6qLMsZa24sV5aaaDNE9Fx4CoZhZp2hGxKbq/LXeaq48Imsn97iMKVXbS2HAUazQo5UknNb1EpBIdZKDsCG8hTcqO4PQPEPM18FxOTyE+mVkIqvGqk+12VZtUw7NNxTTss001VXY13SMKip3WxgvR95P4RXq/8ABfNoyaeBvDfXvA7jBrfjlr1DclGMV/tTNsnNvuTM62RdNMSMzzKaakpdIrOybKNTxHjcVTY1Ao6Ft1yPVMqOYYAOX777sq+3JyLJW332Tttsm9ynZZJynJ/NybfbsvRJI2GMVFKMVpRSSS9yXZIAAC0fQAAAAAAAAAAAAAAAAAAAAAAAAAAAAAAAAAAAAAAAAAAAAAAAOnvqaNfVcmtkl0J1PeZd/nMSUEZsvJ+f1FeSyL+W2pbZ+SzEUZsORXy5EGUg25EV5bLqPkS0GZGaT6F3kKLopCi8loNKi8jITGFGtp0BGhjIY6PNJtxLHul8UmfdiyFef81XSMs+hmffjkXkkwBRQepw++Vj93HlLUZQ3zKLOT1Pocd1SfvvTqRGqOskvJP49ErQXQlmPLAAJnkZKIlJMlJURGlRGRkZGXUjIy8jIy8yMvIyH6PA66uztqJEZ5fel1KkxHDM+qlx+6ZxHD6mZ/3tKmOp+ZqYUo/iPfAAAAAAAAADWkekBcunOU/aI7Jo6WzKdrjje39A2FIYeQ5DftsXmSH9l3KEs95hcibsKVeVCJrbr3rtHjtAs3EpbQyzsCedHI2JxI4gch+RchxlEzV+scguMZbkIacjTM7sWkY/ruskoePwzj22d2+O1j/eS70alrUTD6iJlzUlWVlPuLGfb2syRY2lrNlWVlYTHVvy50+c+5KmTJT7hqcekSZDrjz7qzNbjq1LUZmZmPWPsu4tWZOdy9kdrHgsPGbW0rbkrL5xfulCpVw7f0b5J698byNjUYVJ/i3OX0XaK+je39Yo4QrNx20bmfJfemqNA6+YJ7L9tZzQYTTuLbU7GrjuJzbM68sEpW2oqrHq0pl7buEtHg1ldLe7xdzqKMjLN9FZ4kozPd25OZOSV5O1GmKFOq9bPvtmba9h7CgqkZdbQXSbMkzcZwBtNLJQp5JKh7JJXhOmklseoc/ykeG4jO5F6c6KWqIv0nkWNVY8WvevNnFz1vUFJ67EdRX5tsIe5v2vlFd5fTsv1M0nQ2l8I46aY1horXEAq7CNUYTQYRjzKko9Zfh0UBmIuzsXEEXrNvcykSLe5nL6vT7adNmvqW9IcWqrQAOWrJztnOyyUp2WTlOc5Pcpzm3KUpN93KUm22/Vts2JJJJLsktJfBIAACg+gAAAAAAAAAAAAAAAAAAAAAAAAAAAAAAAAAAAAAAAAAAAAAAAAAABxJ8JixhSoElPeYlsOMOF8yS4k095J/JaDMloUXmlaUqLzIRHsoD1ZPl18guj0N9xhZ9OhK7ijJLiS6n9RxHdcR5n1SojEwxQra1R4M2FdNJ6ImN+qSTL/siOnvMrV5eanY/VBeZ9Exi8i+YFJB7jXtwdVkcZta+7Gsy9QeIz+qS3TI4q/s6lIJDfeMy7qHXD6/I/Dj+kLU2tK0KNK0KStCkn0UlSTI0qIy+BkZEZH8jIATOAdVRWSbenrrIunWVFbW4RdCJL6S8OQgunyQ+hxBfDyT8C+A7UAAAAAABFHnRyNicSOIHIfkXIcZRM1frHILjGW5CGnI0zO7FpGP67rJKHj8M49tndvjtY/wB5LvRqWtRMPqImXLtFNmTfTj1R6rb7a6ao/vWWzUIR9/rKSR8bUU5P0im39Ets1+3pAXLpzlP2iOyaOlsyna443t/QNhSGHkOQ37bF5kh/ZdyhLPeYXIm7ClXlQia26967R47QLNxKW0Ms2RhzbKyn3FjPt7WZIsbS1myrKysJjq35c6fOfclTJkp9w1OPSJMh1x591Zmtx1alqMzMzHCHV3G4NXGYGHgUpeXiY9dKaWuuUIpTsa/etn1WT+MpN+81uybsnKcvWTbfy36L6Jdl8kVm47aNzPkvvTVGgdfME9l+2s5oMJp3FtqdjVx3E5tmdeWCUrbUVVj1aUy9t3CWjwayulvd4u51G2w0NpfCOOmmNYaK1xAKuwjVGE0GEY8ypKPWX4dFAZiLs7FxBF6zb3MpEi3uZy+r0+2nTZr6lvSHFqwtvRWeJKMz3duTmTkleTtRpihTqvWz77Zm2vYewoKpGXW0F0mzJM3GcAbTSyUKeSSoeySV4TppJbGdGPFvtL5d5fKVcVVL9hxsFO1J9pZeRGM3vXZ+VQ64xb7xlO6Pbb3LcfV01uxr2rHpf2Y9l+r2/mtAAAeameAAAAAAAAAAAAAAAAAAAAAAAAAAAAAAAAAAAAAAAAAAAAAAAAAAAAcSfCYsYUqBJT3mJbDjDhfMkuJNPeSfyWgzJaFF5pWlKi8yHLAAQ8soD1ZPl18guj0N9xhZ9OhK7ijJLiS6n9RxHdcR5n1SojHCFW9rVHgzYV00noiY36pJMv8AsiOnvMrV5eanY/VBeZ9Exi8i+dJAB7jXtwdVkcZta+7Gsy9QeIz+qS3TI4q/s6lIJDfeMy7qHXD6/I5MCGKFqbWlaFGlaFJWhST6KSpJkaVEZfAyMiMj+RkJc0Vkm3p66yLp1lRW1uEXQiS+kvDkILp8kPocQXw8k/AvgAO1AAAAAAAYrvpVnIReFcVdG8c6ualmy3ntKdl+QsNPdXX8J0/WxX1QpbCVdURp2Z5liVjFdeT3Xn8bfSx31MPm1gYjIp9Jz3YvZHaPFrSNKJdVx+03gOEuRG3PEZbyXMGpu0ricou8okS5FPmeLV8hKe6RN08ZKkE6lxSsdYdJ+B8FYPhnjk1qeVCWdY/TqeVJzqf/APHVMfn07IDMn15Fnwi+hf6vZ/722BtG+xU4zo4s9m7xyw6bA9Qy7P8AGC3dnpLSTcpzJtsJZyeJGntkRE3OoMQfxXE5DZ9VIVj5JWpSyUZ63rhro17ktyv47aEQ245F2ruDBMRult9/vxMXsMghHltj97++d2rxhu3sVmjookRVGRpPzLbpxYsaFGjwoUdiJDiMNRYkSK03HjRY0dtLTEeOw0lDTLDLSENtNNoS222lKEJSlJEWo/anyDjTxnFwl/Ozszb1vXs1LycdP4qUrL20+264vu/TK46vcrLH7koL6vvL80kvybPuAAPGiVAAAAAAAAAAAAAAAAAAAAAAAAAAAAAAAAAAAAAAAAAAAAAAAAAAAAAAAA8rmtZ7VxuyYSnvPMNeux+nmrxYnV0ySXzU40TrJF/un2j1Q/DIjIyMiMjIyMjLqRkfkZGR+RkZeRkfxAEMAHaXcA6y3sq/p0TFmPtN9fmyThmyrz8/rNGhX9Y6sAV81TYm/Uzq1auqoEonWyM/MmJiTUREX2E+y8ozL4G4XX4l1qoI7avnerZGcUz+pYwn2SLr5G6wSZSFfpJtl5Jf45iRIAAAAAMV30qzkIvCuKujeOdXNSzZbz2lOy/IWGnurr+E6frYr6oUthKuqI07M8yxKxiuvJ7rz+NvpY76mHzayohruPSc92L2R2jxa0jSiXVcftN4DhLkRtzxGW8lzBqbtK4nKLvKJEuRT5ni1fISnukTdPGSpBOpcUrc/AOCs3xNhuS3DChdnTXzpioUv5dORbTL8te8xM2fRjy16zagvz7v/dTRjrAAktw10a9yW5X8dtCIbcci7V3BgmI3S2+/34mL2GQQjy2x+9/fO7V4w3b2KzR0USIqjI0n5l0TddDHptvtfTXTVZdZL4Qri5zf5Ri2QaTk0l3baSXzb0jZC9ipxnRxZ7N3jlh02B6hl2f4wW7s9JaSblOZNthLOTxI09siIm51BiD+K4nIbPqpCsfJK1KWSjO6qPhFixoUaPChR2IkOIw1FiRIrTceNFjR20tMR47DSUNMsMtIQ2002hLbbaUoQlKUkRfccm52XZnZmVm2/wA5lZF2RPvvUrbJTcU/hHq6Y/BJI2WEVCEYL0jFRXz0tb+r9X8wAAMUqAAAAAAAAAAAAAAAAAAAAAAAAAAAAAAAAAAAAAAAAAAAAAAAAAAAAAAAPK5rWe1cbsmEp7zzDXrsfp5q8WJ1dMkl81ONE6yRf7p9oiyJnmRGRkZEZGRkZGXUjI/IyMj8jIy8jI/iIiXcA6y3sq/p0TFmPtN9fmyThmyrz8/rNGhX9YA6sV81TYm/Uzq1auqoEonWyM/MmJiTUREX2E+y8ozL4G4XX4l1oGKj6vnerZGcUz+pYwn2SLr5G6wSZSFfpJtl5Jf45gCRIAAAAA8hsLLYuAYDnGdzUoVCwrEMly2WlwzShUXHKWbcSErURkaUG1CWSjIyMi6mRj7GLlKMYrcpNRS+Lb0l+bY9DVL9pJtNW6uffMLZKZJy4N9yF2fFopJr75u4tjeUT8VxJRq8yLpjNJUpJCTUhsi8NClISlRwmHNsrCZb2M+1sX1ybCzmyrCdJcPq5ImTX3JMl9Z/Nbrzq3FH81KMcIdcYtEcXGx8aGujHopojrsumquNcdL4aijWJNylKT9ZNt/VvbMg/wBGb1AnZHaZ0uayYqH4WidObN2Sl15BLYbtbmLW6orWyJRGg5fh7HnTohGXfQdc7JaNLkZKk7GEYXvokuumlzua+2pLH36NF0vrqlk934NTntgZLk7HfP4dV1+Iud1J+fTqv4IGaEOfvtEyXkeJ8mve44ePiY0fgt1LJkl9J5Ek/nte4m8GPTjxf70pS/j0/wB0UAABo5mAAAAAAAAAAAAAAAAAAAAAAAAAAAAAAAAAAAAAAAAAAAAAAAAAAAAAAAAAAARy2dD9WyZb5F0TPhRZJmXwNbZLiK/r6RkGf294j+JingrRtyN50ksi+JTYyz/R6u60X+d4xRcAd5jMs4WQ00nr0JFjFSs/saedSy9/3pxf6RLQQxQpSFpWk+ikKSpJl8SUkyMj/qMiMTIjuk+ww+n+S8y26XT4dHEJWXT+pQA+wAAADU0dpJtNW6uffMLZKZJy4N9yF2fFopJr75u4tjeUT8VxJRq8yLpjNJUpJCTUhsi8NClISlR7WjYWWxcAwHOM7mpQqFhWIZLlstLhmlCouOUs24kJWojI0oNqEslGRkZF1MjGnLsrCZb2M+1sX1ybCzmyrCdJcPq5ImTX3JMl9Z/Nbrzq3FH81KMetfZVjKWRzGW13rpxMaL+V07rbEn8vIr39URnJS7VR9zc5P8AJRS/8zOEMg/0ZvUCdkdpnS5rJiofhaJ05s3ZKXXkEthu1uYtbqitbIlEaDl+HsedOiEZd9B1zslo0uRkqTj4DMu9El100udzX21JY+/Roul9dUsnu/Bqc9sDJcnY75/DquvxFzupPz6dV/BA37xnkvE8McvYnqVmPHGXxf3u2vGkl/qWyb+SbMLEj1ZFS+Eur/ZTkv4pGaEAAOZzYAAAAAAAAAAAAAAAAAAAAAAAAAAAAAAAAAAAAAAAAAAAAAAAAAAAAAAAAAAAAjls6H6tky3yLomfCiyTMvga2yXEV/X0jIM/t7xH8TEjRRfbkbzpJZF8Smxln+j1d1ov87xgCi47zGZZwshppPXoSLGKlZ/Y086ll7/vTi/0jox/SFKQtK0n0UhSVJMviSkmRkf9RkRgCZwD4x3SfYYfT/JeZbdLp8OjiErLp/UofYABDTtF8lPD+APNnI23DakVnFLf64LhH3TTZSNW5RDrD73xLrYSIxdS8/Py8+gmWLa/bETl13Zg82ZCFGlTmi8lgmZH0PuWj0GscT+hTctSTL5kZkM7i4Kzk+OrfpPOxIP6SyK4v+8oseq7H8ISf6RbNVuAAOsjWjPw9FMxNut4K7wzBbZIl5TymyGqJfTzdrMW1ZqtcRRq+ZJsL+4QSfMkmlR9eqjIsoAY8foxVeiH2ZEeShJEq25AbZsHDL+ctuLiNUSj+0ybrW0+fySRfAZDg5h8W2OzxLzMn31nW1/lV01L9FBI2HGWsepf1E/17/4gAAa6XwAAAAAAAAAAAAAAAAAAAAAC1Hs3e3LnkLy623xM4eZlq7ReJcZ8W1zY8gOQextc2G4b9zYW2qZ7LcL1nrPXacrwrHJCYOEtMZBl2RXt9JVFetq6tjV8N1rxLT02id58oNV8qa3hnzDyLWm1p2ytVZVtvj5yE1nhNhqxGaxtc3GPU+y9d7A1pNyjModLmdAzllDk1Ta4zev0Fljkl5qS2xax1NriPqDlRrTjZzj7VGPltdsHOM62DyO0PA15qXT2BX+0NsZ0qh4pa1k30qhw/HI78luhxqLNhO5DlF3JqMWoSsK1i0uYkm0rmJU3tA8rOLPL3eqat/WOwtY8s+O2K39vVa75I6ostYbtwzXezHaqiyPKMQi2Ts6Db4Vlcmko6u5tcYurWH40WlRZFGKXVLlbTlY9lFDh/JkZ8fHi8S37zXjV/eY5WRgY9/3x5bj94lSs67yrIubxYUt0qHmqLMaMlJp+ZqbskulyfT0qbXR0/hUuhbXbq6u7emULwrZnPbnNbbO2Pxt3fprinxswzaWwtT6os8l0RJ3/ALH3ZM1PlFngmZ7AulWGysCxzC8Gss1o7qrxKtq4thkbsCqkzbdyO5IioL0WjeY3IPI1bp43bkrtYY/y44/b10pqXK8vxKmyGx1TmGu97NMZJrrdGO4fY5BX3sCVkGHQsnrZmJP5XKh0Ob0rrrtjMrUu0LU49G6Y1bw/0dG1riVrNqNZYHL2ZnEu8zm9hPO1jeb51l+2s0tLu+cj1cGPVwbvK72Sh99qOxW07TDUh5aYq5C7afCLCG+YeyebfOVTuW4RrXkns/RmPcXchgR4NTlcrXXD6BaVGNbuqIeR1FzXqq9k59d5bY0cDKsemxrPDosZizpHq2zJUy3G3DyK+Sn91or47DePHj7vu1dd/myzKK6oX2xTtyrL8GOXkX1XTuipVSlWoRioS+6nF1+1J2T27F1Nx10ttqPdRUZ9MU1r8XdvfafupN4ZjsK3wXE34mNvXcIt0O7et66vsY9bGhat2fk2lcZeoqt29mysZl7Sy7HrjK6KPbT8ojwMdwfNceXJnWRQb1iVwsjz4FnheI7L2bhWaZ3VsWHHHl3yK1jaQsqn1U7InNOXuDO6izTJpGMro4Gc49mV9lex97uYXb1y8BmTOQt9BssQdiR6KLU3uBF8hjwplXOvShZK6Kj09Moyrs3NS7tPplZ5cXHt01pbfq7lcm9p92ul79V3XbX11t/NgAARxcAAAAAAAAAAAAAAAAAAAAAAKX7Xa71DBe6ebVq0nr9iXYsvr/8AWQgR/EjdnpJWLqP8CfEUX6T8VH+8oxHIABLfHXfGx+kdPzNdTXmr5/W9VaJXn/jEYiQJWYeo1YvRmfyr2U/1I6pL+wk9AB6QAAAQ07RfJTw/gDzZyNtw2pFZxS3+uC4R9002UjVuUQ6w+98S62EiMXUvPz8vPoNS0NqR2xE5dd2YPNmQhRpU5ovJYJmR9D7lo9BrHE/oU3LUky+ZGZDVbj277LIJcZydnvlnVwf0hjwkv/7GRHIv9pWvhBv9ZNf4AZ+HopmJt1vBXeGYLbJEvKeU2Q1RL6ebtZi2rNVriKNXzJNhf3CCT5kk0qPr1UZFgHjYqejFV6IfZkR5KEkSrbkBtmwcMv5y24uI1RKP7TJutbT5/JJF8BKfaRY4eGpxX/S52JW/ml5lv99af5FvAW8jfwhJ/wBy/wATIcAAHPpNgAAAAAAAAAAAAAAAAAAAAAHV3dzW45S2+Q3MlEKooauwubWY4SjRErauI9OnSVkkjUaGIrDrqiSRqMkGREZ9CFnHS2Xdp7zV1fScqNZ740BxW1psuLIzDRGi8l472W58gudayn3lYRcbk2Q5tbFFUt5mVW3GvJULAcfkxKWqtYLbbsmxYktHeGyfHKjMcayHEcgjLmUOU0dtjl3DbkSIi5VReQJFZZRkS4jrEuKt+FKeaTIivMyGTUTjDrbqUrKKmR7v4V9nzrLWmoM+3TqvQeGYLrmrxzWGG7A2LFYyeZgeA1sLHoEfHK3ILWbmubuVkSLCr3HoTN5bzZZtoeXJnSC8STwLXCFleNiLL5C22pVKeHXmxjjwha7owotjbF2WTdTc/JlKEK35dkOqXVbmttOUumCT3qbhuTa1tpp61vttd33T7FAtSdoqb3CLkTyU5AYTAxHZ3DS93RrLkfrvC7GRNo3Nt6Raacl1uvrS5SmW5Q7Fi2mKWuHPXHiLhR8shRJs6wbhOWkrw0DF+2VyTXsbd8fffFDFM+scfRmFXw7mcecjtcKinKh+1a7W2R8gV7bhZinJUx3GKW5yasxBmkYvkyX4URdSTTheX4n8TI/Jri3zpgcgcS2BrzXfaEcrtu7qpsQmIewjZ1Tpi3Z15jGvpl5W20CXMxLJMrrtaM5bKqbOt9frqzIIkGZGalIWorinLPk5r/iDofNt4bBcekxcdhpgYniVahUjJdj7At+9CwnW+HVbKVyrbKMwvFRquuhxGXTYbXJs5fgVlfOlMSV0qMfLnicbh49+XfnuuVNuPVm1wrdWN0YeM7vNUV97sy6rLINXqFVPRkLcm7aTlBSnOSgq09qTi29vc5OOt+yotJ7Tbfs+hG/COaWW8gOH3HXk3pzFbDGY+4LQ6/ZaXNW5/v610s5Q1ewKjNIhav1hLoM7zx2r3JhcHVqpNQURdZFvlZnbVrFXVT2o9Tpu2d/ZNZcadY08DBtQbX2xovMd2bRfzbFbrY1ZgUjXhaUosi15T41TZ5gb8u5lZluuC03dzMqkwqylxK6jLgWFhb10+D0XZl6CzbjRwe0RqrZyG2Nmt1OUZ/siC0bZt02d7fzvKNtZTjqDZW5HMsYuM1lY53o7r0dw6o3Gn5CFk+57zMFJY5zce3HlJabm8WeXVfEW4ZIRInp2rwusDhMqV0S5LVAiTZqIyTN5yJBnSW0KZhSltYlzw452ZRi1VTox7uUnjWvVqspqhkyxm+pPzIqMa5ftHOElXW1XByvd31dfRCUm1KSqUl6acpQUvR9vf6aa2+70tVX0Zm2WZ/riDeZ3SRqHM63JtjYLk8avg2dbTWN3rDY+Wa1sMoxuvuX5drDxTM5GJLy/E48+dZSW8avKpLlpaGXtCTV0Ut07s1nbuGSszi1KqeGjYG3sLgNHPRZtWtdrDbWb6yrsrhTWosRp2tzWFiDGYVSGm3mo9beRYzU6yQymwlVSEVenG+6LrVTjbYnUn1KtqbTrUu/UofhT2962Xo94p73tLv8AHt6/n6gAAWj6AAAAAAAAAAAAAAAAAAAUv2u13qGC9082rVpPX7EuxZfX/wCshAqgKebPSSsXUf4E+Iov0n4qP95RgCOQAAAlvjrvjY/SOn5muprzV8/reqtErz/xiMdyPN4eo1YvRmfyr2U/1I6pL+wk9B6QABbN7ZSMuX2XfNdpBGZp0rbyTIvwIdpUzHD/AEEhhRn+YhcyEFe09x5eUdnNzkqG0eI6XFbeVqw2RdVOP49ry+yBhtBfNxx6rQhsvms0+ZfESHEyUOU42b9Ichhyf0jkVv8AwKLFuuxL1cJpfnFmp5AAHWBrRsX/AEZOSh/swqhpJkaoW9duRnCL4pWt3HphEf5/DloP9BkMhEY0XormRtWvZ57NojcI5WLcrc9jGz16qRBtdZ6ftor3Tr5IelyLJtJeXVcdw/n1GS6OYPFkHDxJzSfvz75/lZLrX6qSZsOM90Vf2Ir9Fr/AAADXi+AAAAAAAAAAAAAAAAAAAAAAWdOCmC4wjtKO2F2YdVGczSRtXjRgqbt1tLkyJi8Pjlh2QLqoTyiNcSLYWs9uZZtsGhNg7WVC5ROnWQzZ9DyeYZpu1w7LG7rWm4lpmep+fmGZNNZQSJFvjWNYNqPLaKpmupIlvw6vIJUuziMOKU2zKlPvNpS44pR/POML5McP+Ym++SmktA3HKnSHLen1bY7W1/gGZ4Rim3NU7a1JijmAQctxmo2LdYvjWa4Zm+GR6CJdVsTJYuQVmQVftFqGVd6wqb2GoNfckeTvNDAOYnIHSMnjLrTjnqvZevuPmpcszDEcy25lGY7plYuzsTZ2dLwG1v8AEcNo42LYhW4vjuIM3tzeSpb827sJcCMmNCkbVKcXkS5KWTjyxXwCw0vvVEr3kfyAuMjjfdPN+8p15jXrSoKqH3iMnX0zeLr2VWoyUlepfheulX+Y5dWunTivj6vp9ex4zcMS97TTkVsDixWXljQ8FuMGT1FByxtaCa/AtuS+8W4sDJm+MldcQnWpNVrHXtdKpbTdsqK+1aX91aV2DxEwmY062Td7qaCjoaKtxekpquoxqnqYlDU4/WwIsKlrKSviN18GngVkZpuFErIcFpqFFgsMojMRW0R22ktJSkrEnDjIe0Q4j6syjWVn2XuwNnZFf703/tnJNj0XKniLQQs2sNr7dy3Na+6XV3e0TuI8pvGrShqpHtIkyjVWl32mUkllu6lxt3ByC2wjMlb34i5ZxVXQroE4s3lG4NNbYPOk2ZXR3S4StRZPkiKEsaOBVJkFfnDVZnfMHVk+VfYGzi8tRZXFVUXYMuOwfYx1j8lx11l05OELs149OVPInblWJWSbqc6aFXU+iqhKNdUk+7jNWT7y3XYktbaj1OPSlFdvXTlt93LvVq91DqnJ4uJQci1rgl5BwJMdvCIVpidHNiYizETXpjRsbjPwVsU0Ngqio8OHXojxUnU1aiZ71dDNiooAIFznJJSlKSjvpTk2o9T3LSb0up93r1fd9y9pL0SQAAFJ9AAAAAAAAAAAAAAAAAAAAAAKe7OPpizhfbOhkX/xln/vEYjiJCbVcJGOxm/m7bR09PzIjTFmf9RpT/WZCPYACVWGl0xekL/2C2f9qlH/AM4iqJZ4w2bWOUSDLofsmAoy+w1xm1mX9qgB3oAAAtm9spGXL7Lvmu0gjM06Vt5JkX4EO0qZjh/oJDCjP8xDVgjbDdp7jy8o7ObnJUNo8R0uK28rVhsi6qcfx7Xl9kDDaC+bjj1WhDZfNZp8y+I1PI9w+yySfF8lD3x5CMn9J49aX/kZEciv2lb9zg1+knv+9AbF/wBGTkof7MKoaSZGqFvXbkZwi+KVrdx6YRH+fw5aD/QZDXQDYJ+iuZG1a9nns2iNwjlYtytz2MbPXqpEG11np+2ivdOvkh6XIsm0l5dVx3D+fUSP2lQcvDba/wCjz8Wb+Scbof3zSLfHvV/1hJfxi/8AAyXQABz8TYAAAAAAAAAAAAAAAAAAAAAB5zMctx/AMRyrO8snnVYrhWOXmW5NaFEmzzrcfxyslXFzPKDWx5ljMOHXQ5MgokCJKmyPD8GLHffW20qkh4rxw5c6xwfYd1r7XG69bbP17Q5VhllsDXVZdtXOv8/pIWR07yanOaEreqi3NRZQ5z1TZQK+dHW8TVhBjTGnGm6rZviNRsDC8vwPIEOuUObYvf4jdtsLJt5yoySpl01khlxSVkh1UOa8ltZoUSVmSjSoi6HZ50Jszntwu0lhXFHJeBGwOTVlozFa7VWod16V2tpSg1ttTAMMhN0OtrPMoeyM3x3LdT3rGMwqanyyHNo8mhMWEGZa1U2fBksMoksPGd9Nk8fIhVnVXVdMLMvHw4yx5ws67K7L50xc67YwU0rVJQsUlBxjOcLc5dLSkm4OL3qEpPqTWk1FPs03rt6rW9tJ+57MvKoGo9ec69R5JlUmNpvhfzH3jgmurPKbabPb15oKuwrBtsVWKy7q1kzJ71BrdnLshrKl6W+4dfi0Grr0/eq9Bn1XFPW+Rc89oYl2jnImDMY1lUPTbTs++PVs33anX+BTTVHq+TWwaxZrjW26tq1jbN/iLbyX4etMLnVDda9LyCR7SrKW3HCTldWdl5zxwZdXRZZzU5yZTuLcua4Ph2UU0DFqXKNzv41jC9WY3mGX2GOUjtPiOraGDj79pa2MKDOns2pMTZ7MiNMm16xTk/z2w/F8bxGl7HzacKnxagp8cqYcbl/wwajxKykro1ZAjMNJ2eSW2WIsVppptJESEISkiIiE5fGNkuQyMDJwZZWTkvEtvsz8HEnGmvFo+93Y/wB7yKJTjyWTZankVJuVNV1fUoZFkZWY9lXGcZ9MYqSSrnJOTk+lPpi9eXFL2X2209bitXYh4HYeqtZbbqodFtLXuF7Fpq6wTb11Zm2M0+TQq61RGkwk2VexcQ5iIU/1GbNgqmRSakLgzJkNTio0p9pzr9NZfsDPNbY1lm0tSWuis8tkWqr7VN3l+G57aYoqHeWddXIlZZr+zuMQtjuKiJAyBo6eykphMWzVdNNqxiTGW6nDVX5lFskpqNlU5R66rYzSlFuLdd1UpQnF6fTZXOUJr2oycWm8ntJenZr0aa9fimtr5pra951dJR0uM01VjuN1FXj+P0VfDqaSipK+JVU1PVV7DcWBWVVZAZjwq+vgxWmo0OFEYZjRmG22WWkNoSku0ABQ2222223tt922/Vt+9s+gAAfAAAAAAAAAAAAAAAAAAAAU92cfTFnC+2dDIv8A4yz/AN4jFQhTParhIx2M383baOnp+ZEaYsz/AKjSn+syAEewAABKrDS6YvSF/wCwWz/tUo/+cemHRYw2bWOUSDLofsmAoy+w1xm1mX9qh3oAClO98JXsvR+5dcNNeO5sDVOw8JbZ6d7xl5XiNxRIa7p+R+IqeSOh/Hr0FVgFUJyrnCyL1KEozi/hKLUk/wBUfGtpp+9a/U0yBkaTNKiMlEZkZGRkZGR9DIyPzIyPyMj8yMfgknzJ1ivS3Lfk5qVTHq7Wud+baxCCgk9xDlVR51eQaeUynoRlGm1TUOZG6kkzjvtGaUmZpKNg66ptjfTVfD8F1VdsP7NkVOP8GjWWmm0/VNp/VdjNn9Emz1uVgXNPWDsgku0eX6dz2FFUrop1vKqbOsetJDKfmUdWG1DchRdO6cqKR9e8XTMJGvt9Fn2y3hvPrYGspsjw4e5OP+UQ66P3+76zlWCZHjOW159w/JzwcWZzZfQvrp73eI+4TnXYJDnf7QMZ4/ijOlrUcqvFyYfNSx4VTf5202P6k5hS6seC98XKL/2m1/BoAADSzLAAAAAAAAAAAAAAAAAAAAAAAAAAAAAAAAAAAAAAAAAAAAAAAAAAAAAAAAAAAo9tyR0jUsUj83H5khRfZ4LbDaTMvz+Osi/QYogKnbUl+NfxoqT6ph17ZKL7HZDrrqv0dWvAMUxAATGgserQocbp09Xix2Onw6eEyhvp/V3REyki+u3FXE6dSkWENpRf0FyGycM/zJR3lH+YjEvQAAAAFKd74SvZej9y64aa8dzYGqdh4S2z073jLyvEbiiQ13T8j8RU8kdD+PXoNPMZGkzSojJRGZGRkZGRkfQyMj8yMj8jI/MjG5vGoi5k6xXpblvyc1Kpj1drXO/NtYhBQSe4hyqo86vINPKZT0IyjTapqHMjdSSZx32jNKTM0l699lWQlPmcVvvKOHkQXyg8iu16/wBepEXyUf5qX9uL/wB1r/EjYM2f0SbPW5WBc09YOyCS7R5fp3PYUVSuinW8qps6x60kMp+ZR1YbUNyFF07pyopH17xdMJgZL3os+2W8N59bA1lNkeHD3Jx/yiHXR+/3fWcqwTI8Zy2vPuH5OeDizObL6F9dPe7xH3Cc67t44xnk+F+VjFblVXVkx+Sx8iq2x/8AdRsX0ZiYcunIrfubcf8Aai0v4tGwSAAHNZPgAAAAAAAAAAAAAAAAAAAAAAAAAAAAAAAAAAAAAAAAAAAAAAAAAAAAAAAAAABR7bkjpGpYpH5uPzJCi+zwW2G0mZfn8dZF+gxWER92pL8a/jRUn1TDr2yUX2OyHXXVfo6teAYApiADs6SL67cVcTp1KRYQ2lF/QXIbJwz/ADJR3lH+YjAEs4LHq0KHG6dPV4sdjp8OnhMob6f1d0coAAAAAAa1z0i3TC9SdqRty5ZhKhU27cQ1zuOlR3DS097TxxvCMklNL7pE4czNcEyeY8fVRpkSHUGfQiIrGQzXfSydALmYlxU5Q1kFZnQ3uXaMzKehHfJUfIoSc61806pKe8w1Ek4/sUu+4pTTj1qw2nwnOhP4UQ6Z8G5qz/DXFWb3OnHWHYn3alhyePHfzlXXCfxamm+7NfyodGRavjLqX0n7X8G2vyJ8dlxvVHG7tCeJW3JU062mptxY5jmUzu/3ERMM2L6xrjMpT3VSUrZiYvlltKcbUZEsmehGSu6otrwNMilSkKStClIWhRKQtJmlSVJPqlSVEZGlSTIjIyMjIy6kfUbZrs6OSDXLbhDxq34ucVhd5rrCjj5q/wCMl5f0i4ol3DtiIcUR99J++tBeONE6SXVR3GHFl98Iz0X7U8B9XF8pGPZxtwLpa9Gm8jGW/n1ZXr+6ter1mcdP+cq+k1/CMv8A0k1AAB5ASgAAAAAAAAAAAAAAAAAAAAAAAAAAAAAAAAAAAAAAAAAAAAAAAAAAAAAAAAB0uRWRVFHZ2He7q2Irngn16f6pd6Mxi/rfcb69PPp1AEacqnlZZFbyyV3kLmONNK69SNmN0jMqL8ym2UqL9I8+Hx+IAD3euIRy8piOGnqiCxJmL+wu62cdsz/Q9IbUX5yElRRzUtf3WLW0Uk/vjjMFlRl08mk+PI6H8yUbsf4eRGgy8z+FYwAAAAAa1z0i3TC9SdqRty5ZhKhU27cQ1zuOlR3DS097TxxvCMklNL7pE4czNcEyeY8fVRpkSHUGfQiItlGMOz0snQC5mJcVOUNZBWZ0N7l2jMynoR3yVHyKEnOtfNOqSnvMNRJOP7FLvuKU049asNp8JzoT+8/Z5mrE8S0VyeoZ+PkYbfu6nGORXv5ysx4wj79z16NmHnQ6sdv9yUZfl+F/wlv8jCiE+Oy43qjjd2hPErbkqadbTU24scxzKZ3f7iImGbF9Y1xmUp7qpKVsxMXyy2lONqMiWTPQjJXdUUBx/SVKQpK0KUhaFEpC0maVJUk+qVJURkaVJMiMjIyMjLqR9R0BlY9eXi5OJb/NZNF2PZ7/AGLq5Vy/3ZMhYycJRkvWMlJfVPa/uNzcAhX2dHJBrltwh41b8XOKwu811hRx81f8ZLy/pFxRLuHbEQ4oj76T99aC8caJ0kuqjuMOLL74RnNQcmZFFmLkX41y6bce6yi2PwsqnKE13+EotGyxkpRjJekkpL6NbX8GAABZPoAAAAAAAAAAAAAAAAAAAAAAAAAAAAAAAAAAAAAAAAAAAAAAAAAAAAAAAET8qnlZZFbyyV3kLmONNK69SNmN0jMqL8ym2UqL9IktkVkVRR2dh3u6tiK54J9en+qXejMYv633G+vTz6dREn4/EAB7vXEI5eUxHDT1RBYkzF/YXdbOO2Z/oekNqL85DwgrbqWv7rFraKSf3xxmCyoy6eTSfHkdD+ZKN2P8PIjQZeZ/ACsYAAAAAAC2p2vnGdXLDs7eS+r66vTYZfV4O/s/XzaW1uTVZrqt5vOKyurCQlfSwyeHTWOHNGtPhm1kbyFrZJXjtarobnAaqjtY+JznDHnvv/TcGtVXYPIyp3YeqySgkRHNabENeTY5DgKJKPFYxdcyfhMh022+9ZYxPJJKQSHF+wfZbya/9ocPOXfcc/HTfr+CjJS38P8AR5JJ/vy12bIvka/5u1fOEv4yj/6v4FuYZtXopfLBq2wnfnC/IrMjs8StGN76yhvuIU67jN+dZimya+KSlpcREo8hZw22bYbQ6lcrMbaQpTXdMnMJUTd7OblvZ8H+Zej+RUZyUrHsTylqq2LXRCU45c6wyppzHc9gJjEh0pctnH7CXa0zSm1+HkFbUym+69GacR6B4o4n+WeDzsKEd3+X5+L8fvND8yuK+Hm6lS37o2NmFjWeVdCbeo76Zf2Zdn+nr+RtkwHV0d3UZLS0+R4/YxLihyCrr7ukt695EmBaVFrEZn1tjCkNmbb8SdDkMyYzyDNDrLqFpM0qIx2g5gaabTTTT00+zTXqmvc0bCAAB8AAAAAAAAAAAAAAAAAAAAAAAAAAAAAAAAAAAAAAAAAAAAAAAAAAAABR7a9sSI8ClbX9d5Zz5SSMupNN95qMlXz6OOm8vp5ebCT8/lV9a0NoW44okNtpUta1H0ShCCNSlKM/IiSkjMz+REInZJbqvbqdYmZ+E66aIyT8u5Fa+9x09OhdDNtJLWXT++LWZ+ZmAOiAB6TEak7rIK+GpPeYS6UmX5dUlGjffXEq+wnTSlgj/CdSAJD4hWeycdrIik915TBSZBdOivHlGb60r/pNEtLJ/mbIi6/EelAAAAAAAW1O184zq5YdnbyX1fXV6bDL6vB39n6+bS2tyarNdVvN5xWV1YSEr6WGTw6axw5o1p8M2sjeQtbJK8dq5WAycPKswsvGzKXq3FvqyK++vbpsjZFP5Nx0132m000UyipxlF+kouL+jWjTHgLjPax8TnOGPPff+m4NaquweRlTuw9VklBIiOa02Ia8mxyHAUSUeKxi65k/CZDptt96yxieSSUgkOLtzDq/Dyqs3Fxsyh9VOVRVkVv39FsIzin8GlLUl6ppp90a3KLhKUX6xbi/qnozavRS+WDVthO/OF+RWZHZ4laMb31lDfcQp13Gb86zFNk18UlLS4iJR5Czhts2w2h1K5WY20hSmu6ZOZgw1NnZzct7Pg/zL0fyKjOSlY9ieUtVWxa6ISnHLnWGVNOY7nsBMYkOlLls4/YS7WmaU2vw8gramU33XozTiNr/AEd3UZLS0+R4/YxLihyCrr7ukt695EmBaVFrEZn1tjCkNmbb8SdDkMyYzyDNDrLqFpM0qIx4P9o3EvA5v79COsflYecml2jlVKNeTD6y/Z3t77yul27EzgW9dPQ37Vb1/qvvF/3r8jtAAB5+ZoAAAAAAAAAAAAAAAAAAAAAAAAAAAAAAAAAAAAAAAAAAAAAAAAAAAAAfytaG0LccUSG20qWtaj6JQhBGpSlGfkRJSRmZ/IiAFINr2xIjwKVtf13lnPlJIy6k033moyVfPo46by+nl5sJPz+VEB3uSW6r26nWJmfhOumiMk/LuRWvvcdPToXQzbSS1l0/vi1mfmZjogAEq8QrPZOO1kRSe68pgpMgunRXjyjN9aV/0miWlk/zNkRdfiI8YjUndZBXw1J7zCXSky/Lqko0b764lX2E6aUsEf4TqRKwAAAAAAAAAYqHpSPDB7ZWgtbcy8PqVScn0BYe4uzXIrLjkmXqTObRoqO0lGhDqlR8Jz+Q0ww2hLKGouwbufLdU1CQTeVePA7V1lhu6NaZ9qPYdS1e4LsrEcgwjLKl4mzKbRZJWSaqxQytxt0o8tEeSt2FLSg3YUxtiWwaXmW1FK8HylnDcrhcjXtrHuTtgvWyiadd9fw3OqU1FvtGfTL1ii1dWrap1v8ApLs/hJd4v6Jpb+K2jTmgJPczOLubcMeTW3eN2eNvLtdbZVLrqq4cjuR2MrxCaSLPDcvgpW22SoeS41MrLZKWyUUV+Q/AdMpMR9CIwjqai6rJpqyKJqym+uF1VkXuM67IqcJL5Si019TXWnFuLWmm00/VNPTT+jNg76NVzyb5C8UpfFbOLj1na/FViHWY6Ut7vTci0VaPrbwuWz3koJ33Anm/gMpmOhTVZQR8FN91cm0UYyUxqV+AvMbNuB/KnV/I/DEyJ7GK2vs3OsXZdQ03m+tbxTcLNcSdN7rHTIsKrvSqSXJQ41U5LApLom1u1raT2supdqYLvHWOB7g1lfRMmwDZOLU+YYpdw3G1tzae7htTI5PoQtw4lhF8RUO0rnjTLrLOPLrprbMuK+0jwHx/wL4rlpZ1ENYPKSndBxXs1ZW+rJpeu0VKUvPrXZOM5QgmqpamsK7zKuiT9uvSffu4/wBF/l6P6J+8qGAANCM0AAAAAAAAAAAAAAAAAAAAAAAAAAAAAAAAAAAAAAAAAAAAAAAAADjy5TEGK/MkuE1HjNLeecUZESUNpNR9OvTqo+nRKS81KMkkRmZEAKe7LvirqkqphfSXbEpDnQ/rNwEn0fUfkfTxz6RyI+nebU+ZH1QI8jusguX7+1lWT3VJOq7kdozI/AitmZMMl08uqU/WcMvJbqnF/wA4dKAAr1qylOLXybl5HR2wV4EYzIyMobCj76i6kXQn5BH1+JGmO2oj6KFGqWqfurSHWsEfekuklayIzJllP1n3leR+TTRKV5/EyJJeaiIS0ixmYUaPEjoJtiMy2wygv5rbSSQkvIi6n0Iup/Ez6mfmYA+4AAAAAAAAAAMVD0pHhg9srQWtuZeH1KpOT6AsPcXZrkVlxyTL1JnNo0VHaSjQh1So+E5/IaYYbQllDUXYN3PluqahIJvA+G4y2rrLDd0a0z7Uew6lq9wXZWI5BhGWVLxNmU2iySsk1VihlbjbpR5aI8lbsKWlBuwpjbEtg0vMtqLU18zOLubcMeTW3eN2eNvLtdbZVLrqq4cjuR2MrxCaSLPDcvgpW22SoeS41MrLZKWyUUV+Q/AdMpMR9CPcfs05pZOBdw10/wBvgOV2Mm+88O6e5xXvfkXze37o31xS1Eh+Qq6Zq1LtPtL5TS7fTqiuy+MWyMI2Dvo1XPJvkLxSl8Vs4uPWdr8VWIdZjpS3u9NyLRVo+tvC5bPeSgnfcCeb+AymY6FNVlBHwU33VybRRjXxCZHAXmNm3A/lTq/kfhiZE9jFbX2bnWLsuoabzfWt4puFmuJOm91jpkWFV3pVJLkocaqclgUl0Ta3a1tJ7V4s4Nc9w9+LBL73V/pOFJ6WsiuMtVuT1qN8HOmTb6YucZvfQjHxrvJtjJ/hfszX9V+/6p9/1XvNtQAp5qXamC7x1jge4NZX0TJsA2Ti1PmGKXcNxtbc2nu4bUyOT6ELcOJYRfEVDtK540y6yzjy66a2zLivtIqGOZpxlCUoTjKE4ScZwknGUZRbUoyi9NSi0001tNaZsCaa2ntPumvRr4gAAUgAAAAAAAAAAAAAAAAAAAAAAAAAAAAAAAAAAAAAAAAAAAAAAAAKa7LvirqkqphfSXbEpDnQ/rNwEn0fUfkfTxz6RyI+nebU+ZH1QKhS5TEGK/MkuE1HjNLeecUZESUNpNR9OvTqo+nRKS81KMkkRmZEIo5Bcv39rKsnuqSdV3I7RmR+BFbMyYZLp5dUp+s4ZeS3VOL/AJwA6UAHa0tU/dWkOtYI+9JdJK1kRmTLKfrPvK8j8mmiUrz+JkSS81EQArLqylOLXybl5HR2wV4EYzIyMobCj76i6kXQn5BH1+JGmO2oj6KFVh8IsZmFGjxI6CbYjMtsMoL+a20kkJLyIup9CLqfxM+pn5mPuAAAAAAAAAAAAMW70l/s7j3fo2r5s6ypDkbP4707tXtWLXxWjl5TotyU/Pdu5KyMnn5WqbiTKuUpQjonEsgy6dMeNqigMlgQDcx2VbXXNdYU9xAhWtTawpVbaVdlFYnV1lXTmHIs6BYQZTbsaZCmRnXY8qLIacYkMOOMvNrbWpJ6xntm+zauOzu5T2tZjNbZvcdNuv2mZaLyOQ0pcaFBU+y9kms5kwlOJXc66nWEevaN5w5Vlis3GbyR3ZdlMjxfaPs38RK2mXAZdn7WhTt46Un3so7yuxk36ype7a4926pWJJRpRE59GpefFdpaU/lLslL6SXZ9vVL3yLQQyyPRtO1GY1JmbfATeGRpia32ZfPT+PN7YqSUbEdpXkrxLXXkmY64lMSh2RJX67jqD6Mw8/N+I207Izh1+Hibj7xZUqDKjTYUl+HNhvsyokuK85HlRZUdxL0eTGkMqQ6w+w6hDrLzS0uNOJStCkqSRl6HzXEY3OcdkcflLUbV1VWpJzovht1Xw3/Sg3qSTXXXKdbfTORg1Wypmpx9V2a90k/VP6/wen7jc0gMfXsJO1rg86dRMaJ3XkjZ8ttQUKPa0mwU2y/uXX9ccWBC2NAX3iKVlNap+LW7FgoQlarB2DlMUlRb6ZCo8gocx8nxuVxObfgZlbhfRNpvv0WQfeFtUml1VWR1KEtLs9NKSlFbDXZG2EZwe1Jfmn70/mn2f/AAADAKwAAAAAAAAAAAAAAAAAAAAAAAAAAAAAAAAAAAAAAAAAAAAKFbKykpbx4/Bc6xozhKsXE/B6U2fVEYlEfm3GP6zvyOR0T5Gx1V7TPMuTQwzgwnC9rzGz8M0+Zw46uqVSVfY6oyNMZJ/wA8lOn9VskrjiZmozUozUpRmalGZmZmZ9TMzPzMzPzMz8zMAfgAPY4VjS8itUpdSoq2GaH5zhF5KLqZtRSP8OSpJpPp5paS6svrJSRgVN1njnqEBV3KR0lWSCTFJRF1agdSUSyP4kctZE4f+5NsmX8tRCqQ/EpShKUISlCEpJKUpIkpSlJdEpSkuhEkiIiIiIiIi6F5D9AAAAAAAAAAAAAYt3pL/Z3Hu/RtXzZ1lSHI2fx3p3avasWvitHLynRbkp+e7dyVkZPPytU3EmVcpShHROJZBl06Y8bVFAZLKRHCsq2uua6wp7iBCtam1hSq20q7KKxOrrKunMORZ0Cwgym3Y0yFMjOux5UWQ04xIYccZebW2tSTk+G5S/huSxeRx+86LE5171G6mXs3UyfftZW3Hen0y6ZpdUUW7a43Vyrl2Ul2fwa7p/k/d71te80zgC772zfZtXHZ3cp7Wsxmts3uOm3X7TMtF5HIaUuNCgqfZeyTWcyYSnEruddTrCPXtG84cqyxWbjN5I7suymR4toIdRYGdj8lh4+diTVmPk1xtrl70n2lCa2+myuSlCyD7wnGUX3TNdnCVcpQktSi9Nf8+5+qfvXcyyPRtO1GY1JmbfATeGRpia32ZfPT+PN7YqSUbEdpXkrxLXXkmY64lMSh2RJX67jqD6Mw8/N+I207Izh1+HnUDTLRZUqDKjTYUl+HNhvsyokuK85HlRZUdxL0eTGkMqQ6w+w6hDrLzS0uNOJStCkqSRlsX+wk7WuDzp1ExondeSNny21BQo9rSbBTbL+5df1xxYELY0BfeIpWU1qn4tbsWChCVqsHYOUxSVFvpkKj8k+0Pws67J8/gVbqsa/lKqEf5ux9lmKKX4LO0ch+63Vr35lkoyeDk7Som+6X7Nv3r9z6r+j8u3uRkFAADyUkwAAAAAAAAAAAAAAAAAAAAAAAAAAAAAAAAAAAAAAAAAAAAACn2eZcmhhnBhOF7XmNn4Zp8zhx1dUqkq+x1RkaYyT/AJ5KdP6rZJWB4vZWUlLePH4LnWNGcJVi4n4PSmz6ojEoj824x/Wd+RyOifI2OqqSD9MzUZqUZqUozNSjMzMzM+pmZn5mZn5mZ+ZmPwABX7WeOeoQFXcpHSVZIJMUlEXVqB1JRLI/iRy1kTh/7k2yZfy1EKZYVjS8itUpdSoq2GaH5zhF5KLqZtRSP8OSpJpPp5paS6svrJSRyeSlKEpQhKUISkkpSkiSlKUl0SlKS6ESSIiIiIiIiLoXkAP0AAAAAAAAAAAAAABB3tDODGtO0H4z5loTYDMWBcPtLyHV2dKi+sWGudlV0SU3j2Tw+70edgLOS/UZNWNrR7YxqytYCHI8t2JNiziAX8bJvxMinKxrJVX0WRtqsg9ShODTi17mtrTT2pLcZJptHyUVJOMknFppp+9M0+fIHQe0uL+4890RufGpGKbG1zeP0d/VumbsZ7ohEivuaeb3EN2uPX9a/EuaC3jp9XtKidDms9EPEkqNjZSds52POM9o7gUHYesnaHC+WOuKpcHEcmtEqhUeycVacflnrfOZ8Vl6RGQxKkSZ2G5IuPM9gWUqdAlMeyLuZLrsHHLeyN7TLC8xkYPa8I+Q1hbx5q4B2OJa9uM5w55xDpteNHz7DWr3CHoSzLvonIyA4htGThukjqZdF+HfF/G8zg12X5WNh51cFHLxrroU6nFLqtp82ac6J/ii05Ovfl2PqW5QN+LZTNpRlKDfsyS3tfB69JL092/VHYdj5mGYYT2m/CuzwmRNj2drvbD8PtUwlupVJw/OJK8SziPJQ0ZeLCViNxcuyUOEppKGvGURG0lSdqUMTbsLewy2Zxd2VX8xOYVbV0GzqOosImm9OxrCsyCbhcrI6t2stc5zmzrHZtOxkzdJOn0+P47VTrH2QmznWdvKjXUeDBr8skeU/aDy2ByvMU/cLIXwxMVY9mTW1Ku2zzbLHGua7WQqU9KcW4ucp9LaSbksGqddT604ucupRfqlpLbXub16eukt/BAABoZmgAAAAAAAAAAAAAAAAAAAAAAAAAAAAAAAAAAAAAAAAAAAEVcyeefyi7U+ajUic6yjvGfkyx0aYIuvwT4KEGRF5efX5jzIrvneCybWSq5p0oclLQlMyGpSWzfNpPdQ+wtRpQbvcSltxtakkskJUhRr7yVUsZw/J33iYRSWCVmru955hTDJH16dTkPdxju/0vE6dPgYA6iur5drNjwITRuyZKyQ2kvIi8jNS1q+CG20Epbiz8koSaj+AlPj1FFx6sZr45EpZF4kp/p0VJkqIicdV8yT5EhpJ9e40lCepmRqPosLw5rG46pEk237aSjuvPI+siM0Zkfq0dRkRmRmRKec6J8RZJIi7jaTV7kAAAAAAAAAAAAAAAAAAAEHe0M4Ma07QfjPmWhNgMxYFw+0vIdXZ0qL6xYa52VXRJTePZPD7vR52As5L9Rk1Y2tHtjGrK1gIcjy3Yk2Lq1eQOg9pcX9x57ojc+NSMU2Nrm8fo7+rdM3Yz3RCJFfc083uIbtcev61+Jc0FvHT6vaVE6HNZ6IeJJbgwWM+2c7HnGe0dwKDsPWTtDhfLHXFUuDiOTWiVQqPZOKtOPyz1vnM+Ky9IjIYlSJM7DckXHmewLKVOgSmPZF3Ml13oPgbxYuFyHx+fY1xeVPqVj21h5D0lb79UWpKN6SfS1G1aSs68HMxvOipwX7SK9P34/D6r1X5r4a1rYuTdj5mGYYT2m/CuzwmRNj2drvbD8PtUwlupVJw/OJK8SziPJQ0ZeLCViNxcuyUOEppKGvGURG0lSevy3sje0ywvMZGD2vCPkNYW8eauAdjiWvbjOcOecQ6bXjR8+w1q9wh6Esy76JyMgOIbRk4bpI6mWUj2FvYZbM4u7Kr+YnMKtq6DZ1HUWETTenY1hWZBNwuVkdW7WWuc5zZ1js2nYyZuknT6fH8dqp1j7ITZzrO3lRrqPBg1/qfiLxFw2Nwuc5Z2JkyysO+jHx6L6r55Er6pVxSjXKb8rc07LGuiME+7fSnHUUWyuglGUemUZSk010qLTfrrv8F6t/qsskAAc1k+AAAAAAAAAAAAAAAAAAAAAAAAAAAAAAAAAAAAAAAAAAAABFXMnnn8ou1Pmo1InOso7xn5MsdGmCLr8E+ChBkReXn1+YlUKTZ3gsm1kquadKHJS0JTMhqUls3zaT3UPsLUaUG73EpbcbWpJLJCVIUa+8lQFCBza6vl2s2PAhNG7JkrJDaS8iLyM1LWr4IbbQSluLPyShJqP4Dt2cPyd94mEUlglZq7veeYUwyR9enU5D3cY7v9LxOnT4GK54XhzWNx1SJJtv20lHdeeR9ZEZozI/Vo6jIjMjMiU850T4iySRF3G0moDvceoouPVjNfHIlLIvElP9OipMlRETjqvmSfIkNJPr3GkoT1MyNR94AAAAAAAAAAAAAAAAAAAAAAAAAACPPIvk3rbjHjVDe54xlt/b5jft4rgWvtdYzMzTY2f5IuM7MVTYji0BbT1hJYhsuSJT78iHBjJ8Fp+WiRLhsyCW+yBIYBHrjpya1vybxm9vsEYy2gtsPv3cVzzX2xcZmYXsbAMlbjtTCpsuxaet16ukvQ32pMZ5iRMgyUeK2xLXIizGY8hQa12YAAAAAAAAAAAAAAAAAAAAAAAAAAAAAAAAAAAAAAAg5YdohxiRvnCuOWMZTa7E2LmGaTMAmO4FUFc4lg+TQYNzNfrs1y6VMraWHOT7Bs4zlNRyL/II0iOo5lPGipckt/Um/RN67vQJxgI88i+TetuMeNUN7njGW39vmN+3iuBa+11jMzNNjZ/ki4zsxVNiOLQFtPWEliGy5IlPvyIcGMnwWn5aJEuGzI4ehuVep+QmE5ZmmMu5Jh6td2U+m2dh20sfkYHnWsrWtgJtZcLOcetHFnT9yrUVgmYiVKrXI6JBNzVPQ5rUdp63rt8QSSAQB1L2knH3cOxcX1/TUu5MWh7GmWVfqDZmwtW3mH6o3NPqmX5EqHrXMbBw27eSqNFkPRWbKDTuTDbTGjJdmvR4rs/gaa9U19f+f+X2AAAHwAAAAAAAAAAAAAAAAAAAAAAAAAAAEeeRfJvW3GPGqG9zxjLb+3zG/bxXAtfa6xmZmmxs/wAkXGdmKpsRxaAtp6wksQ2XJEp9+RDgxk+C0/LRIlw2ZH7x05Na35N4ze32CMZbQW2H37uK55r7YuMzML2NgGStx2phU2XYtPW69XSXob7UmM8xImQZKPFbYlrkRZjMf7p63rt8QSFAAHwAAAAAAAAAAAAAAAAAAAAAAAAAAAAAAAAAAAAAAEHLDtEOMSN84VxyxjKbXYmxcwzSZgEx3AqgrnEsHyaDBuZr9dmuXSplbSw5yfYNnGcpqORf5BGkR1HMp40VLklurvIvk3rbjHjVDe54xlt/b5jft4rgWvtdYzMzTY2f5IuM7MVTYji0BbT1hJYhsuSJT78iHBjJ8Fp+WiRLhsyPvTJa2mt+m16gkMAjboblXqfkJhOWZpjLuSYerXdlPptnYdtLH5GB51rK1rYCbWXCznHrRxZ0/cq1FYJmIlSq1yOiQTc1T0Oa1HonqXtJOPu4di4vr+mpdyYtD2NMsq/UGzNhatvMP1RuafVMvyJUPWuY2Dht28lUaLIeis2UGncmG2mNGS7NejxXXS+/Z9vX5f8APr9E36IE/gAB8AAAAAAAAAAAAAAAAAAAAAAAAAAAW1N5+qfdNuC3vD4XqH0Q8pPcb1vp4Pvz7Jw72x6h3/qe0/c71rvdz796l4vd+qShcrEeeRnGTW3JzGqGizt/LsfuMOv28qwLYWucmmYXsbAMkRGdhquMSymAh16vkPw3nI0piRGmQJKfBdfiLkRIb0f7F6ff3pr6bWt/8fitoEWdFlDLtNednu6TfqB6k4tHnXqnTwffv2PmJU/r/c+p7T9zfVO73/v3qfhd76vQXLBHnjpxk1txjxq+osEkZdkFvmN+5lWe7B2Nk0zNNjZ/kjkZqEm5y7KZyGnrCSxDYbjRWI8eHBjI8ZxiIiRLmPSJDBJ7fb4Jfokt/noAAAfAAAAAAAAAAAAAAAAAAAAAAAAAAAAAAAAAABbI5h49QY7yE7OtrH6OnomrPlrmF5ZNU9ZCrG7C7t9XZrNtriciEwwmXa2kx12XY2EgnJc2U45IkvOurUs7m4ontLQ2IbczPSWc5JZZJCttDZ5M2HiEekmVcausrqbjtljLsXJGZ9PZSZlWmBayHm2KuXTyyloZcVNWylcdz7F6ab92/wC4EQN5+qfdNuC3vD4XqH0Q8pPcb1vp4Pvz7Jw72x6h3/qe0/c71rvdz796l4vd+qShDrkr62W0u2b9wu/0PhbqA889md7p71e4ufEfr3g+XtD6NfE7/e+/HXd3vfU6C7VyM4ya25OY1Q0Wdv5dj9xh1+3lWBbC1zk0zC9jYBkiIzsNVxiWUwEOvV8h+G85GlMSI0yBJT4Lr8RciJDej8LQvFPU/HvCctwvGWslzFexbKdcbPzHaeQSM8zrZtrY16amVMzjIbNtB25Lq0+z0QkRIta1HckG3CS9MmuyK1JJJ+rSS17u01Lf0etNfFtggBywLEf7i7s/Dwr2f6wW+eC30LezfDNftLv1BVvsLwfrd73R9sd7wP8ArPx/E+r1F5IW/wDUvZtcfdP7FxbP6a73LlULXMyxsdQay2FtK8zDVGmZ9oy/GkzNbYdYNpRUSURpUhmI9ZTrhyGa0yoymprEeUzcAFMmuyW3pt7fr3129/pr9WwAABSAAAAAAAAAAAAAAAAAAAAAAAAAALam8/VPum3Bb3h8L1D6IeUnuN6308H359k4d7Y9Q7/1Pafud613u59+9S8Xu/VJQ/NFlDLtNednu6TfqB6k4tHnXqnTwffv2PmJU/r/AHPqe0/c31Tu9/796n4Xe+r0EpuRnGTW3JzGqGizt/LsfuMOv28qwLYWucmmYXsbAMkRGdhquMSymAh16vkPw3nI0piRGmQJKfBdfiLkRIb0dx04ya24x41fUWCSMuyC3zG/cyrPdg7GyaZmmxs/yRyM1CTc5dlM5DT1hJYhsNxorEePDgxkeM4xERIlzHpFfUun59PTr3fiUt/w7r47YJDAACgAAAAAAAAAAAAAAAAAAAAAAAAAAAAAAAAAAAAAWyOYePUGO8hOzrax+jp6Jqz5a5heWTVPWQqxuwu7fV2azba4nIhMMJl2tpMddl2NhIJyXNlOOSJLzrq1LPmbz9U+6bcFveHwvUPoh5Se43rfTwffn2Th3tj1Dv8A1Pafud613u59+9S8Xu/VJQl/tLQ2IbczPSWc5JZZJCttDZ5M2HiEekmVcausrqbjtljLsXJGZ9PZSZlWmBayHm2KuXTyyloZcVNWylcdzpeRnGTW3JzGqGizt/LsfuMOv28qwLYWucmmYXsbAMkRGdhquMSymAh16vkPw3nI0piRGmQJKfBdfiLkRIb0etSWkvlJN/Dq/wCe/wAuwLSvJX1stpds37hd/ofC3UB557M73T3q9xc+I/XvB8vaH0a+J3+99+Ou7ve+p0FXuWBYj/cXdn4eFez/AFgt88FvoW9m+Ga/aXfqCrfYXg/W73uj7Y73gf8AWfj+J9XqJ/6F4p6n494TluF4y1kuYr2LZTrjZ+Y7TyCRnmdbNtbGvTUypmcZDZtoO3JdWn2eiEiJFrWo7kg24SXpk12RRLUvZtcfdP7FxbP6a73LlULXMyxsdQay2FtK8zDVGmZ9oy/GkzNbYdYNpRUSURpUhmI9ZTrhyGa0yoymprEeUz96l29fZ012/FqKjp/Bdv0cvf6i4AAALYAAAAAAAAAAAAAAAAAAAAAAAAAAAAAAAAAAAAAAAAAAAAAAAAAAAAAAAAAAAAAAAAAAAAAAAAAAAAAAAAAAAAAAAAAAAAAAAAAAAAAAAAAAAAAAAAAAAAAAAAAAAAAAAAAAAAAAAAAAAAAAAAAAAAAAAAAAAAAAAAAAAAAAAAAAAAAAAAAAAAAAAAAAAAAAAAAAAAAAAAAAAAAAAAAAAAAAAAAAAAAAAAAAAAAAAAAAAAAAAAAAAAAAAAAAAAAAAAAAAAAAAAAAAAAAAAAAAAAAAAAAAAAAAAAAAAAAAAAAAAAAAAAAAAAAAAAAAAAAAAAAAAAAAAAAAAAAAAAAAAAAAAAAAAAAAAAAAAAAAAAAAAAAAAAAAAAAAAAAAAAAAAAAAAAAAAAAAAAAAAAAAAAAAAAAAAAAAAAAAAAAAAAAAAAAAAAAAAAAAAAAAAAAAAAAAAAAAAAAAAAAAAAAAAAAAAAAAAAAAAAAAAAAAAAAAAAAAAAAAAAAAAAAAAAAAAAAAAAAAAAAAAAAAAAAAAAAAAAAAAAAAAAAAAAAAAAAAAAAAAAAAAAAAAAAAAAAAAAAAAAAAAAAAAAAAAAAAAAAAAAAAAAAAAAAAAAAAAAAAAAAAAAAAAAAAAAAAAAAAAAAAAAAAAAAAAAAAAAAAAAAAAAAAAAAAAAAAAAAAAAAAAAAAAAAAAAAAAAAAAAAAAAAAAAAAAAAAAAAAAAAAAAAAAAAAAAAAAAAAAAAAAAAAAAAAAAAAAAAAAAAAAAAAAAAAAAAAAAAAAAAAAAAAAAAAAAAAAAAAAAAAAAAAAAAAAAAAAAAAAAAAAAAAAAAAAAAAAAAAAAAAAAAAAAAAAAAAAAAAAAAAAAAAAAAAAAAAAAAAAAAAAAAAAAAAAAAAAAAAAAAAAAAAAAAAAAAAAAAAAAAAAAAAAAAAAAAAAAAAAAAAAAAAAAAAAAAAAAAAAAAAAAAAAAAAAAAAAAAAAAAAAAAAAAAAAAAAAAAAAAAAAAAAAAAAAAAAAAAAAAAAAAAAAAAAAAAAAAAAAAAAAAAAAAAAAAAAAAAAAAAAAAAAAAAAAAAAAAAAAAAAAAAAAAAAAAAAAAAAAAAAAAAAAAAAAAAAAAAAAAAAAAAAAAAAAAAAAAAAAAAAAAAAAAAAAAAAAAAAAAAAAAAAAAAAAAAAAAAAAAAAAAAAAAAAAAAAAAAAAAAAAAAAAAAAAAAAAAAAAAAAAAAAAAAAAAAAAAAAAAAAAAAAAAAAAAAAAAAAAAAAAAAAAAAAAAAAAAAAAAAAAAAAAAAAAAAAAAAAAAAAAAAAAAAAAAAAAAAAAAAAAAAAAAAAAAAAAAAAAAAAAAAAAAAA8NO2hrSrz2k1VZ7EwWu2hktRMyDHNbzstoIme39DXG8Vhd0mHyLBvIbWogHHkFMsoNc/Cimw8T7yDaX3fciqUZR6XKMoqUeqPUmuqLbSlHa7xbTW1tbTW9pjafo/Ts/k/gAABSAAAAAAAAAAAAAAAADw07aGtKvPaTVVnsTBa7aGS1EzIMc1vOy2giZ7f0NcbxWF3SYfIsG8htaiAceQUyyg1z8KKbDxPvINpfd9yKpRlHpcoyipR6o9Sa6ottKUdrvFtNbW1tNb2mNp+j9Oz+T+AAAFIAAAAAAAAAAAAAAAAAAAAAAAAAAAAAAAAAAAAAAAAAAAAAAAAAAAAAAAAAAAAAAAAAAAAAAAAAAAAAAAAAAAAAAAAAAAAAAAAAAAAAAAAAAAAAAAAAAAAAAAAAAAAADA/7HnsktO9qzxl2JyA5Sb85Wu5pjfIHKtWwo+JbLxZ2slU9JrzVmYx7SyVsTXuw7aRdPWOd2jEh9qzjRVRI0BKIjb6JD8nPAGAl2KG5e2W13xWz+k7O/ibx+3vpWVyByq0yfL9rZJRU+RVu0X9c6piXWOQo1pyX00+5Sw8ThYTaRn04vPZVOuLFtN9KW05XVe8+FXmQ4jxDZgZuNx2VG/hFDLysmjEhCEpci7IK+/wBiLs6Y6imnNxSXoYeT0O2hThKyPTbuMYuT3+z03GPdpfmXEuS3Y1bn7OPSWwuVnZ7c/eSOJ2vH7EL/AGrkWs9m5FXWuMZfiOE1srIMnjKbx6ux/D7B+FRQZ86LjmWa+yOnyCSw3Xuu1bjzUxGQJ2c3KC45ncJePXJbI6iJRZPsvDZTmV11ew/GrE5bieSXmC5TLqI0lx+RGprPIMYsrOnjPSJTjFZMiNKlSjR6w5io9oPu7t6s51PYY3zi483GieH02REPkPP4e47gebZDL1mxJbk5Cxa3Ebcm1JdPTeptLKc7Y5FjOLvtf6nyqRNpnJdfKyq+zmyzi9l/C3QUnhvNkS+PlJhMTFsLj2jamMnqn8eeer8hrM3jOElxnOGsgbspGVuGSo9jcSpNvXvy6uxgzJFfiKvKfB4d/JX4XKZs+RnGHJ8c6MiurFWO94eXm40IV232Xavorl5koV12tWJScV8ocfOnGuM64Ktbrs6oty2tTjCTbUUuzfbba7e91Vz3lzxR1VeKxjaHJ3j1rfJUPnFXj2e7p1vh94iSSu4cdVTkOS109L5LMkGyccnO99Xu9fIVrx3JMdy+lr8kxO+pcox22YKVVX+O2kG7pbOMalJKRX2la/JgzWDUlSSejPutmpKiJXUjIsYLmDpv0avC9+bgvuWmbYvbb32Bn+S5VseNRbN5G5RZY5muSWT9jeRJ2PcfJ0ykxaazYyXnZNXf1yJsR5alWSFLUtSqVdg3sfWWtu0e5x8N+Km37nb/AAql6xrN/wCmLO0m2cuLWWESx1RXXEeAza19RLiWMNzbMrC8kkvVVfPuXsBqX7Vt2XDS6MCfh2i3icjPxf5YrsxMSvMtfI8WsXBya3ZTXasLLhfYpzqdynGM4p21xlKKjp6rV7VkYS8pqUuhdFnVOL02uuGlpS17m9P1Zeo2hxL4F5T2mejuSWebXrKfnBjWvX2tYaTe3NiNNZ5xjVdWZ/FjZvG0/NP3+yRFBVIz0mrPHJMbGVM4/cSbmvsHKGe9HnvnW69NavyLAMQ2XtvWWu8s2vdKxvVuL51nuK4lkWysiTOpaxVDgFJf2tfZZldJsskx2vVV47GsZxTr6liGwUi0gtv48XKL/ZRXZw/5GOc/8UeeQdub/hDewH/yzp3/AC4cMhX/ACTLOy/D+HkZ2RZXleHrs2tz6ZPFhjw5a6GLSm9eT14a9e682evSI8zojdKMIpxvjB/1up1Jyfz1P+CMmoUy1TuvTW+Mdm5fo7besty4nXXUjG7DKNU57iuxMdgZFDg11nLoZt3iFrcVsW6i1txU2EirfktzmINpXS3WEx50Zx2poxlfRTf8HluT/LO2H/yH8dhB43Hwv4rlORdkoz4+/jaoVpJxsWdLLU3JvunX93j069ep79EXpTasrhpanGxt+9dHRrX16nsyahjI8Y3mo/pQnaRyJDrbDDHC3CXnnnlpaaZaaw7gctx11xZpQ222hKlrWtRJQkjUoyIjMZNw19vahVW67jtse0Ch6qxrdWZYH9E+jJHKzFdAWkWn2Vf8VY2qeJj2ya2umu1l3KTXSLxGFlcIg09mhcEnSvoqsQLI3G5zwdiLPv5vDd0KFkcDkVO2zXTDq5DjO+pShGUn+GuLnBTm4xc4p9Ss5cuiNMtN9N8Xpe/ULPk+3xenpd9P0L53KDnJyN7SPZuUcFeyfs1VeC1Eo8f5Q8+ErlsYHgFPJUti0xTUmQwTS5b386MmTFj3mPPrurxZO+5j9VQMTNjQLpXAHs4uOfZ2ax9yNNUR2eZXzER3Zu4sjYjP7B2TbMEazetJ6Eq9lY9EkOPLo8Qq1t01QhxyQsrC6l2l1Y+Z7Lbc/A/a/FnEa/gCxj2MarwuNGrbjWLMRFTnuBZHMYJ6Yzs6qkSp1xMyu2eZfky8wn2N7GzF9mTZV2SXjCFSUzj2rsKm1Hq/ZG18jS4rHtY4FmGwr5LJkl5VNhePWOSWiWlGlZE4cGtfJBmhREoyM0q+B4PJ5l1fVwOFiX8diVXRhbjXLpzs7JTSjdyMko9c29OnHj/o+OmvLU5btnXXCL1dOUbJNbUl3hBe9V/BfGT9qXva9F8Nk7f1LpqmbyPb+0ddapx51xbLV9snNsawamcdbJKnGm7TJ7OrgrcQlaDWhL5qSS0mZESi6tb7f1NuSndyHUO0Nd7VoGXEsvXmt82xrOadp5ZLNDTtnjFnaQm3FkhZpQt8lKJCzIj7p9MFLj7vHsluY93mfLLtluUua5zyA2FleRIxvjvDx7lJE1rovW0C2lR8UxWluNO4K6mYT0Rv2nDYoM1ZrWK6ZFev4MzNZeRT18DbHIPss+D/ACL42cqOyA5FZvEtoO06HEOQ/HqTTch2sMyzSFr6xJyeyXe7uxGodlx0txDppVFZ5VkUlq5t8Yy3Ga+nm4pNsHJ3/MmXVPCS5r+UYQm/vD4W5cJK+Fbm8eOe7PMcJSi6oZnkeROTjKK6GpOx987Kf7Hy217PnJ3KLa9ro1rsu7hvq/Qz8LW2q6Ovl293ZV9PVQGlSJ1nazI1fXwmE9CU9Lmy3GY0dpJmRKcedQgupdVeYjhH5u8L5eQpxGJy74wSsrW74CMYj791S/kK3yUSDZTStZYqyU6SzJHhlGNfeMk9Op9BY39KwccR2eGn0oWtCXuZeu23UpUpKXWy0nyGdJDhEZEtBOtNuElXVJONoX07yEmUv6X0e7socfdo59VxzuWb7H7SruIOQSN0brsJjk6pmR50ZU2rsM+lYtMYcfjI9aiPY+cV9pbjKmSbV3Sg6OM4mri8PkeTzOQhLPuzacenBxMe6NbwnQpzusvy6XqTyIajXBvSl8O952Wu2ddcINVqDk5zkm+vbSSUX8H6srJtDiXwLyntM9Hcks82vWU/ODGtevtaw0m9ubEaazzjGq6sz+LGzeNp+afv9kiKCqRnpNWeOSY2MqZx+4k3NfYOUM96Pcby7OcJ1/VqvM8zHFsJpUGol3GXZDU43VoNJd5RKsLmXCiJNKTJSiN4jIj6n0IY33KL/ZRXZw/5GOc/8UeeQ8N6Q7rjE9xcwuxK1Hn0B61wXafJXO9cZpVx50yskWWJ5vtHiDjORwGLKuejWFe9Mp7OZHanQZDEyItxMiK80+2hac2PEPPzfDuFlchkunL4GearJQjdLDox1yl7xcet2Vpw1hvo6px6ZWtvaiounzOiN8owjuNyhreuty8pdUnp9/b+HuMg7FeZ/DzO8kj4Zg/LDjTmWYS5CYsXFMV3tq7IckkylqUlEaPRVGUzLR6QtSVJSy3FU4pSVESTMjISVGPpv70cDs2cr07nNNpbU2R6g2uWMXD+CZ9U7Y2zlK4WWRYD8ih9s4/nma5Rj1lSyLNuNHuIketr57te7ITXWdZNNiazUf0erk7n3J7s48Un7NyKzy/MNM7HzHRkvKbuU5Pu7qpxisxbK8VVbT3lLkT5lVimcUmPlOlLcmTI9RHkznpMxx+S9gZnGcbPjbeT4jLzLqsXJoxczHz8anHvr+9QtlRfXKjIyKrKpyosg4txshJJtNPZXGyxWKu2EU5RcoShJyi+lrqT6oxaa2n6aZeWzfYGB6zoJGVbHzbEdf4vDUlEvJM3ySmxSgirWlSkIkXF9NgVzClJQtSUuyEmpKFGRGST6UpwLlvxS2pYpp9Ycm+Pex7ZbhNJq8C3RrfMLFTpmaSaTCx7JbGSbhqI0kgmjUZkZdOpDGA4k8Z6zt8OSHJjmPzDzHNMk4sae2/eaT43aBxrKbbGcbbgVEODcOy7aVVOxbGuNeK3WJXF9Nx+TWX2WZTfynJdzAoseraORQv0gTsrOC/CHiDrHb/GDTczWecX3JHENbXM5Wytp5nDn4pcav3Dk86Kuu2BmmVRI8ldxh1HIRNhNxpDbbDzCVeDJdQqUxvDfFPkMbg8vks2HMZDqhYsbBptwcS62pW+RbbbmU3Wzri0rZVVKEZ7gnJxbLcsizy5XRrg6Vtrqm1OST11JKMopN70m9679jN3AAGlGWAAAAAAAAAAAAAAAAAAAAAAAAAAAAAAAAAAAAAAAAAAAAAAAAAAAAAAAAAAAAAAAAAAAAAAAAAAAAAAAAAAAAAAAAAAAAAAAAAAAAAAAAAAAAAAAAAAAAAAYiHo0nLjipobgvtnDN48ltB6ay6w5Y51lFfjG1dv6/15fT8bm6f0TVQ72FVZdkFRNl1MqzpbivYsI7LkV2bVz4yHVPRH0Iy7xaPyfsI+yay6Y5PteHOJxH3XDdUjGM+3JhEMlGZqMm67C9jUFe031PyaaioaIvqkgkkRDYeIzuMp4/lOO5P7/GrPt462FuBXj2zhLBlltqcMi6iLU/vEdNSbXS967bsWwsc6519G4Kaam5JNT6PRxT9Ol+46vlj213ZsaP1Lm1mXIfVe+8glY1dwKHVeochrNozM2s5ldJjx8fsZ2LuW2N0NRYrX4FpaZJaQIDEBb5tlNlKjwJUMexp0JyR0B2I+5zhVOR43uzbdHyP3TorHZseRFyOmnZBqetxrU62K1wkyoT2QZBhsTMKeOttt5+LkUGZ4aVSyIXO9N9kf2bWg7yuybWfEDUsHIqeS1Op7zK4Nxsy1qJ8daXI1hVT9nXGYSa2xiuoS7FnwnGJkV1JOR3m1/WFxciIi6EXQi8iIvgRfYLl3KcZi4MuP4ijMsrvzMXMy7+TlR1W/clb5GPXjY/VXXW3dOVs3bOyfaPaKSXyNdkpqdsoJxhKMI177deuqTlLu37K12SX19cMLsRGOxQXxGq5/LCVxBkcrZWW54rcH92JL18qxQ5722/uh7oMbucLHlUzmElj782RjCHJLmSPXibd85peE3V/syWuOLPpEPO5viUepT4+lw3gKwI9FvYw/qnvuOcLnMuLEnMMW5jBslnKsmK0TUK9XbvStG1kl9DyE3r92djp2aHIbN7PY+1OJmCWeaXk9+2vbzF7vPtZu31tLcU9Ntb2JrHLsOr7q0nvrXIsLGziS5k+S45ImPvvuLcVyqDjV2b3ZTYHsPk3i2osG484ximIt0uwNnVNVmmYZPHw28yfGmjqH5SncwzW1r5+TxsYedq61qc9KnQ4D/qzzkdBpmsnxDgZsuWljS5/IzudxrMOvj73Rfh492Tk49sYYrhc7bI1yq8jGgsaE1XPoSb9bMaLI+UpKiMKZRk5x6lOShFr2tx0t7cpPq1vuWuuUX+yiuzh/yMc5/wCKPPIfb0i+ryLWln2bXOOFj1rkeI8N+VcHJM5jVDBvvRK/IMn1VmlVIkqUpDEKLPs9Ot44xOmusQyur6ngLkIfsI6HKM6B3fhfad+kEa65Vca2ciyXj7w+4vW+G2uzLLGbzGqi9tsipdxUdciPCyCDWW9c9a228bWPT1t7X11xYw8Lv7VmvKBE8dOVPl+H4nsDGL3Cc7xmgzPDsnrZNPkmK5TUQL7Hr6pmINuVW3FNaMSq+xhSEH3XY0uO6ysuneQZkRlZzs2fCcn4ZsvolK3j+Ax8fOw5vy7YxyrOSV2PPacqbniZiajOKlCU49UfcVQj51eQoy0p3OUJ+qfQq9SXxXVDXb4MhBivas9m1l+IVWa1/N/jLW1dtXx7JmsyrcGE4fl8RuQyl4o1rg+UXFTl9XYMkrw5FfOpWJbLyVNqa7xedpf0U3/B5bk/yzth/wDIfx2E+ZfYRdk1NyB7JXuHWKIsX31SFxomwNywMfS4panDSzicHY8fFo7HeUZJisUzcZKCS2lom0pSVwzRfHjRvGTCnNc8ftV4VqLCH7iTkUzHcGpIlJBschmQK2rl39qcdBP215KrKaor5FvZPSrB6FV18VySpiHHQ3G5GfwePxXIcfxa5Wc+QyMG6cs+vEhCmOFLJcYRePdZKyUvvEk5OEF7KaittFyMLnZCdnlJQjNJQcm319Pd9SWvw/F/mVlGMrxd/wBlFdo9/kY4N/xR4GjJqEZcX4c8cML5R7I5oY1rn2byW25hcHXuwtk+9+dzPeDD62HgUCFUe51hk8rAanwYmscHa9oUmLVto57E8R2a45ZW658fxWfTg18vC2Nsnn8RdgU+XGLUbrMrDvjK3qnBxqUMeacoKcupxSg02412wc3VppdFsZve+6UZJpaT7+0vXS9e5Zx7QXsz9r6R2TY9pB2Uzq9Y8m8aVMvtyaLx6OX0fcj8Y8VNjkrBYU0qPWTMqsiYVMucZYKK1mkpJXePuU2z40G3u5UcR+ben+2Q4Q7twuhU3rzamS6oznSu9tUWklT9vre+2Lhl9iJ28TxGWpdxhNwcufKx28KGhxfqc6ms48W9qrGE1eAEMtcdnxxA1BySzflxrDUCMF37shF6jOswxzOtl11NlCcndhysg9q64ZzItYPqtrKBEvJiyw1C3cjZ95e8V+tyyXlLmKcnAVPIxunyOAq5cRyVUYTujGuaaws52WVu7Eivax7d2XY0l0RjOmTrVPlOM916Vc9+bW20ttfjhpPUn6SXZSXfafcxf+yUz3sy9M4PmPB7tOuO3E3VXLLQWxs1o5ebcmdH6rm/SBjdpeSb2G5Y7ZzXEZcZc+hlWkqtpPeC9ZrrbAvc6yw6wtapUhiqvX06PR/skzXC9dYfh3ZVZ3nWwchrsWw3F9d6y4x7CuLrILV0ma+vajYTjN8qI5Ie6IS/POJGbUZeK+31LrObkpwM4d8wFQ5HJHj1rvaVtXRPZ9fk9tWP1WaQa7xPFKuiZxjUuly+NXJdNTqK9m7RDQ6txxLBLcWpVDtIdj52a3HTNKHYupeKGDUub4tbwcgxjJchu892LZY5fVklubV3dE5snLcuRUW1XNZZmVljXtx5lfLZZkw3mXmm1pkszm+Lz535tl/iLCzchTtsxcTIps49ZU03KVVll1d9VE7f2jqdVkoKUoQnpR1bhTZBRgo0ShHS6pRan0pr1STTlpa3tbaTaLX3pWX+Dy03/lna8/5D+RIyahGXlbw544c3deU2qeT+ufpOwHH80rthVFD7353hfqmYVNHkWN19v7U17k+J3Uj1elyzIIXs+VYvVbvtD1h6E5Liwn40mhB5WfTfw/E8fCNquwMjlLbpSjFVSjmyw3Uq5KbnKUVjz8xShBLcelz2+m9GDjbbY2tTVaSW9roUk99tf0lrTfv3oxleUX+yiuzh/wAjHOf+KPPIO3N/whvYD/5Z07/lw4ZC+hlPDnjhmnKPXHNDJdc+0uS2o8Lna917sn3vzuH7v4fZQ89gTaj3Or8ni4DbeNE2dnDXtC7xaytG/bfiNTW3K2oXAbz4c8cOSmw9A7W3Xrn30z7i7mi9haKvve/O8c9xswcvMMyRdv7LxPJ6KlybvXWvcQm+z8wrsgqy9kerlCKJPtGJstj89h1Z3B5Mq8l18bwOTxd6jCpznkXU8rXGdKdyjKlSzqXKU5VzSjZqttRU7bpk42x3Hdl0LF3elGLqbT7evsPWtruu/rqTQxlfRTf8HluT/LO2H/yH8dhk1CMvFPhzxw4Ra8udU8YNc/RjgOQZpY7Ct6H3vzvNPW8wtqPHcbsLf2psLJ8suo/rFLiePwvZ8WxZq2vZ/rDMJuXKmvyYnFz6aOH5bj5xtd2fkcXbTKMYuqMcKWY7VbJzU4yksiHlqMJp6l1OGl1XZQbtrmtahGxNd97n0a121/Re9te7WzGD4P8ALLFewi5A8ouC3NbG8xwXRWwNy3+7ePG8qXFLrKMbt8fuIVXjzcmdCoYc23soE7E8fwyLNVi1fdzMUy+qvKC6gd19mbGj/wCkBdrTws5wcZNZ6G4wZtleyr/Ht/Y1te7yhevstwzD6+jotc7TxFdWp/Pa3GMikXs+wzmBJhMRcberzg11q5Jso77cSPLvo8gu2Q7Igtj7W4ycsrqtlWGos5uMKyih2nx8yHbuCzskx904Nq5TN43iOyYMhEOYUiuddsq6smtyo0llyMhKCUuyjzM3FxU7VXPOLvZy9lnoirY1k1vnHNy702Tr7SEXS+v8cxuhqr7EHrWRTN41jVk1V0eM5pmFjaWuTUVKiVaqxvHMabvrm6OIz6DxUVfy2HzvJ8Dy+Hk1V15eZycrlRw0oU4u3nyV2J1eZbXGLWPVlKM7ZJrW2jAteqpU13VTi30wrS6rVuS1DtL0T33cdpLX0zcwAB5OSYAAAAAAAAAAAAAAAAAAAAAAAAAAAAAAAAAAAAAAAAAAAAAAAAAAAAAAAAAAAAAAAAAAAAAAAAAAAAAAAAAAAAAAAAAAAAAAAAAAAAAAAAAAAAAAAAAAAAAAAAAAAAAeXzTCML2Ri9vhGxMQxfPcLyBhuLfYhmlBU5Ti93FZkszGo1vQXkSdVWTDUuNHlNszYjzaJLDL6Uk60hSfUAPsZSjJSi3GUWpRlFtSjJPaaa7pp9013T7oevqeD11qvWGn8eRiOpdcYFq7FGn1yW8Y11h+PYTjzclxKUuSEUuNV1ZWofcShCVupjE4tKEkpRkkiL3gAPspSnJznKU5ye5Sk3KUn8XJttv5thJLslpfBAAAUgAAAAAAAAAAAAAAAAAAAAAAoPsjizxi3JPO129xy0PtWzM0qOy2RqHX2czzUkuiVHMyfHrSQZpLySfidSLyLoPda81Rq3UdOvHtUa2wHWNA4tDq6PXmHY7hdOtxtJpQ4usxuurYSloSpSULNg1JSoyIyIzIe+AXpZF8q1TK+6VUddNUrJuta9NQcnFa92kfNLe9Lfx0t/qAABZPoAAAAAAAAAAAAAAAAAAAAAAAAAAAAAAAAAAAAAAAAAAAAAAAAAAAAAAAAAAAAAAAAAAAAAAAAAAAAAAAAAAAAAAAAAAAAAAAAAAAAAAAAAAAAAAAAAAAAAAAAAAAAAAAAAAAAAAAAAAAAAAAAAAAAAAAAAAAAAAAAAAAAAAAAAAAAAAAAAAAAAAAAAAAAAAAAAAAAAAAAAAAAAAAAAAAAAAAAAAAAAAAAAAAAAAAAAAAAAAAAAAAAAAAAAAAAAAAAAAAAAAAAAAAAAAAAAAAAAAAAAAAAAAAAAAAAAAAAAAAAAAAAAAAAAAAAAAAAAAAAAAAAAAAAAAAAAAAAAAAAAAAAAAAAAAAAAAAAAAAAAAAAAAAAAAAAAAAAAAAAAAAAAAAAAAAAAAAAAAAAAAAAAAAAAAAAAAAAAAAAAAAAAAAAAAAAAAAAAAAAAAAAAAAAAAAAAAAAAAAAAAAAAAAAAAAAAAAAAAAAAAAAAAAAAAAAAAAAAAAAAAAAAAAAAAAAAAAAAAAAAAAAAAAAAAAAAAAAAAAAAAAAAAAAAAAAAAAAAAAAAAAAAAAAAAAAAAAAAAAAAAAAAAAAAAAAAAAAAAAAAAAAAAAAAAAAAAAAAAAAAAAAAAAAAAAAAAAAAAAAAAAAAAAAAAAAAAAAAAAAAAAAAAAAAAAAAAAAAAAAAAAAAAAAAAAAAAAAAAAAAAAAAAAAAAAAAAAAAAAAAAAAAAAAAAAAAAAAAAAAAAAAAAAAAAAAAAAAAAAAAAAAAAAAAAAAAAAAAAAAAAAAAAAAAAAAAAAAAAAAAAAAAAAAAAAAAAAAAAAAAAAAAAAAAAAAAAAAAAAAAAAAAAAAAAAAAAAAAAAAAAAAAAAAAAAAAAAAAAAAAAAAAAAAAAAAAAAAAAAAAAAAAAAAAAAAAAAAAAAAAAAAAAAAAAAAAAAAAAAAAAAAAAAAAAAAAAAAAAAAAAAAAAAAAAAAAAAAAAAAAAAAAAAAAAAAAAAAAAAAAAAAAAAAAAAAAAAAAAAAAAAAAAAAAAAAAAAAAAAAAAAAAAAAAAAAAAAAAAAAAAAAAAAAAAAAAAAAAAAAAAAAAAAAAAAAAAAAAAAAAAAAAAAAAAAAAAAAAAAAAAAAAAAAAAAAAAAAAAAAAAAAAAAAAAAAAAAAAAAAAAAAAAAAAAAAAAAAAAAAAAAAAAAAAAAAAAAAAAAAAAAAAAAAAAAAAAAAAAAAAAAAAAAAAAAAAAAAAAAAAAAAAAAAAAAAAAAAAAAAAAAAAAAAAAAAAAAAAAAAAAAAAAAAAAAAAAAAAAAAAAAAAAAAAAAAAAAAAAAAAAAAAAAAAAAAAAAAAAAAAAAAAAAAAAAAAAAAAAAAAAAAAAAAAAAAAAAAAAAAAAAAAAAAAAAAAAAAAAAAAAAAAAAAAAAAAAAAAAAAAAAAAAAAAAAAAAAAAAAAAAAAAAAAAAAAAAAAAAAAAAAAAAAAAAAAAAAAAAAAAAAAAAAAAAAAAAAAAAAAAAAAAAAAAAAAAAAAAAAAAAAAAAAAAAAAAAAAAAAAAAAAAAAAAAAAAAAAAAAAAAAAAAAAAAAAAAAAAAAAAAAAAAAAAAAAAAAAAAAAAAAAAAAAAAAAAAAAAAAAAAAAAAAAAAAAAAAAAAAAAAAAAAAAAAAAAAAAAAAAAAAAAAAAAAAAAAAAAAAAAAAAAAAAAAAAAAAAAAAAAAAAAAAAAAAAAAAAAAAAAAAAAAAAAAAAAAAAAAAAAAAAAAAAAAAAAAAAAAAAAAAAAAAAAYUHZx6m7UbtfdH5tyEvu143toKLi+4sg1OrG8GxiziHPl0eF4DmTt22WsdlaVqq6LIbz5mA1XM17xsrrXJHj919plmZ4ziIZ+Pm5l/IY3HYmBLFhddfVlXSlPMd6pjXVi03Tl3x59bfT07jrabcbVlrhKEIwlOU1JpRcV2h0725NJfiWjNfAYXWysm7ajs/OVOoOBUbnjQbdpuaK4GOaU5Fb0xqZlNhhl0m8jVV69GPKCz3JKjMIDsysr0U1vY7ExSdHyeifhJg2zz8yklttrsu+2O1hhmXb01r2yO4tq7bxGhssui6ltseybG8EyaVTRH7WTQVEKw2bmWCKmzktPxKaFa6wiU06YqFEsHKqEtUiJJT8M41P3aV/iHia6s+Cs463y+RmsmDm6+uzpw2sSMbYzqsd8ouE4SUopLZbWRJ9XTRa3B6sW4JxfZ9ty9rae1r3GUeAth9kFzgyLn/wAIcC3hnkSqibPqbzI9Z7QKjYKJUTsxw9yG57chQU/UrveTG7bHchl1rBFEr7C0mQ4CUwGYyStt5fuLtC+1q5B791hwd5AQOGnC7jTn1jpzKeQNRUP3OzdwbSpUEWSNYiuFIrLaHS0puMyIEemyfCkexLCnvLO7uZd9Do8ej6+CyXmZ+JlXY+DDi5Sjn5eRKbx6GrfJgo+TXZbfO6faiuquU7FuWowjOUa3dHohKKlN2a6ILSk+23vbSior8Tb0vT3oyYAGJbvbDu1i7F3HKPlhY87Mj7QDjDi+XYtUb711uauvIeUwsby2/rcbiT6CdmGZ7Ntq1bttYwqmuuqPOIDtVkNlSOWuK5Hjrt1HZu19rNylzzVPZR7n5UcZc8mYdlj2KaGynW+eV9fTWEyJj+z9xalpn5kaFfV9xVeLbYXl1hDS69Dfehev+twHY8+PFls3LOAm7+Mhh52JnY3LZkcHFzalkV1QyXbRXOrJquphkUTr+8U2NOqXVVNSrc2ml8V/s2OcJQlVFzlB6bcdNpxafTJPpa2n2a09F2cBigaK7MftQuS2hNKcmT7brkbiV7ufT+t9x1OCQ6nYzWN0p7HwqnzKHj1lKot9UFPKbrUXTdfJms4GqO8phchqqSnuMFMPseeaPKzLd08q+zz51XdTmvIribLg2lRsytZhx5Of6/mTo9c5MsygV9PGsWoaLfDbrH8hdqa+6uKHMYrWSw2rqtkSZ1zL8P11Y+bfhcthcjPjdPPx6asyi6iDujju2CyseqN9cLpxhZKqT6OqMtOL2vkb25QU651qz+bk3GSk9dWn0yfS2u6T9dP3kzNlcZ+beS9o/pfkdhXK8sV4cYZr+ZQ7E42+t5G2eU5E5Cydhb/uxGr3MMyD2pNtKGw97761iZJi3sX1KjhSWHCUdzAY8XI7de5aP0jngLo6l23s2n0rmXEvMsky/T9XnuVV+rsqyKLi3NSRGvsk1/EtWcTvLqPIxXF32LSzqZU5l7G6F1t9K6evVHk/2pPODeGjLfQHEnhnQY/kvNPmBkFzRa0lZS2zIxjWGG45FTJy7Z99EktPw5aqiKuRJqo9hGnVjUSmyO7n1d43Qoxy7+5HGZ2XbweKpYjllcPDJpnGqvFrx8OF2c7LM62MV1uiGPdbdkT6pOtRS6pLTKyEFdLUvZt6WtuTlJxhpQXu25JKPx7l34BjLWHZMdsWzEkbNre2u2RO3QmIqxZwCTj+a1+l375LSnUVf1M+m4yxTuST8D1k9FqaJg0uLou6n1dM9+yA5zbV5h6d2thXJGmqqLlTxQ23e6I3uxSMw4lbd3dE9LhwcrRXVy3K6rm2M2pyGkuodUaaZ28xqztKSPXVNlCqK6xl8LXViW5uDymFylONOqvMWNDKpsxpXNwrm4ZePQ7aJWLy1dU5JTcVKMepMqja3JQnXOtyTcOpxaklra3GT1JJ76X7k2XcgGHbqnH+0j7UPmx2mersY7Tnb3FvXXEHk1lGvsUpcExp7vP4ldbV3fjeJU0NeAZjqOc2nFqTVTMN6wt7e4tLg5rT82WuU3JkSvD8s5HbD9jNkOqrOu7QSRys1JyCyCTqKDl/Iqlv76Fr7YVvHQqpsr6tzDJ9k5DSpgwFTcjpLShzG6rJZY9dx8lxKfFZiV9vJR8JqeTDjo83xq5adNV0cCdefBON2NDLhD728T7u7HROM1BSbb9lPq2lb+9ez1+TZ5W2utOD9JdO+nq3rq7N/n3M0oBjP5L2THbB5FCkbCmdtns1G3GoblhEwegxXMMQ1HJvUtk83WPOYxsWooWKZyS22wcs9MSENx1uL9gqSpyM5KzsRedO8eXWnN1az5TJhP8AJbiTteTqHZl1DiV1e/kkf/zSjVNteV9MxFpY+RxrrG8vx21dpYsassU0MW0aYbkzZaRHZXCV14N+dhcrhcnXhzphmwx4ZdNmP94k66rFHLx6POplYvL82vepyjuOm2q43NzjCdU63NNwcnBqXSttezJ6lrvp+qT79i9oAx4uOO69y3npHPPrR11tvZtxpXDeJeG5JiGn7TPcqsNXYrkUrFuFciTfY3r+XavYnR3UiRlWUPv2lZUxZzz2SXzrj6l3FgqRLXtztj7D1H2WXKLYWqc9zTWOfY/9CfsHONe5TeYXmFJ7W5FajpLT2RkuNzq26rfaVLZWNRYepTWfXKufNr5HiRJT7LluXC2x5HiOO8+tz5erira7OmXTSuVVTrU16ydXmrr6fxafSfVcnC2enqp2Jrtt+Xvevrrtsu0ALWeMbo2hiXYm49yIrsyt5+6MZ7LOp3RB2Dk7ycwvpu0KbiXHziLmWQyMpRbpym3k5XGRd2z2RotE3c1chduiaUqQTtj7hNw67UbtKeMGs+Y172zG/wDTitov50/V4FhuPZTGgVy8H2Tl2vHSnlgG39T454NjMxGRZIjRcWdjx4kxmItt423DO9jcFCyrMyczk8Tj8TDz/wCTpXXU5l8rclxunFV1YtF0lBwosk5ScVHWn7t/JXNOEYVynKcPM0nGOo9k9uTS37S7GYaAoDxb1jszTWgdZ6y3Hty33xs3EqWVBzDbl63IZtc3s5FxZWKbKSzKkzJLKY8OZGrIzMiZLeaiQWG3ZUlaTeXD/tmd87a4y9mvyT3dozMZOAbSw1rUrOMZdCraS2l1CMr3rrDC7448HIqy4qFuzcayK4rUPyK956Ecz12A5FsI8WWxGY+E8rkaOOx7qrJZObXhUZDVkKZu6+NFVzTh5sapOUZtOvzIwfeHUukuOfTW7JJrpg5yj2bWo9TXrptenrrfvLnwDFI0T2ZPafcmtE6Q5NyO295H4ddbp1BrfcVfg1Zj+foxyiLY+GU+ZQ8fmuUO/sYopyaxu6bgSZjWDNx31sKfarUoNDKa78LuafObinzhxvs0e00vsf2tL21RT7zjFyex+CzCTmhwGrSSxjmRSIlVRsWPtBmmsapKrWpiZfj+WsQa61l5RSZVQ38aYv8AD0OjK+4cvg8lk4MLbcvDqrzMe+NePv7xOj71j015KoSlOxVT61XFzjGSTLSve49dU64zaUJtwkty/D1dMm49XotrW33aMkABDLnXorkXyJ0rD11xk5L2vFHPXs5o7W52lSVLlzaLwqJW3sW6xyHFjya6a2/YzZ9RPakQLmkktu1KE+022HH48nHM5ZaF7WbsiNXnzUxjtPdhcwMB19luGt7Z1dvCqy1ynkY/leTVeKRG4tZmWy9ssP1thf3NTRz3sescKyCpatW7Snm+NFX4WNxfD0cmq6o8thY2fkW+Ti4N9WZ1XWNpVxeRXjzxqvOk1Cvrs25dmo7W6rLXXtuqcoRW5Ti46S976XJSevV6XZdzJA7Qq0s6PgJzhuqWxnU9zT8P+S9pU21XLkV9nV2dfpfNZcCxrp8RxmVCnQpTLUmJLjOtSI0hpt5lxDiEqKGHYA2VjcdkjxQtLewm2tnOe39Im2NlKfnT5khfJ7dPfflS5TjsiQ8v+c684tavmoxXjlzsyo3T2SXJzcdAw7Gods9nRunZlJGfWlx6PUZ3xoyXKa1h5xKUpW61DtWW3FpSlKlpNRJIj6FY34XdpLinATsMeGNdjNSWz+VO43994pxy0ZVMyra7yvKrLlPuWphZDcU1SardWJVNpLjMrYhpasMquVxMWo3W5cuXY1Mnh8fk5fh2/Cooc8ufijCp6NJOLjxvJeZ1zfaFdfTKdk5NQhGMpyaSbLc5xjfGyTSiseb38nZVrXxb2kku7bSRlvgLWPZa8WuUuj9WXOzObHIbcG5+Se7ZR5Zl2HZdtHKso1jpOFZSXraNr/AMLeupOCUlnDelr94rLFaeFVQ3UM4pifh4xTNS7nqO0C4Oc0+W2xsQncf+0S2Hww1ZTYK3T5JjOuaK7n3WQ5km/upy8lKxxnN9bW0dt2lm1dU4w5lTzBHVtuMV8da5D8qE+44a5CzDnyuNDGqcoy5F05M8eUoR9ryq6arb7Iue4VTVaVmlP2YNMvdc/LU/Kk5PX7PcVJbfvbaSaXdrfb0+Orsotwdphxw5mcl9SYBifCrk8XF/O6DaNLk+W5GdrlGO+8uHRINhHkU/t3Dq60uj9SnyIlr7tPxUUGV+r+zL6XFiJSs7Nuvs/wC0I7J7tBeIfGXk5y7uua3GXmtezddYnlWwolr7+Y5nKLSgxyLJZlZJeZhk9VKq8mzTBmZUV3O8kx+8x7IZ5lBgXcCJJiSU9Jc3XuXQ/BPU+X6O23s3TWWWPLTBMbsMo1TnuVa7yKfjszTu+LOXQzbvELWnspVLKsqepsJFW/JcgvzquulusKkQYzjUxh8Lk43N8NXh5eDlQ5J+bx+c6JXYlkVO6mfnYuTVCanVZXOFlVle4S6ZJ77q1O2MqbXOM4uvtZBS1NPs1qUXpppppp6aMgynjT4VRVw7Wx9sWkSugxrK29Vag+1J7EZpqZY+pMGpiH67IQ5J9VZUpqP4vhNmaEEY7EeG2fRZZlGtdh41gWUKwfOciwbLaLC81Qw1KXiGWW1BYV+OZQiM/HmMSFY/cSIdslh6JKaeOITbkd9ClNKxuMz7JLtfcVx+92jgnbU7rznb1JVTrym1pcVed0OuMhuYUdctqhJUrbuU4pGbnvNFDirnapfr/FdbTLix4ynVtxHH4OHm+Z965bE42fXGFUcijLsVsp779WLj2101xelKdkoqO9pNJtXbJzhrpqlYtNtxcVpLX70k5Nr0S9TKAAWouxh5zZl2gHB7F9wbNbrlbVxDMcl1HsyyqITNZW5Bk+KQ6O5i5IxVxkoiVki9xXKcbsbaFBbYrWbt+y9lxINaqJBjWRtVY12kHai82u0z1hjPad7j4ta74g8mso19ilLgOPyy8fErrau78bxKmh/R9muoZbaMWpNVsw3rC4tri0uDmsvzJS5TUmTJzKfD1ryOWozszG46HCuKzr7Y5F8F5mTHFrdMMam2y1TsnDpfTH2Zxk9LeqJXrVThGVju24JOMfSPU9uTSWlv81ozFgGIznOadpP2JO/ONNzv/mXkHOThdvfZFfqvOrXZ8S3Tl2FWdi5G8WzZk5XkedZNTWlZRrsMnoDr8+taHI2cdyKoyGorJCqm0PLmGJyfFPj44t9eVj52FnQsniZeOrYQsdM/LurnVfXVdVbVJx64Th6Tg03tpVV2eZ1JxlCcGlKEtNra2mmm0016NP4/mAAESXQAAAAAAAAAAAAAAAAAAAAAAAAAAAAAAAAAAAAAAAAAAAAAAAAAAAAAAAAAAAAAAAAAAAAAAAAAAAAAAAAAAAAAAAAMZX0U3/B5bk/yzth/8h/HYZNQtldlN2c/3MbjxmWhfpi+m73t3PkW3fev6Pfo29n+3sH11hnu97C9+M+9b9U9wfaXtb2xG8f2t6n7MZ9Q9amTeHmY9XB83h2WdOTl5PD2Y9fRY/Mhiyz3e+uMXXDy1dV2nKLl1ewpdMtWpRk7qpJezGNqk9rs5dHT23t76X6LtruWy+3IM2e0T7Ap9kzbec5kT463UGaVrYVu3hw2ppSi6Gbam5L6FJPyNLziTIyUZDJnWhDiFtrSSkOJUhaT8yUhRGlSTL5kZGZH+YxbM5z9nP8A3aPIfgHvr6Yvo2/uGtzv7d91Po998fpQ8bONMZn7ve3ffjFfcnu/RF7N9rex8u6+8PrnswvZPqtnc1DkczHv4rw/jVWdd+DjZ9eVDosj5U7uTyciqPVKKhPqpshPdcpqO+mTUk4pCMo2XSa0pyg4va7pVxi/ftd0131+hjL+inrUrs8dxJUpSib5mbEQgjMzJCT0lx4cNKSP+Sk1rWvoXl3lKP4mYs1dln2QPELmrnHLbSnKzau/MF5W8ed15NQ2mEa/y7XGLs3uBxZfsR7KG6jN9UZncW1hBzityKPkNjWWLVbCgW2H+NXQ12keXZ5ZHZTdnP8AcxuPGZaF+mL6bve3c+Rbd96/o9+jb2f7ewfXWGe73sL34z71v1T3B9pe1vbEbx/a3qfsxn1D1qZSbnR2LHHbmTtKPyLxfOdl8XuTsZqMh7dWkrRNVPyB2BA9l1s7K6YnITk64r65LNezf0F3i+QSa1iPW2lpYQodexD2leJcWvmvEksbkMjCxuYtosxeVxqJznRZiylKDtxrI13Sx7o23V2qMVbGXROMJJNGM8eTqx+quM5VJqVcmltSS3qSbjuLSa32a2tkI/8AoU3s8v8A15OZ3/0h6P8A/wDHYSF7avV9FpDsJNyaWxafeWuM6h1txK1fjtpk0qFOySyosA3voLE6ifkM2tr6iumXkyvqY8i2lQKqshSJ7kh2LXwmFtxmqPY52DXImfd1a919slzc2zhdVa19m1iDdrmNUl0q2WzMjMPP5vufa2PvETjDZK8fEXo6yLouIpBmg7vHaEcRP7u/iDt3in9IX0V/Sp7g/wDn990/fj2D7j7PwrZH/Ut7y4f7U9qe5/sb/qirvUvaPtH/AFX6p6jKwruZb5bgbczxJZzOLh8pi5d85YmVTDDhTk485zjG2qN10pVqxyjXU2vLSj1uSSrVX7K5Rx1VKdcopdUW5NxkktptLT13b7729dx2cP8Ag8uBv+Rjxd/5D8GFmLiyXhelC9pAy19RpzhthD620mZIU8rE+CSzdUn4Gs1vvK7xl1I3XOn8o+uQJxw1F/c+8eNDaF94fe76EdMau1F71+yfYPvP9G2D0eGe8PsL2ndexfbXsX2l7J9sW3s71n1P2nP8H1p2F2suzrb1h2ofI/tKndzItUcgdM0GoD005gCatOIqqarQlOi/+kdWczivjmL0ml1NR7i0ptryhLBWTx0xOW0Zh5+JVf4mnZb0x5Djc7Hw35dsvOuu5HDvqhqMG6+qqqc+q1QjHp6ZSUnFOudc3HHSXeuyuU+67KMJJv176bS7bfwLZvKL/ZRXZw/5GOc/8UeeQit292gNV7K7U7s+HeVWWZlr7ipuPWEzSmQ5/h9nR0E3FMtpMxzqyYnlkWUY3lWNUsMrzZWtnMlm3NPLjR8VYtpRqrijKtIkltuXVPtb0oriUeCWcHIy0BxCy+o2iqoks2CMWtZeHcoXE11suMtaIUxtG4sE8aO8fisru4bTqUOPElN9nl9w20Dzm09Y6S5EYf70YnIms3NLYwJaqnK8MyaIxIjwcpw6/abdep7uIxLlRlKUzKrrGDKl1dzXWdVMlwX5x8pHhs7wxk2+dCH+asMa6VCismiGZfykY5FCs1HzalbVkVqTSmkltKW1a8vzoZEVp/6R1Lf4ZOEatxbXfT04tr09fdosbN+io9nc82h1rdHMt1p1CXG3G9i6OW242tJKQtC08dzStC0mSkqSZpUkyMjMjFz3s6Oys4+9mQzt+PobNd05czul3A3snb29keEX6a13XqMxRULx1OG67wFMNU5ObWSbhViVqckoVUUU4JR5BS7ZMX0frkDgzUbFdG9shzS1PqWvSmJV67izM1kNV1S2km2q6NJxDeWvMaZS20XhpOPhMeMSehJhJSXdO85wX4gJ4TaTk6hXuvau/rCzza+z252Ft+yjWmTyrjIYNLCmwYj7SFy2qRpVKibFjWtneWTc2wsVLtnYq4sWJhczy1+RgWUf523cxXdOtSwpYGVjdUITVqnbO6Ea4yrnCElCudu5ektLvVVVGM0/uqqaT1NTjLu1rSSe+633aX8WWX+wy/whvb8f5Z0H/lw5mj99KuM2uz60rLaM25Mfmfrw2H0GaXWTPSfIVzq2suikn4jLS+pGR95tB/EiFzTgx2c/9xdyH5+b6+mL6Sf7uXc7G3fdT6Pfc76L/Bzjc+Z+73t334yr32730u+zfa3sfEenu9657MP2t6rWO1Z7Of7pzx4w3Qv0xfQj7pbnx3bvvX9Hv0k+0PYOD7Fwz3e9he/GA+qet+/3tL2t7Yk+B7J9T9mPev8ArUOuPL8cvGWFyryP/Z9X8meZf5N/s/d+Kxca79l5XnS6Lq5w9mt9WuqPVBqT+eVZ90lV0+2+vUdx99spLvvXdNP1+XqXNRjK9hf9TtCO30jo6pZZ5nQvCaIz7jfXdvMpB91PwIzQ02kzLzMkJI/5JDJqFsrgx2c/9xdyH5+b6+mL6Sf7uXc7G3fdT6Pfc76L/Bzjc+Z+73t334yr32730u+zfa3sfEenu9657MP2t6rWQnHZeNRxPiDGts6b83G4+vFh0Tl5s6OSxsi1dUYyhDpprnPdkoKWumLcmou9ZCUraJJbjCVjk9rspVuK7N7e29dt/PsWudRWtfq30o7lW1mUyPTL5DcQsXqtYlPdRF95LCtwXjVNkQ6w3VJKXI8DSeerS013lr9izEpSamVdJv8ApCH+CC5df9wP/wAJ7SwqX2jXZM6L7RKVgudX2V5rpbfmrWSi6+3lrN6O1klfXNT3LaFS30F9Uf23U1Ny9Iu6JUK0or2itZM1+ovYbFlaRZ1tm49Hm3ps+mlYPyL7YPmDu3Vk92F6/ry4bzBdNNj1lhGtK1qVDzreey8dfdr58KFOhPPYw4iLYQ406PHbeYZ7mwY2bwmTleH+VyeUeDkcRVxNOThWYOVe7/5JsgoWY9+PCdSV9NcE42+XKuzqb6k0WZQtjG+qNfXG12yjNTjFLzV3Uotp+y2+63ta9Cbf/peX/wCBj/8AuQB6Pf8A4ILiL/3fP/Ce3SJy3/Euhk8D7vgni2YW9NjD/Eiy4l45n1/XQ8lvqqhd049p2ozC7qK57E6+/t4NeqPdWVdBkY1DtZjT0aK9TMPoXG6js9+In9whxB1FxT+kL6VPor9/v/P77p+4/t7342fmuyP+pb3lzD2X7L98PY3/AFRWPrvs72j/AKk9b9Riw+TyGJbw/I40LX94yPEdfIVVOFicsRYufW7XPp8uLU76ouDmrH1bUXGMmrsYSVlba7RocG9r8XVW9a9fSL7612JnCzH6Qh/gguXX/cD/APCe0sLzgsx+kIf4ILl1/wBwP/wntLDE8Pf+/wDg/wD9Y4z/AOdoKr/5i7/srP8AySJldm66092eHA5bLrbqE8NeMbRraWlxJOx9K4Sw+0akGZE4y+24y6gz7zbra21klaVEVlrtTLyn3d2znY7aH1jYxrfaGkdlXm4NpxqZaJcvGsHXkets+agZA7HS8Vc87iWo8xslV8w2pDdZeV0xTbUe7gPSKLcTuwy2dlPFLjJs7jf2oXLni3Q7q4/aZ2znWtcWtMlsMWLKdk63xrL8qbx5nCdoaki19W/dXNguCxb1mQTGIzjbUywsHULkO3kuz37JTjx2fdpluxcevM13RyD2FGfh5vvra85i0zCbAmzGrGyqaCOyg2qCstrGPGsLpx2Vb393MjxjuMgnxocCLEn5WcNw+fyXI08pPPzGuUoxsGGDkY7qvzYX4sp5d1z8l10Qusl0USuds4w04LbVhK22uut1+XD9nKU3OMtxg4ySjFd9y0vxJJd/Ut29sBsTkFv3tA+FXZYay3rk/GfWXIHCLrZO0dlYfKlVl5k7ER3Y7reGosYNhUTpCI9XqyyiV+PNWsWrvMizakPII9lHgQY6Lf8A2o3YPcc+EnAffvJXWu/OU2UZxiH0W+2KHPs0wWwwbNjyzc2usKlHkFPQa5x23kez/eNd9V+tZDP9Xt62uecN/wAI1HkWdo12W2ku0aqMAn5lk+a6n2/qOZMm6u3NreVHj5Njnr78OZJrLKHJJLV1TFY18G3hNtTKi6prWL61R3tYmdbs2Vri99Ho5AbMx2dr3fXbF8vdw6os3YPtDW97GzWVjs+PV2MS2qmp1Vme/c+xuY7W2UCDYwXn8bUiJYw4k6NHafjMqRn8LzuDiY/CqvmVw9eDOuXKceuNtulyU4Zk7rLll49Nrn5+M66FC+VfkOtdG46ZRdTOUrd0+a5b8uzzIx8tOCil0yktdMk5bSfVvv3Jv/8ApeX/AOBj/wDuQDFr4q8W+RHEXiPwv7bDjhFh74j6+r9wRN46R2BVxL9vAcCot3bdwexyjWMpUSRY4xjT9DHl2GRWdA2nIsEye3vM5U5d4fd5bVVObpc8Sad/gVa8EsezOyq6B7iHO4k0ew7moi31xXU7mmXdO1mZ2tFBmY5CubKJCNi8nVEOwoYtjKbdhx5lW08h9jo+AnDeFwi4aau4g2WbRdyV2u4uxoM/Lp2FtYjCyuFsPZWb7AlQ5mGP5HmbESLEYzNygkR3r+0as2oK5riIyJqq+NgYXiSnjsHko1OGRLO57zr8G6qzozOItxc2vIhKzo6anKVtKi4zjdCfTNRlCM07kqJTlVvceinSmmtwtUq3F6339HvtprttPTPbcOOXmnucWgsM5C6Ut1zsYyhhcW2pJ5st5Hg2WwEMlkGEZZCZcdTCvqKQ82lzw1uQrOvkV97USJtLa106TjTvah2t22faR8+NMbu5P7b0rxo4U5uxrHGNGaquI9HKy5sslzHD05Ucexbn4/KXPlYBaZDd5HkOM5TYNIyzG6KrOuqGmWkXa+CfZNzuz75Pbz2jpLkhMTxn3hMs7GVxLs9XrVW4hYrkHOxmdjmyUbKWTcnEH5NnTVzzmvidscMnNUFy5Osq2uyOPT7mh2HmD8i+QV5yx498m9z8KOQ+Xw2Iub5lqR+c/UZRIjxIcA7l6qpMqwDIqu5sIdfXs3i6nNIlRcuwY9lLpjunrGzn0cflcLxvJcj9x5B0U5WHBcXyluDZkW8XdO6m6ym6idXW7VVG3FeVjRt11KyptTmorI3WV19de3GX7StTUVYkmk009abal0ya+DLHfLzswNP9mr2g3Yv1emto7yz7H9sczsPclUu5MmxfIo+KysF3hxlJMjFEYrhuFQoHvAnMlldpcr33JHsWo6P9GDI7lXpWX+Dy03/lna8/5D+RI9trHsCszi714/775M9pVyd5W5Hxv2hiG1de1ewWLWXXQ7jE8txnMF1jD2f7L2vPqKjIrDEqSPkTdJIr5VhEhRSOSh+HEeZn/wBqz2c/3Tnjxhuhfpi+hH3S3Pju3fev6PfpJ9oewcH2Lhnu97C9+MB9U9b9/vaXtb2xJ8D2T6n7Me9f9ahyU+ewf5Y8LZGTyz5BcW8j+UOReJk1KXm5V1tbVMqY3T6Kp11txqbbjtpttlvyZ+TkRjV5fmdPRX1RfpGKfdSa9U33fo/yKG9vfy93Dw04BW2b6LtpuLbB2Ps/ENOQ86rEIO2wOryWly7JLrIqd5xDjcG2frsOexuttCR6zUzMgZs61yPaRIMlmFOEejSaUyugxzYu4+bXMDYG9rOnr7my2nh+wcSh0z93YRGZr1hRO5RhmcZjLrFSHTchzX85KXYR/ClKXGW6baL9/LHitqDmjojNuPG8KibaYHmzENTsmomJrMix26qZbVjRZRjNotiUivvaSxYalRHH4kyBKa9YrLeBZU86wr5ViGj9H85J4IzHxLVfbOczNdagrGkwaHW9GvPYDNPUNdUMVseRjnIHGcYQ0yx0aSmHg0CKXmaIaEH4ZR3C8rj4/FRxaOYXAZscvItych8fZlvkKLIULHr86iq62tY7hanRKMap+b19TltFd1UpW9UqnfDpiox8xR6JJvqfTJxTctrTT3212R/Xopv+Dy3J/lnbD/5D+Owdhl/hDe34/wAs6D/y4czRdg7NTs88G7NPQmRaIwPYGV7Jr8p2jd7Xtshy6BT1kxF7e4lg+Hya+ug0zSWI1S1BwSuksNyZE6YUuZNNyYtk2GmfKcGOzn/uLuQ/PzfX0xfST/dy7nY277qfR77nfRf4OcbnzP3e9u+/GVe+3e+l32b7W9j4j093vXPZh+1vVaxyPMcfk3eMrKrm48t9x+4KVVsXf5PI4l9m/Y1V01VTn+2cN66Y7m1F/YVTisROP80p9fdezuuUV7++20u2/mWyfSsC7nZ8aWko+pIY5m6+Jl5JmlxrvaS5CuK7ii6GnqtlpfUj695tJ/Ehk1i2V2rPZz/dOePGG6F+mL6EfdLc+O7d96/o9+kn2h7BwfYuGe73sL34wH1T1v3+9pe1vbEnwPZPqfsx71/1qHc1ELmZeNbwfCYddnVk4mTzFmRX0TXlwypYLx31yiq59apt7QnJw6fbUeqO7sISV102vZnGpRe13cVPq7b2tbXqlv3AAAQheAAAAAAAAAAAAAAAAAAAAAAAAAAAAAAAAAAAAAAAAAAAAAAAAAAAAAAAAAAAAAAAAAAAAAAAAAAAAAAAAAAAAAAAAAAAAAAAAAAAAAAACP8Aym434Ly70BsrjjsyzyynwXadTBpsjscGtINLlUaJX3tVkDXsmys6m9r463ZlRGYlJmVE+PIguyorjBpe7yZAALlVtlFtd9M5V202Qtqsi9ShZXJThOL90oySkn8UfGk001tNNNfFPs0W2+BHZScQuzl95rPQWOZRaZ1mNczSZHs/ZV/GyjO52Px5Tc9vHosmtqMex+jpnJ7MedPiY9jtSdvLh1z1w5YKqqv1K5IAC5l5eVnXzycy+3JyLNddt03OculKMVtvsoxSUYrSikkkkfIxjCKjCKjFeiS0u/cAADHKgAAAAAAAAAAAAAAAjLzG4pa85u8cNjcYNrXOaY/gOzvdH29b69saOpzCJ7l53jGwqv2RYZJjuWUsf1i6xOui2HruP2Hi1b01mP6rLcYmxpNALtN1uPdVkUTlXdRbXdTZH8VdtU1Oucd7XVGcVJdvVHxpSTi1tNNNP0aa00/qimWlNU47ofTWpNHYhNurHE9NaywLVOL2GSSIMzIp+O67xWqxClm30usrqetlXUqtp4z9pIr6mrgvznH3YldBjqbjNVNABROcrJzsnJynZKU5yfrKUm5Sk/m222EkkkuyS0l8EgAAKT6AAAAAAAAAAAAAAAAAAAAAAAAAAAAAAAAAAAAAAAAAAAAAAAAAAAAAAAAAAAAAAAAAAAAAAAAAAAAAAAAAAAAAAAAAAAAAAAAAAAAAAAAAAAAAAAAAAAAAAAAAAAAAAAAAAAAAAAAAAAAAAAAAAAAAAAAAAAAAAAAAAAAAAAAAAAAAAAAAAAAAAAAAAAAAAAAAAAAAAAAAAAAAAAAAAAAAAAAAAAAAAAAAAAAAAAAAAAAAAAAAAAAAAAAAAAAAAAAAAAAAAAAAAAAAAAAAAAAAAAAAAAAAAAAAAAAAAAAAAAAAAAAAAAAAAAAAAAAAAAAAAAAAAAAAAAAAAAAAAAAAAAAAAAAAAAAAAAAAAAAAAAAAAAAAAAAAAAAAAAAAAAAAAAAAAAAAAAAAAAAAAAAAAAAAAAAAAAAAAAAAAAAAAAAAAAAAAAAAAAAAAAAAAAAAAAAAAAAAAAAAAAAAAAAAAAAAAAAAAAAAAAAAAAAAAAAAAAAAAAAAAAAAAAAAAAAAAAAAAAAAAAAAAAAAAAAAAAAAAAAAAAAAAAAAAAAAAAAAAAAAAAAAAAAAAAAAAAAAAAAAAAAAAAAAAAAAAAAAAAAAAAAAAAAAAAAAAAAAAAAAAAAAAAAAAAAAAAAAAAAAAAAAAAAAAAAAAAAAAAAAAAAAAAAAAAAAAAAAAAAAAAAAAAAAAAAAAAAAAAAAAAAAAAAAAAAAAAAAAAAAAAAAAAAAAAAAAAAAAAAAAAAAAAAAAAAAAAAAAAAAAAAAAAAAAAAAAAAAAAAAAAAAAAAAAAAAAAAAAAAAAAAAAAAAAAAAAAAAAAAAAAAAAAAAAAAAAAAAAAAAAAAAAAAAAAAAAAAAAAAAAAAAAAAAAAAAAAAAAAAAAAAAAAAAAAAAAAAAAAAAAAAAAAAAAAAAAAAAAAAAAAAAAAAAAAAAAAAAAAAAAAAAAAAAAAAAAAAAAAAAAAAAAAAAAAAAAAAAAAAAAAAAAAAAAAAAAAAAAAAAAAAAAAAAAAAAAAAAAAAAAAAAAAAAAAAAAAAAAAAAAAAAAAAAAAAAAAAAAAAAAAAAAAAAAAAAMyIup+REAA/lS0oLqpRF+kxE7lrzY45cJ9dO7L5DbIqMFpHlS41BWuE7Y5VmdtEjlJOjw3GICH7a/szSphL5xY5V9WiSzMvJ9XXGuYjDc5h+lC8i9izbbG+HuAUmiMPUt1iBsHPINXnm2ZjPcUlqcxSSfXtcYktfiK8ark1+wVIcZZdYvkJW7HPYeF8L8zzz6sHG1jqXTLLyJeTixaemlY05Wyi/xRohbOP9KK2ixbk1U9py9r16I95fp6L5dTW/cZ5Tk+M38XE9fP5/MfD2tD/9UL+0akvbXOTmPvaZJmbb5PbxzdEpS1LqrTZGUNY2z4hma0QcVr7GHjNa0ozPvM11TFZPyLudCLpGP2lY+t+v+vzfXu/4nrvrT/rff69e/wCseJ43f6+fe7/Xr59eo3mr7Kb5QTv5qmueu8asGd0E/gpzyqG18/LX0MN8lHfaptfFzSf6KMv7zcronxnPg4nr+n5jlJWlZdUqI/0GNR1qXnJzH0TMjTNScnt44QiKpCkVVXsjKHcbe8MyNCJ2K2FjMxmyaSZF3WbGplMl5l3Ohn1v48PPSheRmuplTjfMHAKTe+HpW2xP2DgkGrwLbMNnuJS7OfpIvqOuMsWjw0+DVxq7Xy1reedkXy0paYKM5H7M+axYSswr8bkoxTbrjvGyHrv7NdrlVLtvt94Um9KMZNlyvkKpNKcZVt+96lH82u/+7r5mesAiVxK5tccebGumtl8edkVOc0rJw41/WoJ2uyrDLaXHOSVHmWMz0sW1BZpSh9LByo/s+0RGel0c+0riRMXLUjIy6l5kY89upux7bKMiqym6qThZVbCVdkJL1jOEkpRfyaXxM5NSSlFppraae018mAABaPoAAAAAAAAAAAAAAAAAAAAAAAAAAAAAAAAAAAAAAAAAAAAAAAAAAAAAAAAAAAAAAAAAAAAAAAAAAAAAAAAAAAAAAAAAAAAAAAAAAAAAAAAAAAAAAAAAAAAAAAAAAAAAAAAAAAAAAAAAAAAAAA+AtcdqT2m+rezf0ivMb9uNlm2czTY1Om9VtzfV5mW30Rls5dxcONd6RV4RjJyoknJbdKPEUqTBpa81WttDIrhG0NiYpqfAMy2RnNzEx7DsDxi9zDKrycvuRKjHcbrJNvcWMhXx8KJAiPvqQklLc7ncbSpZkk9VX2hXNrPefXJ7PN9Zg/ZQ6CZMeodWYXOlIkM6/wBZVsyUrGsaZSwfqhWC25D1zksuKRNWeT2lvPbJDD7DLW6eC/DK8QZ8p5KkuNwuieVpuLvnLbqxYyXdKfS5WyjqUaotKUJ2VyWJl5HkQSj/ADk9qPo9Jesmvfr0Xxf0ZSXk3yk3jy/2xf7m37nNnmuZXj7pR0PuuM0OL1Burch4xh1ElxcHHMbrUr7kStgoT4rhu2Fi9Otpc6wlR8ATD4IcPrznbyVwnjXjey9e6qu80YuJMHJNjTZkeuknSQV2L9LQwK+O/LyDLJ8Vp9dNj7TkL2gUaUpc+KhhSz6ClLF47ElJqvGw8OhyahDVdNFMW30wri2owgm+mMW9LsmQiUpy13lKT18W23/iyHgDIOyrsWuLsbN8k0dhXa68cv7pbF76Zh9hqLeepc847V6c1hy/UvdhOa5Vkd6b86VKNtiu9n4zPXZuvRyrmJbchlxdojlfxB5B8JtsWGmORuv5+C5jFitWlY6b0ezxzLMfkrcbhZNh2SV63qrIqKUtp1k5MGQp+vnMS6i4jV1zAn10XGw+Z43PsVONkSd0q/OhTfj5OJdZT7P7WqrLposuqXVHdlUZwXVHcvaW6pVWQW5R7J6bUoySfwbi2k/k9MjQAAJMtkguMvKPeHEHa9BubQec2eFZjRvtesIYdceocoqCdQ5MxjMaJTiIOR43ZJR3JdbOQrwnCan170G1iQbCLsoOy37TnV3aOaTRl9C3GxPbGGprqncWrHZpSJmJXstlw4tvTuu92RaYTkxxZcnG7dTfiJVHnU1iSLWpmEerdE2uz55r57wI5OYJvnD37KZQw5bNFtLDIMpMdnYGs7KXFVkuNPJeP1Q56ER2bjGpclJt1mT1dRPWSmWHmXdN8X+FqOfwp201whyuPW5YtySi71Fb+63S7dUJraqlJ/sbGpJqErIzysXJlRNJtuuT9qPwb17S+a13+K+emtsqRkoiMvgY/RTPVWysV2vgOHbHwi5i5Dh+d4zR5fi15CX34lvj2R1sa3p7FhR9DJuXAlsPpSpKVtks0uJSolJKpZH1LqXzHOUoyjKUZRcZRbjKMk1KMk9OMk9NNNNNNbT7MnvX0P0AAfAAAAAAAAAAAAAAAAAAAAAAAAAAAAAAAAAAAAAAAAAAAAAAAAAAAAAAAAAAAAAAAAAAAAAAAAAAAAAAAAAAAAAAAAAAAAAAAAAAAAAAAAAAAAAAAAAAAAAAAAAAAAAAAAAAAAAAAAAD4APk8ruoM/zGf9n/AJegAxp/ScOT8/UfCeh0nj1guFf8mM/jYxaeE6TMg9b4E3Hy7LyjuJI3S9bvvcSjnNNm23JqLqziyHFMvrjydfYMpn0qzOpdpys44a6ceWqDieiLXNI8c1GaGpef7CvqOa8lPXoSn2dawELV0I1lHQR/yfLFmHRvgHChieGcKcUlZmzvzLn+9Kdsqq/0oqqX1T+JBZs3LImn6R6Yr5JJN/xbKr6G1ZP3nvLTOkqqYmvs9xbX13qyunrR4qIM/YOX0+JQ5i2uqfETGkW7bykdS75INPUuvUXye007KfBeP8vPuTvZsbEyLY+n+OOy5+ueQOIwr2fM3NxO29ru3VAfyOxlx2K3IncIl2tYm4rMvbjoex6WSbNiym0Ck2VPYq0vsu00vuLU+4qNhEm61PsvBNl1EZxXcbkWmCZTVZTXsOLIjNCHZdUy2pREfdSoz6H06DIZ5ybT39wS5sK7U7hhYxcv4k8/6SLsWqnZDVSMr07nsjOqJEnaOg984zX2sVpGQQMrZyOzPH5djTXlaTk2LQ2jF3jOUorc3lrOQr5Xj1i5MK4WYmX5WJe1HE5HJhbjyswrp9MpV32YrnZh2xTdcqrm4WVedW6KvLdc+qO31R3Nbc64tNKcVtJpS0pJ9nuK2nplP9rZ3i3aqdmXyC5d7qxVFDzg7PFHH/Ess3jjTMCFC5O6027nH0f4uxsykYaYQjOMRZh2kx3IoiC8ZcSE1FJusuXqfH/Jaaz64569kTyt0nuR6TmO0uzdhYNv/jHse3cXZZZU6iya/PFds6msbqT4lm/hVJTRGragr3H322ZJ45BWuPTYPjsGPHvdHbC7N2zxv3JxdxXiB2f3GnXu+fcQtmWfFvjzcahyzIUa4zCvzbFm5s2Lsi3pbAoNtAdjtOXGP2b8Outblirdr37F2SVfOxvr8P2xontHOH+GZ3j+HcyOWumcPwfj3W7AeTT4RndDit1b5JsjAavIidJuLnuWU5twKWJZkxEQltq1aVMiV123FjrsS7B4vIvuxvukMPm8HO42qNv3lcZhO3j4ZurK1+yxEpclO6qO66sK2dajGuMYxrUozsjGMupzpnCx66VZPU3Ba9XLarW/VzSl67ZYQAevz/AM11Vm2U632Pi91hWeYTdz8cyzFMhgvV11Q3dY+qPNr58N9KVtOtOIM0qLvNPtKbfjuOsOtuL8gN2jKM4xnCSlGSUoyi1KMoyW1KLW0000002mntGJ6eoAAH0Gf56M3yfn7X4X3mlMhsFzL7jbnsnGasnXSdfTrnOm5GW4j6w4oidP1S+9+aSC24a0RqimrYsd1LLCI8fJqju95Jfn6f8Ak/8AEf8AV5jAX9FtzyXUcp+Q+vkPrRByvR1VmEhglGSHZeB5/R0sJ1SfgamWtizkJUZdUpfWRfyjGejWv99tBmfXqRdTM/tL5/b+by/tHNfjjDhheJuShXFRrvnVlxS7LqyaoW3PXzvdrWu2mT2HNzx69+sU4flF6X+7o9CA/En1IjH6NTMoAAAAAAAAAAAAAAAAAAAAAAAAAAAAAAAAAAAAAAAAAAAAAAAAAAAAAAAAAAAAAAAAAAAAAAAAAAAAAAAAAAAAAAAAAAAAAAAAAAAAAAAAAAAAAAAAAAAAAAAAAAAAAAAAAAAAAAAAOHLV0Qr7SSf9fl/4j/zDmDrpp9UKI/z/APOX/MAMAj0pehlR+bekcpWhRQrjjLUY/Hc6fe1Ssa2ptCxmNpP5qbayuCpf2E6j5GQxlxm3+lMaHl5JpjQvISrgrfXqnPr/AAPJ3mEdVMY5s+vgy62xmq8i9Sr8kwuFVMKMzUiblLaEoNL7im8JAdI+BcqGV4Y43pacsdXYtqX9GdV9nSn83VKqf0miBzIuOTZ8+mS+acV/jtfkBcN4Z9ptyW4U0mSa7w5eBbX0HnMr1zO+N2+sQi7L0tlEpSW23568anPxJlJZyWWmkTZWPWlYzbqjV6sgiXKKuvajW8gGz5WJjZtMsfLoryKZNSddsVJKUXuM477xnB+1CcWpwkk4tNbMaMpRe4txfxT12fqvmn716P3l+qB2yHGbFLKLlWv+xo4B0OcKlMLtbbIqGZmWOKh+Mk5rWMYZLpaytxGwfjqfYi2cKVLKGbqFOQ5jDaorvQ8v+Hmr9kata7UPsunryDpKuvIF1vjQtNPfb2twc2k281betxDqnW7RWqitGjtMUy2s8JvGGG48yK+3RsPoxWxmJfcJ+bG6eCG6a7cOnrGLJZkxVY/sXXWQJXNwLbOBTVkV1g2c0pmbFhV2DBuHElk36/Sz/Csq11qQ0ZOQ1vC/ctZXDOyGVWmrMbKy8rIxuQo7dWLfLJtvlTJJf6NkV98ebalCdE7a5Xlb1ezbpxfpKMYxlB7/ABR6VHf9ZP8AEvemk1eCxrI9bduxrCr1tsSzxXWXa46rxP1DWWzLI6/G8R504XjNe46xgubykJi11VumnrYyvZVu4hDU5plclkvdxdpBwjHqzrBcy1jmWTa82HjN1hmcYZdT8dyrFcigP1d3Q3dW+uNPrbKBJQh6PJjvIUlSVJ7q091xtS2loWq9Ty84g6u2jq9Paj9lo9eVen6a8rr7f/H6jnvsbW4O7SadbuCtqn2Q4zZr1MVoyq1xfKqgmmcVZYbnwHmMfiTouE1qp7jA+3X0/NxrL0VWDdrfojWtlbYtm8SBHrMb516xwCocmSccytmE0xDq9347TxVeoWSW2mLFho32yLFDnQ9cYGDm18dW76FauF811ZeHbFrK8OZW15ldle5Ncd1SUpQi5RxIzjkY8rOPsTornBzenrzdJxkvw3x92n6eZr3vTk/Zlqa744IAA3AxTJE9GOpZTnNHcmToQo4lTxwtqF9zofcTJyLZ+tLCKhR/DvuNYtNUgj+JNrMvIjMs/KjeNbTfmXXup6f2fLzP/wAX5viMPn0ZPSUvHdS7w31ZQlML2dnFHhGNvPo6KfoNbQZsqwnw1ef+op+Q5hLrHlEZKXMxlxKkklhtS8vegUZtoL7CL/m/sHOHj3Khk+KOQ6GpRx1j4u09rrqoh5q+sLZWQa+MWT2FFxx4b9ZdUvyb7fqkmVEaPqn+zz+35f8AMPqOPHP6pF+b/T/fHIGnGUAAAAAAAAAAAAAAAAAAAAAAAAAAAAAAAAAAAAAAAAAAAAAAAAAAAAAAAAAAAAAAAAAAAAAAAAAAAAAAAAAAAAAAAAAAAAAAAAAAAAAAAAAAAAAAAAAAAAAAAAAAAAAAAAAAAAAAAAHXzC+qroXU/P8A3uv/ADjsBxpKeqT/ADl/X+gv8wAgvzW48Yxyl487b0Pl5mzS7MxCxoDnpZQ+7SW6TbsMayOMy4XhuzcZySFUZBBbd6tLmVjKHCNs1ENWTuLUucaI2lnmndk1J0mc65yWyxbI68lm6wU6ueNCZcCSaGym1NnGNizp7FtBM2NVMhz2OrMhsz27WQw/FacI09epKI+pf2fp/qMuv9YxfO287KmZynpU8g9HVEf+6AwOlXCuMejNMRj29h0E3X2KrxujaVZtjyVPe7EqS50tq9xzGZTpk1QLrfQvAPiWvh8yzj82xV4GfOLVsnqGNlpKEbJv0jVdFRqtm+0HGqcnGuE2YObju2CnBbnBPt75R96XzXqvz9+jBfAcywr59TPnVVrBmVlpWTJNfZVthGehT6+fCeXGmQZ0OShqREmRJDTjEmM+228w82tp1CFoUkuGPfk00mmmmtprumn6NP3pkKAAABLvhTzX3XwR3TWbk01aRnPFjLoc/wAAv0OTsD2tgs1afbOD51Sd9LNjU2DPeONJIk2FNPJm0q32JbBKVdYpu0z7N3jhaZ9yR4M8Jdtar5nbGxLLscpPfzZdRc8feONjn1TJq8oyPT1NTuJu8md8GfOaqaXJaPHaipYdbiU7VRSpeon8ewBFZnDYGda7r4WqdlcachU33UQzKIPqjRmQqnCOTVFtpRtUmoSnXvy7JwlcjbOC0mtJ9UdpNwl+9Btbi379e9J+qTQVD1Nq3M927LwnUuvKs7jNNgZFX41j8E1m0wcywdJCpc6QSFlDq66OT9jbWDiTZr6yJLmv9GY6zLw8CBOtZ0Krq4Uuys7KXGgV1dAjPTJ0+dMeRHiQoUSOhyRKlypDjbEaMw248+84hppClqSk80rsauzCmcZaZW9t01Uf6d83qERKqgkNMSVapxOb4b71X43RxJZlfJJn3lkx19KuChvHIrv3y8XYYXibxDjeHuOsybJQnl2xlDBxm/auu1pScV3VNW1O6fZKOoJ+ZZBOvHolfYorfSu85e5L4b+L9Evz9Ey9/wALNBY5xp0RqzSWKGbtPrvFIFGU5TSWHbi1Ubk/IsgkMo+9tTMiyGZaXsxtro23LsHkoIm0pIri1C2ZNo6F59C/r+Hn8fL9H5xRDDq3w0tESfIunwL7OnT/AH+vQSCp4/cbR5H8C+wv83+n5z+zmW22y+22+2TnbdZO22cvxTssk5zk/nKTbfzZsCSilFLSSSSXoklpJfRHrGC+oX29C/5//EQ+4+bZdE/6fL/y9R9BbPoAAAAAAAAAAAAAAAAAAAAAAAAAAAAAAAAAAAAAAAAAAAAAAAAAAAAAAAAAAAAAAAAAAAAAAAAAAAAAAAAAAAAAAAAAAAAAAAAAAAAAAAAAAAAAAAAAAAAAAAAAAAAAAAAAAAAAAAAfwtPeSf8Ap/p9v9Q/sAB5a0i+IhRdPl/p/wD7P+r4iiWV0iZDbqVI7xKI+vl8Ovn+jp18/l0/OJEyWSWR+Xy/T/p9n6Pn5GPEW9WTqV/V6/H4F1/3/mAMantG+x00xy9es9g4ubGo97LbddXndNVpkU+aPMxibiRNhULLsVNk4XhMx2snr1xsihMGgpar2FDiVSMPvkv2fPLDihNsD2pqu5dxSC4sm9k4ezJyrXcthJGaJS8hgRiXRJeJLhsw8shY9arS0457PJpJOHs8sixonSWZt974/L4kfmXX5eXn8P6xQrIMLZe8VK46VEtK0qSpBKSpKiMlJUky6KSaT6dFdSMj8+nUbrwPjrl+EhDGn08jgwSUMfJnKNlMV6Rx8hKU64paShZC6uCWq4Q7mJdh1WtyX7Ob9ZRXZv5x7J/Nppv3s1WADYrbS7OXh/tSXIn5vxw1VZ2co1ql3FfisHGruWpRmZrl3eLlTW0pzqZmTkiY44kzPuqLr5RvV2LnZ5JletHx1j+J3u93fpN3P6t169enqf0i+qd35d3we70+XQb9T9qXDygnfx/J1z13jSsW6CfwU55GO2vn0L6GE+Ot37M62vi+qL/RRl/eYHImbxt4Acq+VMyvXq7Vtwzic1xJObJzBmRiuvYrBkSlyW8gnxjXekySmzeh4pCyC0Ql1tw4BtKNws3rWfZ38QNUy2J+D8cdVVlnFUhcS4sMVhZLdxFpMjJcS7yhNzbRXOpEZuMTG1q6EalH085rVeJpR4aG2EpSlKUpSlJJSkkkRElKCLokkkXQiIuhF0L5CL5H7Um4ShxXGuE2mlfnWJ9HzWNQ2pNeqbyNJpbjJbRcr47vuyza/dgvX/Wfp/s/mi0B2fvZF6c4kO12d5IpjbO8UoadTnNxWJj1GGvOxzalRNf0TrslNcs/FdYdyWwckZBMYJZRV0kOZLqlX0sUx7ueEkm+hF08un+f4f5vj8y8x/dFiyu8g/D+f2eXy/0+P5jFcMfx8myR97L4F8v9P9Pt6jy3kORzeUyZ5efkWZORPs5za1GK3qFcIpQrrjt9NdcYwW20tttyMK4VxUIRUYr3L3v4t+rb97fc73G6vwkI+qZH0L5ef2n0/wA/+nQVXgsdxKehfAi/t+ReZdS/r+XwMdPWQCaSku6Xl0+Xn/Z/vf2D1bLZIIv83+9/p/WfQYRWfUi6ERfYP0AAAAAAAAAAAAAAAAAAAAAAAAAAAAAAAAAAAAAAAAAAAAAAAAAAAAAAAAAAAAAAAAAAAAAAAAAAAAAAAAAAAAAAAAAAAAAAAAAAAAAAAAAAAAAAAAAAAAAAAAAAAAAAAAAAAAAAAAAAAAAB+GRGXQx18mMSyPy/8pf+T/N+gdiPwyI/IwB4Gxp0ukrqn49fl+b8/wCb7RTy0xdDneMkEfz8y/zl5f8AN8xXh2OlRH5df6i/0+fxL8/kOqfrkL6n3S/s+3r5/wC8XT4/29ABF2dhxKNX3r/N1/rLy6/+Mv8AN59zDPM/vXT+o/j8/l18vh8xKl6lbWf8gvl8vL5l0+H+n+cdeqgbP+YRH8zMvP8AR8ABGtjDPrF1a6/n6fn/AEf1fH5/YPU1+IEk09Wi+P4PQv0fAz/t/SX2itzdC2Rl0QXX9H5viZ9B2bFO2jp9QiIj6fD7C/0/R9vw6AeBq8bQ13fqF18j/k/2F/m+Z9TFQIFYlok9E9C6F8v7P9P7B27EFKOn1SL4fL9Hy6fL4/Z8R2bbKUF8P6v/APX/ADfm6mAPmwwSCLy/8v8Ap/5C+ZjlAAAAAAC2h91S49/kduX9nsI/iGH3VLj3+R25f2ewj+IYsDAAL/P3VLj3+R25f2ewj+IYfdUuPf5Hbl/Z7CP4hiwMAAv8/dUuPf5Hbl/Z7CP4hh91S49/kduX9nsI/iGLAwAC/wA/dUuPf5Hbl/Z7CP4hh91S49/kduX9nsI/iGLAwAC/z91S49/kduX9nsI/iGH3VLj3+R25f2ewj+IYsDAAL/P3VLj3+R25f2ewj+IYfdUuPf5Hbl/Z7CP4hiwMAAv8/dUuPf5Hbl/Z7CP4hh91S49/kduX9nsI/iGLAwAC/wA/dUuPf5Hbl/Z7CP4hh91S49/kduX9nsI/iGLAwAC/z91S49/kduX9nsI/iGH3VLj3+R25f2ewj+IYsDAAL/P3VLj3+R25f2ewj+IYfdUuPf5Hbl/Z7CP4hiwMAAv8/dUuPf5Hbl/Z7CP4hh91S49/kduX9nsI/iGLAwAC/wA/dUuPf5Hbl/Z7CP4hh91S49/kduX9nsI/iGLAwAC/z91S49/kduX9nsI/iGH3VLj3+R25f2ewj+IYsDAAL/P3VLj3+R25f2ewj+IYfdUuPf5Hbl/Z7CP4hiwMAAv8/dUuPf5Hbl/Z7CP4hh91S49/kduX9nsI/iGLAwAC/wA/dUuPf5Hbl/Z7CP4hh91S49/kduX9nsI/iGLAwAC/z91S49/kduX9nsI/iGH3VLj3+R25f2ewj+IYsDAAL/P3VLj3+R25f2ewj+IYfdUuPf5Hbl/Z7CP4hiwMAAv8/dUuPf5Hbl/Z7CP4hh91S49/kduX9nsI/iGLAwAC/wA/dUuPf5Hbl/Z7CP4hh91S49/kduX9nsI/iGLAwAC/z91S49/kduX9nsI/iGH3VLj3+R25f2ewj+IYsDAAL/P3VLj3+R25f2ewj+IYfdUuPf5Hbl/Z7CP4hiwMAAv8/dUuPf5Hbl/Z7CP4hh91S49/kduX9nsI/iGLAwAC/wA/dUuPf5Hbl/Z7CP4hh91S49/kduX9nsI/iGLAwAC/z91S49/kduX9nsI/iGH3VLj3+R25f2ewj+IYsDAAL/P3VLj3+R25f2ewj+IYfdUuPf5Hbl/Z7CP4hiwMAAv8/dUuPf5Hbl/Z7CP4hh91S49/kduX9nsI/iGLAwAC/wA/dUuPf5Hbl/Z7CP4hh91S49/kduX9nsI/iGLAwAC/z91S49/kduX9nsI/iGH3VLj3+R25f2ewj+IYsDAAL/P3VLj3+R25f2ewj+IYfdUuPf5Hbl/Z7CP4hiwMAAv8/dUuPf5Hbl/Z7CP4hh91S49/kduX9nsI/iGLAwAC/wA/dUuPf5Hbl/Z7CP4hh91S49/kduX9nsI/iGLAwAC/z91S49/kduX9nsI/iGH3VLj3+R25f2ewj+IYsDAAL/P3VLj3+R25f2ewj+IYfdUuPf5Hbl/Z7CP4hiwMAAv8/dUuPf5Hbl/Z7CP4hh91S49/kduX9nsI/iGLAwAC/wA/dUuPf5Hbl/Z7CP4hh91S49/kduX9nsI/iGLAwAC/z91S49/kduX9nsI/iGH3VLj3+R25f2ewj+IYsDAAL/P3VLj3+R25f2ewj+IYfdUuPf5Hbl/Z7CP4hiwMAAv8/dUuPf5Hbl/Z7CP4hh91S49/kduX9nsI/iGLAwAC/wA/dUuPf5Hbl/Z7CP4hj8PtUePR/HDdy/s9hH8QxYHAAX9D7U3jyf8A6Dty/s9hH/NsMh/P3Uvjx8sN3J+zuEl/9ohiwaAAv5F2pfHj8jdyEf5sdwn+Ig/su1O48l/6Ddy/s9hBf/aH1/ziwUAAv8l2qXHovhhu5f2ewj+IYfdUuPf5Hbl/Z7CP4hiwMAAv8/dUuPf5Hbl/Z7CP4hh91S49/kduX9nsI/iGLAwAC/z91S49/kduX9nsI/iGH3VLj3+R25f2ewj+IYsDAAAAAAAAAAAAAAAAAAAAAAAAAAAAAAAAAAAAAAAAAAAAAAAAAAAAAAAAAAAAAAAAAAAAAAAAAAAAAAAAAAAAAAAAAAAAAAAAAAAAAAAAAAAAAAAAAAAAAAAAAAAAB1L7QAAAAAAAAAAAAAAAAAAAAAAAAAAAAAAAAAAAAAAAAAAAAAAAAAAAAAAAAAAAAAAAAAAAAAAAAAAAAAAAAAAB6ErWnIiL3cjH0L4+vzfP8/8AKHni+Pn5l8y+HUej9cxf50Vj1+f/AJufP/5vAH8+1af8nI3/AMvm/wD9Q66fLhyfC9UrWq/ud/xPDkPv+L3u53evjGfd7ndV07vx7x9fgQ7P1zF/xFY//Pn/APwDrbB6re8L2bAkwu73/G9Yn+u+L17vh9wvVmPD7nRfePqrv94vJPd6mB1wAAAAAAAAAAAAAAAAAAAAAAAAAAAAAO4oILNjaxo0jqbHdkSHkpV3VLaiRnpTjaVdD6G4lk0Efy69fkOnHpMS/wCnbX/6jcf/AMnngD9Tk60dfV6XHW2PPwm3qePJWhsz6oSt5/vOuKJPQjWs+pn1/QP6LJlOKSmTSY64wZkTrbNRHirWjr9ZKXme642oy+C0qIy/3vLI/kJ/xU/7xD+gB217DZgWsqNG73q/diyGEqPvKbZmxGJjbSleXfNpL5Nmv+caevzHUj0WVGR3Tn5q6jI/zH7FgeQ86AAAAAAAAAAAAAAAAAAAAAAAAAAAAAADsIFXPs3DbhR1u9wurrp9G2GEdS6rffcNLLKC6/Fay6/BJGoyI+4P2FSn0I28isEl5mnvopI7n4PfMkP2C0fPuJRGPqX3xRkpI7GY2/dwIzNDJSuJGiMFIx9o0x5bb7TJFKkLaT3Ts0uOEt03+84skqIvDT8/EKQptSm1pUhaDNKkKSaVIUXxSpJkRpMvmRkRkAPWS5z9tjr8maTCnoltGYiqajssFHjvxpClxmyaQkyYJTSTQgzPun1Pqfl08iPRMf8AUtP/AP21A/8A4SYPOgAAAAAAAAAAAAAAAAAAAAAAAAAAAAAAAAAAAAAAAAAAAAAAAAAAAAAAAAAAAAAAAAAAAAAAAAAAAAAAAAAH6R6Il4r0Lqxd9ehdej0Pp1+f+1DzoAD0ffxT/wBQu/10P/8ABDrbBVUZtezG5yC6L8Y5jjK+p/V8Pw/CQky6fX7/AHuvX6vTp0Pr1wAAAAAAAAAAAAAAAAAAAAAAAAAAAAAAADsKueusnR5qEJd8FSiW0ozJLrTqFNPNmZGRkTjS1o6kfUuvUuhkRjrwAHpfCxBw1L9avopKUakxyhQpKWUmZmTaXzmsrcJBfVJSm0mZEXl16j9JGItKS4Um9l9wyUcdUKFGS6RefhqfKa8pslfA1JbUZF1HmQAHPs567OdImrQlo3jQlDSTNRNMMtoYjtd4/NXhMtto7x+Z93r8xwAAAAAAAAAAAAAAAAAAAAAAAAAAAAAAAAH6lSkLQ4hSkONqJbbiFKQ42tJkaVoWkyUhaTIjSpJkojIjIyMekK8YsUpayKKqatKSQi2i9xm1aSXUk+OfQmbBKOvkUgicIi6Jc6qUZ+aAAelmPVcWndr4Fj7SXKsWZneKHKierssMPNJQ+UlCSN5a3TI0sqcSRI7/AHu6pPXzQAAAAAAAAAAAAAAAAAAAAAAAAAAAAAAAAAAAAAAAAAAAAAAAAAAAAAAAAAAAAAAAAAAAAAAAAAAAAAAAAAAAAAAAAAAAAAAAAAAAAAAAAAAAAAAAAAAAAAAAAAAAAAAAAAAAAAAAAAAAAAAAAAAAAAAAAAAAAAAAAAAAAAAAAAAAAAAAAAAAAAAAAAAAAAAAAAAAAAAAAAAAAAAAD//Z;" vertex="1" parent="1">
          <mxGeometry x="967.4" y="120" width="85.2" height="180" as="geometry" />
        </mxCell>
        <mxCell id="7XXB0fpz-1v1JhN4-mr2-5" value="" style="ellipse;whiteSpace=wrap;html=1;aspect=fixed;" vertex="1" parent="1">
          <mxGeometry x="1000" y="280" width="20" height="20" as="geometry" />
        </mxCell>
      </root>
    </mxGraphModel>
  </diagram>
</mxfile>
